# ProBuilder 4.0.5
# https://unity3d.com/unity/features/worldbuilding/probuilder
# 2020/01/30 18:19:00

mtllib ./Road_04.mtl
o Road_04

g Road_04
v 18 -2.9104E-11 -77
v 18 -2.9104E-11 -74
v 14 -2.9104E-11 -77
v 14 -2.9104E-11 -74
v 5 9.999997E-05 -74
v 5 9.999997E-05 -77
v 5 0.0002 -81
v 14 9.999997E-05 -81
v 14 9.999997E-05 -71
v 5 0.0002 -71
v 5 0.0001 -59
v 14 0 -59
v 11 0.0001 -53
v 14 0 -53
v 11 0.0002 -59
v 14 0.0001 -50
v 11 0.0002 -50
v 4 0.0003 -50
v 4 0.0002 -53
v 1 0.0004 -50
v 1 0.0003 -53
v -4 0.0005 -50
v -4 0.0004 -53
v 14 0.0002 -44
v 11 0.0003 -44
v 14 0.0003 -41
v 11 0.0004 -41
v 14 0.0004 -35
v 11 0.0005 -35
v 14 0.0005 -32
v 11 0.0006 -32
v 4 0.0007 -32
v 4 0.0006 -35
v 1 0.0008 -32
v 1 0.0007 -35
v -4 0.0009 -32
v -4 0.0008 -35
v -7 0.0009999999 -32
v -7 0.0009 -35
v -7 0.0006 -50
v -7 0.0005 -53
v 4 0.0004 -47
v 1 0.0005 -47
v 4 0.0005 -38
v 1 0.0006 -38
v 8 0.0005 -41
v 8 0.0004 -44
v 8 0.0006 -41
v 8 0.0005 -47
v 8 0.0006 -38
v -7 0.0009999999 -41
v -4 0.0009 -41
v -7 0.0011 -44
v -4 0.0009999999 -44
v -7 0.0012 -50
v -4 0.0011 -50
v -1 0.0011 -44
v -1 0.0009999999 -41
v -1 0.0007 -38
v -1 0.0006 -47
v -10 0.0011 -32
v -10 0.0009999999 -35
v -10 0.0011 -41
v -10 0.0012 -44
v -10 0.0013 -50
v -10 0.0007 -50
v -10 0.0006 -53
v -13 0.0012 -41
v -13 0.0013 -44
v -16 0.0013 -41
v -16 0.0014 -44
v -13 0.0013 -39
v -16 0.0014 -39
v -16 0.0015 -46
v -13 0.0014 -46
v -10 0.0012 -39
v -10 0.0013 -46
v -16 0.0016 -53
v -13 0.0015 -53
v -16 0.0017 -61
v -13 0.0016 -61
v -20 0.0017 -53
v -20 0.0018 -61
v -28 0.0018 -53
v -28 0.001899999 -61
v -28 0.001999999 -62
v -20 0.001899999 -62
v -16 0.0018 -62
v -13 0.0017 -62
v -28 0.002099999 -70
v -20 0.001999999 -70
v -16 0.001899999 -70
v -13 0.0018 -70
v -28 0.0022 -71
v -20 0.002099999 -71
v -16 0.001999999 -71
v -13 0.001899999 -71
v -28 0.0023 -79
v -20 0.0022 -79
v -16 0.002099999 -79
v -13 0.001999999 -79
v -16 0.0022 -82
v -13 0.002099999 -82
v -20 0.0023 -82
v -16 0.0023 -85
v -13 0.0022 -85
v -16 0.0024 -88
v -13 0.0023 -88
v -10 0.0024 -88
v -10 0.0023 -85
v -13 0.0024 -91
v -10 0.0025 -91
v 17 0.0003 -44
v 17 0.0004 -41
v 23 0.0004 -44
v 23 0.0005 -41
v 23 0.0006 -38
v 17 0.0005 -38
v 17 0.0004 -47
v 23 0.0005 -47

vt 0 0
vt 0 3
vt 4 0
vt 4 3
vt 13 3
vt 13 0
vt 13 -4
vt 4 -4
vt 4 6
vt 13 6
vt 13 -3
vt 4 -3
vt 13 -15
vt 4 -15
vt 7 3
vt 7 -3
vt 7 6
vt 14 6
vt 14 3
vt 17 6
vt 17 3
vt 22 6
vt 22 3
vt 4 12
vt 7 12
vt 4 15
vt 7 15
vt 4 21
vt 7 21
vt 4 24
vt 7 24
vt 14 24
vt 14 21
vt 17 24
vt 17 21
vt 22 24
vt 22 21
vt 25 24
vt 25 21
vt 25 6
vt 25 3
vt 14 9
vt 17 9
vt 14 18
vt 17 18
vt 10 15
vt 10 12
vt -15 0.0005
vt -12 0.0004
vt -15 0.0006
vt 10 9
vt 10 18
vt 25 15
vt 22 15
vt 25 12
vt 22 12
vt 19 12
vt 19 15
vt 19 18
vt 19 9
vt 28 24
vt 28 21
vt 28 15
vt 28 12
vt 28 6
vt 28 3
vt 31 15
vt 31 12
vt 34 15
vt 34 12
vt 31 17
vt 34 17
vt 34 10
vt 31 10
vt 28 17
vt 28 10
vt 34 3
vt 31 3
vt 34 -5
vt 31 -5
vt 38 3
vt 38 -5
vt 46 3
vt 46 -5
vt 46 -6
vt 38 -6
vt 34 -6
vt 31 -6
vt 46 -14
vt 38 -14
vt 34 -14
vt 31 -14
vt 46 -15
vt 38 -15
vt 34 -15
vt 31 -15
vt 46 -23
vt 38 -23
vt 34 -23
vt 31 -23
vt 34 -26
vt 31 -26
vt 38 -26
vt 34 -29
vt 31 -29
vt 34 -32
vt 31 -32
vt 28 -32
vt 28 -29
vt 31 -35
vt 28 -35
vt 1 12
vt 1 15
vt -5 12
vt -5 15
vt -5 18
vt 1 18
vt 1 9
vt -5 9

vn 0 1 0
vn 1 0 0

g Road_04
usemtl ProBuilderDefault
f 3/3/1 4/4/1 2/2/1 1/1/1
f 6/6/1 5/5/1 4/4/1 3/3/1
f 8/8/1 7/7/1 6/6/1 3/3/1
f 10/10/1 9/9/1 4/4/1 5/5/1
f 9/14/1 10/13/1 11/11/1 12/12/1
f 12/12/1 15/16/1 13/15/1 14/4/1
f 17/17/1 16/9/1 14/4/1 13/15/1
f 19/19/1 18/18/1 17/17/1 13/15/1
f 21/21/1 20/20/1 18/18/1 19/19/1
f 23/23/1 22/22/1 20/20/1 21/21/1
f 25/25/1 24/24/1 16/9/1 17/17/1
f 27/27/1 26/26/1 24/24/1 25/25/1
f 29/29/1 28/28/1 26/26/1 27/27/1
f 31/31/1 30/30/1 28/28/1 29/29/1
f 33/33/1 32/32/1 31/31/1 29/29/1
f 35/35/1 34/34/1 32/32/1 33/33/1
f 37/37/1 36/36/1 34/34/1 35/35/1
f 39/39/1 38/38/1 36/36/1 37/37/1
f 41/41/1 40/40/1 22/22/1 23/23/1
f 43/43/1 42/42/1 18/18/1 20/20/1
f 45/45/1 44/44/1 42/42/1 43/43/1
f 35/35/1 33/33/1 44/44/1 45/45/1
f 47/47/1 46/46/1 27/27/1 25/25/1
f 47/49/2 48/50/2 46/48/2 47/49/2
f 50/52/1 49/51/1 42/42/1 44/44/1
f 52/54/1 51/53/1 39/39/1 37/37/1
f 54/56/1 53/55/1 51/53/1 52/54/1
f 56/22/1 55/40/1 53/55/1 54/56/1
f 58/58/1 57/57/1 54/56/1 52/54/1
f 60/60/1 59/59/1 45/45/1 43/43/1
f 62/62/1 61/61/1 38/38/1 39/39/1
f 63/63/1 62/62/1 39/39/1 51/53/1
f 64/64/1 63/63/1 51/53/1 53/55/1
f 65/65/1 64/64/1 53/55/1 55/40/1
f 67/66/1 66/65/1 40/40/1 41/41/1
f 69/68/1 68/67/1 63/63/1 64/64/1
f 71/70/1 70/69/1 68/67/1 69/68/1
f 73/72/1 72/71/1 68/67/1 70/69/1
f 75/74/1 74/73/1 71/70/1 69/68/1
f 72/71/1 76/75/1 63/63/1 68/67/1
f 77/76/1 75/74/1 69/68/1 64/64/1
f 79/78/1 78/77/1 74/73/1 75/74/1
f 81/80/1 80/79/1 78/77/1 79/78/1
f 83/82/1 82/81/1 78/77/1 80/79/1
f 85/84/1 84/83/1 82/81/1 83/82/1
f 87/86/1 86/85/1 85/84/1 83/82/1
f 88/87/1 87/86/1 83/82/1 80/79/1
f 89/88/1 88/87/1 80/79/1 81/80/1
f 91/90/1 90/89/1 86/85/1 87/86/1
f 92/91/1 91/90/1 87/86/1 88/87/1
f 93/92/1 92/91/1 88/87/1 89/88/1
f 95/94/1 94/93/1 90/89/1 91/90/1
f 96/95/1 95/94/1 91/90/1 92/91/1
f 97/96/1 96/95/1 92/91/1 93/92/1
f 99/98/1 98/97/1 94/93/1 95/94/1
f 100/99/1 99/98/1 95/94/1 96/95/1
f 101/100/1 100/99/1 96/95/1 97/96/1
f 103/102/1 102/101/1 100/99/1 101/100/1
f 102/101/1 104/103/1 99/98/1 100/99/1
f 106/105/1 105/104/1 102/101/1 103/102/1
f 108/107/1 107/106/1 105/104/1 106/105/1
f 110/109/1 109/108/1 108/107/1 106/105/1
f 112/111/1 111/110/1 108/107/1 109/108/1
f 114/113/1 113/112/1 24/24/1 26/26/1
f 116/115/1 115/114/1 113/112/1 114/113/1
f 118/117/1 117/116/1 116/115/1 114/113/1
f 120/119/1 119/118/1 113/112/1 115/114/1

