# ProBuilder 4.0.5
# https://unity3d.com/unity/features/worldbuilding/probuilder
# 2020/01/31 15:47:04

mtllib ./Road_00.mtl
o Road_00

g Road_00
v -15 0 -6
v -15 0 -3
v -20 0 -6
v -20 0 -3
v -8 0.0001 -6
v -8 0.0001 -3
v -15 0.0001 -1
v -20 0.0001 -1
v -20 0.0001 -8
v -15 0.0001 -8
v -5 0.0002 -6
v -5 0.0002 -3
v -8 0.0002 -14
v -5 0.0003 -14
v -8 0.0003 -21
v -5 0.0004 -21
v -11 0 -14
v -11 0.0004 -21
v -1 0.0005 -21
v -1 0.0004 -14
v 0 0.0003 -6
v 0 0.0003 -3
v 4 0.0004 -6
v 4 0.0004 -3
v 0 0.0004 -12
v 4 0.0005 -12
v 8 0.0006 -12
v 8 0.0005 -6
v 4 0.0005 7
v 0 0.0004 7
v 4 0.0006 13
v 0 0.0005 13
v -8 0.0006 13
v -8 0.0005 7
v 8 0.0006 7
v 8 0.0007 13
v 8 0.0007999999 18
v 4 0.0007 18
v 0 0.0006 18
v -8 0.0007 18
v 0 0.0007 23
v -8 0.0007999999 23
v 4 0.0007999999 23
v 8 0.0009 23
v -13 0.0009 23
v -13 0.0007999999 18
v -20 0.001 23
v -20 0.0009 18
v -13 0.001 25
v -20 0.0011 25
v -20 0.001 12
v -13 0.0009 14
v -20 0.0011 7
v -13 0.001 7
v -24 0.0011 12
v -24 0.0012 7
v -28 0.0012 12
v -28 0.0013 7
v -24 0.0012 16
v -28 0.0013 16
v -28 0.0014 4
v -24 0.0013 4
v 14 0.0008 13
v 14 0.0009 18
v 22 0.0009 13
v 22 0.0009999999 18
v 22 0.0011 23
v 14 0.0009999999 23
v 14 0.0009 7
v 22 0.0009999999 7

vt 12 -8
vt 12 -5
vt 17 -8
vt 17 -5
vt 5 -8
vt 5 -5
vt 12 -3
vt 17 -3
vt 17 -10
vt 12 -10
vt 2 -8
vt 2 -5
vt 5 -16
vt 2 -16
vt 5 -23
vt 2 -23
vt 8 -16
vt 8 -23
vt -2 -23
vt -2 -16
vt -3 -8
vt -3 -5
vt -7 -8
vt -7 -5
vt -3 -14
vt -7 -14
vt -11 -14
vt -11 -8
vt -7 5
vt -3 5
vt -7 11
vt -3 11
vt 5 11
vt 5 5
vt -11 5
vt -11 11
vt -11 16
vt -7 16
vt -3 16
vt 5 16
vt -3 21
vt 5 21
vt -7 21
vt -11 21
vt 10 21
vt 10 16
vt 17 21
vt 17 16
vt 10 23
vt 17 23
vt 17 10
vt 10 12
vt 17 5
vt 10 5
vt 21 10
vt 21 5
vt 17 0.0003
vt 21 0.0004000001
vt 21 0.0005000001
vt 25 10
vt 25 5
vt 21 14
vt 25 14
vt 25 2
vt 21 2
vt -17 11
vt -17 16
vt -25 11
vt -25 16
vt -25 21
vt -17 21
vt -17 5
vt -25 5

vn 0 1 0
vn 0 0 -1

g Road_00
usemtl ground
f 3/3/1 4/4/1 2/2/1 1/1/1
f 6/6/1 5/5/1 1/1/1 2/2/1
f 8/8/1 7/7/1 2/2/1 4/4/1
f 10/10/1 9/9/1 3/3/1 1/1/1
f 12/12/1 11/11/1 5/5/1 6/6/1
f 14/14/1 13/13/1 5/5/1 11/11/1
f 16/16/1 15/15/1 13/13/1 14/14/1
f 18/18/1 17/17/1 13/13/1 15/15/1
f 20/20/1 19/19/1 16/16/1 14/14/1
f 22/22/1 21/21/1 11/11/1 12/12/1
f 24/24/1 23/23/1 21/21/1 22/22/1
f 26/26/1 25/25/1 21/21/1 23/23/1
f 28/28/1 27/27/1 26/26/1 23/23/1
f 30/30/1 29/29/1 24/24/1 22/22/1
f 32/32/1 31/31/1 29/29/1 30/30/1
f 34/34/1 33/33/1 32/32/1 30/30/1
f 36/36/1 35/35/1 29/29/1 31/31/1
f 38/38/1 37/37/1 36/36/1 31/31/1
f 39/39/1 38/38/1 31/31/1 32/32/1
f 40/40/1 39/39/1 32/32/1 33/33/1
f 42/42/1 41/41/1 39/39/1 40/40/1
f 41/41/1 43/43/1 38/38/1 39/39/1
f 43/43/1 44/44/1 37/37/1 38/38/1
f 46/46/1 45/45/1 42/42/1 40/40/1
f 48/48/1 47/47/1 45/45/1 46/46/1
f 50/50/1 49/49/1 45/45/1 47/47/1
f 52/52/1 51/51/1 48/48/1 46/46/1
f 54/54/1 53/53/1 51/51/1 52/52/1
f 56/56/1 55/55/1 51/51/1 53/53/1
f 55/59/2 51/57/2 51/57/2 55/58/2
f 58/61/1 57/60/1 55/55/1 56/56/1
f 60/63/1 59/62/1 55/55/1 57/60/1
f 62/65/1 61/64/1 58/61/1 56/56/1
f 64/67/1 63/66/1 36/36/1 37/37/1
f 66/69/1 65/68/1 63/66/1 64/67/1
f 68/71/1 67/70/1 66/69/1 64/67/1
f 70/73/1 69/72/1 63/66/1 65/68/1

