# ProBuilder 4.0.5
# https://unity3d.com/unity/features/worldbuilding/probuilder
# 2020/02/22 20:31:19

mtllib ./H_Room_W_01_M.mtl
o H_Room_W_01_M

g Room_W_01_M
v 2.5 -1.25 -2.50005
v -2.5 -1.25 -2.50005
v 2.5 1.25 -2.50005
v -2.5 1.25 -2.50005
v -2.6001 -1.25 -2.50005
v -2.6001 -1.25 -2.60005
v -2.6001 1.25 -2.50005
v -2.6001 1.25 -2.60005
v -2.5 -1.25 -2.600049
v 2.5 -1.25 -2.600049
v -2.5 1.25 -2.600049
v 2.5 1.25 -2.600049
v 2.6001 -1.25 -2.60005
v 2.6001 -1.25 -2.50005
v 2.6001 1.25 -2.60005
v 2.6001 1.25 -2.50005
v 2.5001 -1.25 2.60005
v 2.5001 1.25 2.60005
v 2.6001 -1.25 2.60005
v 2.6001 1.25 2.60005
v 2.5001 -1.25 2.49995
v 2.5001 1.25 2.49995
v 2.6001 -1.25 2.49995
v 2.6001 1.25 2.49995
v -2.6001 -1.25 2.49995
v -2.6001 1.25 2.49995
v -2.6001 -1.25 2.60005
v -2.6001 1.25 2.60005
v -2.5001 -1.25 2.49995
v -2.5001 1.25 2.49995
v -2.5001 -1.25 2.60005
v -2.5001 1.25 2.60005

vt 2.5 -1.25
vt -2.5 -1.25
vt 2.5 1.25
vt -2.5 1.25
vt -2.50005 -1.25
vt -2.60005 -1.25
vt -2.50005 1.25
vt -2.60005 1.25
vt 2.5 -1.25
vt 2.5 1.25
vt 2.60005 -1.25
vt 2.60005 1.25
vt -2.5 -2.50005
vt 2.5 -2.50005
vt -2.5 -2.600049
vt 2.5 -2.600049
vt 2.5 -2.600049
vt -2.5 -2.600049
vt 2.5 -2.50005
vt -2.5 -2.50005
vt 0 0
vt -2.512383 1.25
vt -2.512383 -1.25
vt 2.6001 -2.60005
vt 2.6001 -2.50005
vt -2.6001 -2.50005
vt -2.6001 -2.60005
vt 2.6001 2.49995
vt 2.5001 2.49995
vt -2.5001 2.49995
vt -2.6001 2.49995
vt 2.6001 2.60005
vt 2.5001 2.60005
vt -2.5001 2.60005
vt -2.6001 2.60005

vn 0 0 1
vn -1 0 0
vn 0 0 -1
vn 1 0 0
vn 0 1 0
vn 0 -1 0
vn 0 0 0
vn -0.004773216 0 -0.9999886

g Room_W_01_M
usemtl ProBuilderDefault
f 3/3/1 4/4/1 2/2/1 1/1/1
f 7/7/2 8/8/2 6/6/2 5/5/2
f 11/10/3 12/7/3 10/5/3 9/9/3
f 15/12/4 16/3/4 14/1/4 13/11/4
f 12/15/5 11/16/5 4/14/5 3/13/5
f 1/19/6 2/20/6 9/18/6 10/17/6
f 10/21/7 1/21/7 1/21/7 10/21/7
f 12/22/8 10/23/8 10/23/8 12/22/8
f 1/1/1 3/3/1 3/3/1 1/1/1
f 3/21/7 12/21/7 12/21/7 3/21/7
f 13/24/6 14/25/6 1/19/6 10/17/6
f 15/8/3 13/6/3 10/5/3 12/7/3
f 19/11/1 20/12/1 18/3/1 17/1/1
f 16/26/5 15/27/5 12/15/5 3/13/5
f 21/9/2 22/10/2 3/7/2 1/5/2
f 23/28/6 21/29/6 1/19/6 14/25/6
f 22/30/5 24/31/5 16/26/5 3/13/5
f 24/4/4 23/2/4 14/1/4 16/3/4
f 27/11/2 28/12/2 26/10/2 25/9/2
f 19/32/6 17/33/6 21/29/6 23/28/6
f 18/34/5 20/35/5 24/31/5 22/30/5
f 20/8/4 19/6/4 23/2/4 24/4/4
f 29/1/3 30/3/3 22/7/3 21/5/3
f 31/34/6 29/30/6 21/29/6 17/33/6
f 30/29/5 32/33/5 18/34/5 22/30/5
f 32/7/1 31/5/1 17/1/1 18/3/1
f 25/11/3 26/12/3 30/3/3 29/1/3
f 27/35/6 25/31/6 29/30/6 31/34/6
f 26/28/5 28/32/5 32/33/5 30/29/5
f 28/8/1 27/6/1 31/5/1 32/7/1
f 5/26/6 6/27/6 9/18/6 2/20/6
f 7/8/1 5/6/1 2/2/1 4/4/1
f 6/11/3 8/12/3 11/3/3 9/1/3
f 8/24/5 7/25/5 4/14/5 11/16/5
f 4/21/7 2/21/7 2/21/7 4/21/7
f 7/21/7 4/21/7 4/21/7 7/21/7
f 2/21/7 5/21/7 5/21/7 2/21/7
f 5/21/7 7/21/7 7/21/7 5/21/7
f 29/21/7 30/21/7 30/21/7 29/21/7
f 25/21/7 29/21/7 29/21/7 25/21/7
f 30/21/7 26/21/7 26/21/7 30/21/7
f 26/21/7 25/21/7 25/21/7 26/21/7

