# ProBuilder 4.0.5
# https://unity3d.com/unity/features/worldbuilding/probuilder
# 2020/02/26 11:20:35

mtllib ./Room_W_06_M.mtl
o Room_W_06_M

g Room_W_06_M
v -0.4999998 -1.25 -2.5
v -2.5 -1.25 -2.5
v -0.4999998 1.25 -2.5
v -2.5 1.25 -2.5
v -2.5 -1.25 -2.6
v -2.5 1.25 -2.6
v -0.4999998 -1.25 -2.6
v -0.4999998 1.25 -2.6
v 2.6 -1.25 -2.6
v 2.6 -1.25 -2.5
v 2.6 1.25 -2.6
v 2.6 1.25 -2.5
v 0.5000002 -1.25 -2.6
v 0.5000002 -1.25 -2.5
v 2.5 -1.25 -2.6
v 2.5 -1.25 -2.5
v 0.5000002 1.25 -2.6
v 2.5 1.25 -2.6
v 0.5000002 1.25 -2.5
v 2.5 1.25 -2.5
v 2.5 -1.25 2.6
v 2.5 1.25 2.6
v 2.6 -1.25 2.6
v 2.6 1.25 2.6
v 2.5 -1.25 -0.5000002
v 2.5 1.25 -0.5000002
v 2.6 -1.25 -0.5000002
v 2.6 1.25 -0.5000002
v 2.5 -1.25 0.4999998
v 2.5 1.25 0.4999998
v 2.5 -1.25 2.5
v 2.5 1.25 2.5
v 2.6 -1.25 0.4999998
v 2.6 -1.25 2.5
v 2.6 1.25 0.4999998
v 2.6 1.25 2.5
v -2.6 -1.25 2.5
v -2.6 1.25 2.5
v -2.6 -1.25 2.6
v -2.6 1.25 2.6
v 0.5000002 -1.25 2.5
v 0.5000002 1.25 2.5
v 0.5000002 -1.25 2.6
v 0.5000002 1.25 2.6
v -0.4999998 -1.25 2.5
v -0.4999998 1.25 2.5
v -2.5 -1.25 2.5
v -2.5 1.25 2.5
v -0.4999998 -1.25 2.6
v -2.5 -1.25 2.6
v -0.4999998 1.25 2.6
v -2.5 1.25 2.6
v -2.6 -1.25 -2.6
v -2.6 1.25 -2.6
v -2.5 -1.25 0.4999998
v -2.5 1.25 0.4999998
v -2.6 -1.25 0.4999998
v -2.6 1.25 0.4999998
v -2.5 -1.25 -0.5000002
v -2.5 1.25 -0.5000002
v -2.6 -1.25 -0.5000002
v -2.6 -1.25 -2.5
v -2.6 1.25 -0.5000002
v -2.6 1.25 -2.5
v -0.4999998 0.75 2.5
v -0.4999998 0.75 2.6
v 0.4999003 0.75 2.5
v 0.4999003 1.25 2.5
v 0.4999003 1.25 2.6
v 0.4999003 0.75 2.6
v 2.5 0.75 -0.5000002
v 2.6 0.75 -0.5000002
v 2.5 0.75 0.4999001
v 2.6 0.75 0.4999001
v 0.5000002 0.75 -2.5
v 0.5000002 0.75 -2.6
v -0.4998999 0.75 -2.5
v -0.4998999 0.75 -2.6
v -2.5 0.75 -0.5000002
v -2.6 0.75 -0.5000002
v -2.5 0.75 0.4999001
v -2.6 0.75 0.4999001

vt -0.4999998 -1.25
vt -2.5 -1.25
vt -0.4999998 1.25
vt -2.5 1.25
vt -2.5 -1.25
vt -2.6 -1.25
vt -2.5 1.25
vt -2.6 1.25
vt 2.5 -1.25
vt 0.4999995 -1.25
vt 2.5 1.25
vt 0.4999995 1.25
vt 2.6 -1.25
vt 2.5 -1.25
vt 2.6 1.25
vt 2.5 1.25
vt 0.4999998 -2.5
vt 2.5 -2.5
vt 0.4999998 -2.6
vt 2.5 -2.6
vt -0.4999998 -2.6
vt -2.5 -2.6
vt -0.4999998 -2.5
vt -2.5 -2.5
vt 0.5000002 -2.6
vt 0.5000002 -2.5
vt 2.5 -2.6
vt 2.5 -2.5
vt -0.5000002 1.25
vt -0.5000002 -1.25
vt 0.5000002 -1.25
vt 0.5000002 1.25
vt -0.5000002 -2.5
vt -0.5000002 -2.6
vt -2.5 -2.5
vt -2.5 -2.6
vt 2.6 -2.6
vt 2.6 -2.5
vt -2.6 -2.5
vt -2.6 -2.6
vt 2.6 -0.5000002
vt 2.5 -0.5000002
vt -2.5 -0.5000002
vt -2.6 -0.5000002
vt 2.6 0.4999998
vt 2.5 0.4999998
vt 2.6 2.5
vt 2.5 2.5
vt -2.5 0.4999998
vt -2.6 0.4999998
vt -2.5 2.5
vt -2.6 2.5
vt 2.6 2.6
vt 2.5 2.6
vt -2.5 2.6
vt -2.6 2.6
vt 0.5000002 2.6
vt 0.5000002 2.5
vt -0.5000002 2.5
vt -0.5000002 2.6
vt -0.4999998 2.6
vt -0.4999998 2.5
vt -2.5 2.6
vt -2.5 2.5
vt 0.4999998 2.5
vt 0.4999998 2.6
vt 2.5 2.5
vt 2.5 2.6
vt -2.5 0.4999998
vt 2.5 0.4999998
vt -2.5 -0.5000002
vt 2.5 -0.5000002
vt 2.5 0.75
vt 2.6 0.75
vt -0.4999003 0.75
vt 0 0
vt 0.4999003 0.75
vt 2.6 0.749975
vt 2.5 0.749975
vt -2.5 0.75
vt -2.6 0.75
vt -2.5 0.7499751
vt -2.6 0.7499751
vt -0.5000002 0.75
vt 0.5000002 0.75
vt 2.5 0.75
vt 2.5 0.749975

vn 0 0 1
vn -1 0 0
vn -1.192093E-07 0 -1
vn 1 0 0
vn 0 1 0
vn 0 -1 0
vn 0 0 0

g Room_W_06_M
usemtl ProBuilderDefault
f 3/3/1 4/4/1 2/2/1 1/1/1
f 4/7/2 6/8/2 5/6/2 2/5/2
f 6/11/3 8/12/3 7/10/3 5/9/3
f 11/15/4 12/16/4 10/14/4 9/13/4
f 8/19/5 6/20/5 4/18/5 3/17/5
f 1/23/6 2/24/6 5/22/6 7/21/6
f 15/27/6 16/28/6 14/26/6 13/25/6
f 18/7/3 15/5/3 13/30/3 17/29/3
f 16/14/1 20/16/1 19/32/1 14/31/1
f 20/35/5 18/36/5 17/34/5 19/33/5
f 9/37/6 10/38/6 16/28/6 15/27/6
f 11/8/3 9/6/3 15/5/3 18/7/3
f 23/13/1 24/15/1 22/16/1 21/14/1
f 12/39/5 11/40/5 18/36/5 20/35/5
f 25/30/2 26/29/2 20/7/2 16/5/2
f 27/41/6 25/42/6 16/28/6 10/38/6
f 26/43/5 28/44/5 12/39/5 20/35/5
f 28/32/4 27/31/4 10/14/4 12/16/4
f 31/9/2 32/11/2 30/12/2 29/10/2
f 34/47/6 31/48/6 29/46/6 33/45/6
f 32/51/5 36/52/5 35/50/5 30/49/5
f 36/4/4 34/2/4 33/1/4 35/3/4
f 39/13/2 40/15/2 38/11/2 37/9/2
f 23/53/6 21/54/6 31/48/6 34/47/6
f 22/55/5 24/56/5 36/52/5 32/51/5
f 24/8/4 23/6/4 34/2/4 36/4/4
f 41/30/3 42/29/3 32/7/3 31/5/3
f 43/57/6 41/58/6 31/48/6 21/54/6
f 42/59/5 44/60/5 22/55/5 32/51/5
f 44/32/1 43/31/1 21/14/1 22/16/1
f 47/9/3 48/11/3 46/12/3 45/10/3
f 50/63/6 47/64/6 45/62/6 49/61/6
f 48/67/5 52/68/5 51/66/5 46/65/5
f 52/4/1 50/2/1 49/1/1 51/3/1
f 53/13/3 54/15/3 6/11/3 5/9/3
f 39/56/6 37/52/6 47/64/6 50/63/6
f 38/47/5 40/53/5 52/68/5 48/67/5
f 40/8/1 39/6/1 50/2/1 52/4/1
f 55/1/4 56/3/4 48/4/4 47/2/4
f 57/50/6 55/69/6 47/64/6 37/52/6
f 56/70/5 58/45/5 38/47/5 48/67/5
f 58/12/2 57/10/2 37/9/2 38/11/2
f 2/14/4 4/16/4 60/32/4 59/31/4
f 62/39/6 2/24/6 59/71/6 61/44/6
f 4/18/5 64/38/5 63/41/5 60/72/5
f 64/7/2 62/5/2 61/30/2 63/29/2
f 5/13/4 6/15/4 4/16/4 2/14/4
f 53/40/6 5/22/6 2/24/6 62/39/6
f 6/20/5 54/37/5 64/38/5 4/18/5
f 54/8/2 53/6/2 62/5/2 64/7/2
f 51/8/4 49/6/4 45/2/4 46/4/4
f 66/74/2 51/15/2 46/11/2 65/73/2
f 67/75/3 68/3/3 42/29/3 41/30/3
f 68/76/7 69/76/7 44/76/7 42/76/7
f 69/12/1 70/77/1 43/31/1 44/32/1
f 70/78/2 67/79/2 41/9/2 43/13/2
f 65/77/3 46/12/3 68/3/3 67/75/3
f 46/65/5 51/66/5 69/61/5 68/62/5
f 51/3/1 66/75/1 70/77/1 69/12/1
f 66/61/6 65/62/6 67/65/6 70/66/6
f 28/8/3 72/81/3 71/80/3 26/7/3
f 27/13/1 28/15/1 26/16/1 25/14/1
f 30/12/2 73/77/2 29/10/2 30/12/2
f 73/82/3 74/83/3 33/6/3 29/5/3
f 74/75/4 35/3/4 35/3/4 33/1/4
f 35/76/7 30/76/7 30/76/7 35/76/7
f 26/29/2 71/84/2 73/77/2 30/12/2
f 71/42/6 72/41/6 74/45/6 73/46/6
f 72/85/4 28/32/4 35/3/4 74/75/4
f 28/44/5 26/43/5 30/49/5 35/50/5
f 17/8/2 13/6/2 14/5/2 19/7/2
f 76/74/4 17/15/4 19/16/4 75/86/4
f 77/75/1 3/3/1 3/3/1 1/1/1
f 3/76/7 8/76/7 8/76/7 3/76/7
f 8/12/3 78/77/3 7/10/3 8/12/3
f 78/78/4 77/87/4 1/14/4 7/13/4
f 75/85/1 19/32/1 3/3/1 77/75/1
f 19/33/5 17/34/5 8/19/5 3/17/5
f 17/29/3 76/84/3 78/77/3 8/12/3
f 76/25/6 75/26/6 77/23/6 78/21/6
f 63/8/1 61/6/1 59/5/1 60/7/1
f 80/74/3 63/15/3 60/11/3 79/73/3
f 81/75/4 56/3/4 56/3/4 55/1/4
f 56/76/7 58/76/7 58/76/7 56/76/7
f 58/12/2 82/77/2 57/10/2 58/12/2
f 82/78/3 81/79/3 55/9/3 57/13/3
f 79/85/4 60/32/4 56/3/4 81/75/4
f 60/72/5 63/41/5 58/45/5 56/70/5
f 63/29/2 80/84/2 82/77/2 58/12/2
f 80/44/6 79/71/6 81/69/6 82/50/6

