# ProBuilder 4.0.5
# https://unity3d.com/unity/features/worldbuilding/probuilder
# 2020/02/26 11:13:57

mtllib ./Room_W_04_M.mtl
o Room_W_04_M

g Room_W_04_M
v 2.55 -1.25 2.6
v 2.45 -1.25 2.6
v 2.55 1.25 2.6
v 2.45 1.25 2.6
v 2.45 -1.25 2.5
v 2.45 -1.25 -2.5
v 2.45 1.25 2.5
v 2.45 1.25 -2.5
v 2.55 -1.25 -2.5
v 2.55 1.25 -2.5
v 2.55 -1.25 2.5
v 2.55 1.25 2.5
v -2.55 -1.25 2.5
v -2.55 1.25 2.5
v -2.55 -1.25 2.6
v -2.55 1.25 2.6
v 0.5500002 -1.25 2.5
v 0.5500002 1.25 2.5
v 0.5500002 -1.25 2.6
v 0.5500002 1.25 2.6
v -0.45 -1.25 2.5
v -0.45 1.25 2.5
v -2.45 -1.25 2.5
v -2.45 1.25 2.5
v -0.45 -1.25 2.6
v -2.45 -1.25 2.6
v -0.45 1.25 2.6
v -2.45 1.25 2.6
v -2.45 -1.25 -2.6
v -2.45 1.25 -2.6
v -2.55 -1.25 -2.6
v -2.55 1.25 -2.6
v -2.45 -1.25 -2.5
v -2.45 1.25 -2.5
v -2.55 -1.25 -2.5
v -2.55 1.25 -2.5
v 2.55 -1.25 -2.6
v 2.55 1.25 -2.6
v -0.45 -1.25 -2.5
v -0.45 1.25 -2.5
v -0.45 -1.25 -2.6
v -0.45 1.25 -2.6
v 0.5500002 -1.25 -2.5
v 0.5500002 1.25 -2.5
v 0.5500002 -1.25 -2.6
v 0.5500002 1.25 -2.6
v -0.45 0.75 -2.5
v -0.45 0.75 -2.6
v 0.5499003 1.25 -2.5
v 0.5499003 0.75 -2.5
v 0.5499003 0.75 -2.6
v 0.5499003 1.25 -2.6
v -0.45 0.75 2.6
v -0.45 0.75 2.5
v 0.5499003 1.25 2.6
v 0.5499003 0.75 2.6
v 0.5499003 0.75 2.5
v 0.5499003 1.25 2.5

vt 2.55 -1.25
vt 2.45 -1.25
vt 2.55 1.25
vt 2.45 1.25
vt 2.5 -1.25
vt -2.5 -1.25
vt 2.5 1.25
vt -2.5 1.25
vt -2.45 -1.25
vt -2.55 -1.25
vt -2.45 1.25
vt -2.55 1.25
vt 2.5 -1.25
vt -2.5 -1.25
vt 2.5 1.25
vt -2.5 1.25
vt -2.55 2.5
vt -2.45 2.5
vt -2.55 -2.5
vt -2.45 -2.5
vt 2.55 -2.5
vt 2.45 -2.5
vt 2.55 2.5
vt 2.45 2.5
vt 2.55 2.6
vt 2.45 2.6
vt -2.6 1.25
vt -2.6 -1.25
vt 2.6 -1.25
vt 2.6 1.25
vt -2.45 2.6
vt -2.55 2.6
vt -0.5500002 -1.25
vt -0.5500002 1.25
vt 0.5500002 2.6
vt 0.5500002 2.5
vt -0.5500002 2.5
vt -0.5500002 2.6
vt 0.5500002 1.25
vt 0.5500002 -1.25
vt 0.45 -1.25
vt 0.45 1.25
vt 2.45 -1.25
vt 2.45 1.25
vt -0.45 2.6
vt -0.45 2.5
vt -2.45 2.6
vt -2.45 2.5
vt 0.45 2.5
vt 0.45 2.6
vt 2.45 2.5
vt 2.45 2.6
vt -0.45 1.25
vt -0.45 -1.25
vt -2.45 1.25
vt -2.45 -1.25
vt -2.45 -2.5
vt 2.45 -2.5
vt -2.55 -2.6
vt -2.45 -2.6
vt 2.45 -2.6
vt 2.55 -2.6
vt -0.45 -2.6
vt -0.45 -2.5
vt 0.45 -2.5
vt 0.45 -2.6
vt 0.5500002 -2.6
vt 0.5500002 -2.5
vt -0.5500002 -2.5
vt -0.5500002 -2.6
vt -2.5 0.75
vt -2.6 0.75
vt 0.5499003 1.25
vt 0.5499003 0.75
vt -2.5 0.7499725
vt -2.6 0.7499725
vt -0.5499003 0.75
vt -0.5499003 1.25
vt 0 0
vt -0.45 0.75
vt 0.5499003 -2.5
vt 0.5499003 -2.6
vt 0.45 0.75
vt -0.5499003 -2.6
vt -0.5499003 -2.5
vt 2.6 0.75
vt 2.5 0.75
vt 2.6 0.7499725
vt 2.5 0.7499725
vt 0.5499003 2.6
vt 0.5499003 2.5
vt -0.5499003 2.5
vt -0.5499003 2.6

vn 0 0 1
vn -1 0 0
vn 0 0 -1
vn 1 0 0
vn 0 1 0
vn 0 -1 0
vn 0 0 0

g Room_W_04_M
usemtl ProBuilderDefault
f 3/3/1 4/4/1 2/2/1 1/1/1
f 7/7/2 8/8/2 6/6/2 5/5/2
f 8/11/3 10/12/3 9/10/3 6/9/3
f 10/15/4 12/16/4 11/14/4 9/13/4
f 10/19/5 8/20/5 7/18/5 12/17/5
f 11/23/6 5/24/6 6/22/6 9/21/6
f 1/25/6 2/26/6 5/24/6 11/23/6
f 3/27/4 1/28/4 11/14/4 12/16/4
f 15/29/2 16/30/2 14/7/2 13/5/2
f 4/31/5 3/32/5 12/17/5 7/18/5
f 17/33/3 18/34/3 7/11/3 5/9/3
f 19/35/6 17/36/6 5/24/6 2/26/6
f 18/37/5 20/38/5 4/31/5 7/18/5
f 20/39/1 19/40/1 2/2/1 4/4/1
f 23/43/3 24/44/3 22/42/3 21/41/3
f 26/47/6 23/48/6 21/46/6 25/45/6
f 24/51/5 28/52/5 27/50/5 22/49/5
f 28/55/1 26/56/1 25/54/1 27/53/1
f 31/1/3 32/3/3 30/44/3 29/43/3
f 15/32/6 13/17/6 23/48/6 26/47/6
f 14/23/5 16/25/5 28/52/5 24/51/5
f 16/12/1 15/10/1 26/56/1 28/55/1
f 33/13/4 34/15/4 24/16/4 23/14/4
f 35/19/6 33/57/6 23/48/6 13/17/6
f 34/58/5 36/21/5 14/23/5 24/51/5
f 36/8/2 35/6/2 13/5/2 14/7/2
f 37/29/4 38/30/4 10/15/4 9/13/4
f 31/59/6 29/60/6 33/57/6 35/19/6
f 30/61/5 32/62/5 36/21/5 34/58/5
f 32/27/2 31/28/2 35/6/2 36/8/2
f 39/54/1 40/53/1 34/55/1 33/56/1
f 41/63/6 39/64/6 33/57/6 29/60/6
f 40/65/5 42/66/5 30/61/5 34/58/5
f 42/42/3 41/41/3 29/43/3 30/44/3
f 9/1/1 10/3/1 44/39/1 43/40/1
f 37/62/6 9/21/6 43/68/6 45/67/6
f 10/19/5 38/59/5 46/70/5 44/69/5
f 38/12/3 37/10/3 45/33/3 46/34/3
f 42/27/2 48/72/2 47/71/2 40/8/2
f 49/73/1 50/74/1 43/40/1 44/39/1
f 50/75/2 51/76/2 45/28/2 43/6/2
f 51/77/3 52/78/3 46/34/3 45/33/3
f 52/79/7 49/79/7 44/79/7 46/79/7
f 40/53/1 47/80/1 50/74/1 49/73/1
f 47/64/6 48/63/6 51/82/6 50/81/6
f 48/83/3 42/42/3 52/78/3 51/77/3
f 42/66/5 40/65/5 49/85/5 52/84/5
f 22/7/2 54/87/2 53/86/2 27/30/2
f 55/73/1 56/74/1 19/40/1 20/39/1
f 56/88/2 57/89/2 17/5/2 19/29/2
f 57/77/3 58/78/3 18/34/3 17/33/3
f 58/79/7 55/79/7 20/79/7 18/79/7
f 27/53/1 53/80/1 56/74/1 55/73/1
f 53/45/6 54/46/6 57/91/6 56/90/6
f 54/83/3 22/42/3 58/78/3 57/77/3
f 22/49/5 27/50/5 55/93/5 58/92/5

