# ProBuilder 4.0.5
# https://unity3d.com/unity/features/worldbuilding/probuilder
# 2020/03/18 15:30:34

mtllib ./R_Wall_door_4mx3m.mtl
o R_Wall_door_4mx3m

g R_Wall_door_4mx3m
v 0 0 0
v 0 3 0
v -0.0001001358 0 1.5
v -0.0001001358 3 1.5
v 0 0 4
v -0.0001001358 0 2.5
v 0 3 4
v -0.0001001358 3 2.5
v -0.0002002716 2 1.5
v -0.0002002716 2 2.5

vt 0 0
vt 0 3
vt 1.5 0
vt 1.5 3
vt 0 4
vt -0.0001001358 2.5
vt -0.0001001358 1.5
vt 4 3
vt 4 0
vt 2.5 3
vt 2.5 0
vt 0.0002002716 2
vt 1.5 2
vt 2.5 2

vn -1 0 -6.67572E-05
vn 0 -1 0
vn 0 1 0
vn 0 0 -1
vn 0 0 1

g R_Wall_door_4mx3m
usemtl ProBuilderDefault
f 3/3/1 4/4/1 2/2/1 1/1/1
f 6/6/2 3/7/2 1/1/2 5/5/2
f 4/7/3 8/6/3 7/5/3 2/1/3
f 8/10/1 6/11/1 5/9/1 7/8/1
f 3/1/4 9/12/4 4/2/4 3/1/4
f 6/6/2 3/7/2 3/7/2 6/6/2
f 9/13/1 10/14/1 8/10/1 4/4/1
f 10/12/5 6/1/5 6/1/5 8/2/5

