# ProBuilder 4.0.5
# https://unity3d.com/unity/features/worldbuilding/probuilder
# 2020/03/24 18:18:31

mtllib ./OmemeEye.mtl
o OmemeEye

g OmemeEye
v 0.05257311 0.1850651 0
v 0.0809017 0.15 0.0309017
v 0.0309017 0.1809017 0.05
v 0.08506508 0.1 0.05257311
v 0.05 0.1309017 0.0809017
v 0 0.1525731 0.08506508
v 0 0.2 0
v -0.0309017 0.1809017 0.05
v -0.05257311 0.1850651 0
v 0.0309017 0.1809017 -0.05
v -0.0309017 0.1809017 -0.05
v 0 0.1525731 -0.08506508
v 0.0809017 0.15 -0.0309017
v 0.05 0.1309017 -0.0809017
v 0.08506508 0.1 -0.05257311
v 0.1 0.1 0
v -0.0809017 0.15 0.0309017
v -0.05 0.1309017 0.0809017
v -0.08506508 0.1 0.05257311
v 0 0.1 0.1
v 0.05 0.0690983 0.0809017
v 0 0.04742689 0.08506508
v 0.0809017 0.05 0.0309017
v 0.0809017 0.05 -0.0309017
v 0.05257311 0.01493492 0
v 0.05 0.0690983 -0.0809017
v 0 0.1 -0.1
v 0 0.04742689 -0.08506508
v -0.05 0.1309017 -0.0809017
v -0.0809017 0.15 -0.0309017
v -0.08506508 0.1 -0.05257311
v -0.05257311 0.01493492 0
v -0.0809017 0.05 0.0309017
v -0.0309017 0.0190983 0.05
v -0.05 0.0690983 0.0809017
v 0 0 0
v 0.0309017 0.0190983 0.05
v -0.0309017 0.0190983 -0.05
v 0.0309017 0.0190983 -0.05
v -0.0809017 0.05 -0.0309017
v -0.05 0.0690983 -0.0809017
v -0.1 0.1 0

vt 0.2952182 0.124581
vt 0.1869781 0.2426528
vt 0.3780221 0.315625
vt 0.3780221 0.6977129
vt 0.2952182 0.5066689
vt 0.1869781 0.6247405
vt 0.8052094 0.6977129
vt 0.6871377 0.6247405
vt 0.6141654 0.8157845
vt 0.4960938 0.7075443
vt 0.4960938 0.124581
vt 0.3780221 0.0304687
vt 0.4960938 0.1644481
vt 0.6141654 0.0304687
vt 0.6141654 0.315625
vt 0.6969693 0.124581
vt 0.3780221 -0.06646302
vt 0.6141654 -0.06646302
vt 0.4960938 -0.2004423
vt 0.1869781 0.006509304
vt 0.3780221 0.8157845
vt 0.3050498 0.6247405
vt 0.1869781 0.6977129
vt 0.6141654 0.6977129
vt 0.8052094 0.6247405
vt 0.6969693 0.5066689
vt 0.4960938 0.8316922
vt 0.4960938 0.5066689
vt 0.8052094 0.2426528
vt 0.8211171 0.5066689
vt 0.6871377 0.3885971
vt 0.4960938 0.3057933
vt 0.4960938 0.1816456
vt 0.1710704 0.5066689
vt 0.3050498 0.3885971
vt 0.8052094 0.006509304
vt 0.8052094 0.3885971
vt 0.1869781 0.315625
vt 0.3780221 0.1975532
vt 0.4960938 0.4496043
vt 0.6141654 0.1975532
vt 0.8052094 0.315625
vt 0.1869781 0.3885971

vn 0.5831288 0.7487835 0.3150939
vn 0.7487835 0.3150938 0.5831289
vn 0.5773503 0.5773503 0.5773504
vn 0.3150939 0.5831288 0.7487835
vn 0.2680348 0.9435223 0.1947387
vn 0 0.7778674 0.6284284
vn 0 0.9341724 0.3568221
vn -0.2680348 0.9435223 0.1947387
vn 0.2680348 0.9435223 -0.1947387
vn -0.2680348 0.9435223 -0.1947387
vn 0 0.9341724 -0.3568221
vn 0 0.7778674 -0.6284284
vn 0.5831288 0.7487835 -0.3150939
vn 0.3150939 0.5831288 -0.7487835
vn 0.5773503 0.5773503 -0.5773504
vn 0.7487835 0.3150938 -0.5831289
vn 0.7778675 0.6284283 0
vn 0.9435222 0.1947386 -0.2680349
vn 0.9341724 0.356822 0
vn 0.9435222 0.1947386 0.2680349
vn -0.5831288 0.7487835 0.3150939
vn -0.3150939 0.5831288 0.7487835
vn -0.5773503 0.5773503 0.5773504
vn -0.7487835 0.3150938 0.5831289
vn 0.1947387 0.2680349 0.9435222
vn 0.6284283 0 0.7778675
vn 0.356822 0 0.9341724
vn 0.1947387 -0.2680349 0.9435222
vn 0.9435222 -0.1947387 0.2680349
vn 0.9435222 -0.1947387 -0.2680349
vn 0.9341724 -0.3568221 0
vn 0.7778675 -0.6284284 0
vn 0.6284283 0 -0.7778675
vn 0.1947387 0.2680349 -0.9435222
vn 0.356822 0 -0.9341724
vn 0.1947387 -0.2680349 -0.9435222
vn -0.3150939 0.5831288 -0.7487835
vn -0.5831288 0.7487835 -0.3150939
vn -0.5773503 0.5773503 -0.5773504
vn -0.7487835 0.3150938 -0.5831289
vn -0.5831288 -0.7487835 0.3150938
vn -0.7487835 -0.3150938 0.5831288
vn -0.5773503 -0.5773503 0.5773503
vn -0.3150938 -0.5831288 0.7487835
vn -0.2680349 -0.9435222 0.1947387
vn 0 -0.7778675 0.6284284
vn 0 -0.9341724 0.3568221
vn 0.2680349 -0.9435222 0.1947387
vn -0.2680349 -0.9435222 -0.1947387
vn 0.2680349 -0.9435222 -0.1947387
vn 0 -0.9341724 -0.3568221
vn 0 -0.7778675 -0.6284284
vn -0.5831288 -0.7487835 -0.3150938
vn -0.3150938 -0.5831288 -0.7487835
vn -0.5773503 -0.5773503 -0.5773503
vn -0.7487835 -0.3150938 -0.5831288
vn -0.7778675 -0.6284284 0
vn -0.9435222 -0.1947387 -0.2680349
vn -0.9341724 -0.3568221 0
vn -0.9435222 -0.1947387 0.2680349
vn -0.1947387 -0.2680349 0.9435222
vn -0.6284283 0 0.7778675
vn -0.356822 0 0.9341724
vn -0.1947387 0.2680349 0.9435222
vn 0.5831288 -0.7487835 0.3150938
vn 0.3150938 -0.5831288 0.7487835
vn 0.5773503 -0.5773503 0.5773503
vn 0.7487835 -0.3150938 0.5831288
vn 0.3150938 -0.5831288 -0.7487835
vn 0.5831288 -0.7487835 -0.3150938
vn 0.5773503 -0.5773503 -0.5773503
vn 0.7487835 -0.3150938 -0.5831288
vn -0.6284283 0 -0.7778675
vn -0.1947387 -0.2680349 -0.9435222
vn -0.356822 0 -0.9341724
vn -0.1947387 0.2680349 -0.9435222
vn -0.9435222 0.1947386 0.2680349
vn -0.9435222 0.1947386 -0.2680349
vn -0.9341724 0.356822 0
vn -0.7778675 0.6284283 0

g OmemeEye
usemtl OmemeEye
f 3/3/1 2/2/1 1/1/1
f 5/6/2 4/5/2 2/4/2
f 3/9/3 5/8/3 2/7/3
f 6/10/4 5/8/4 3/9/4
f 7/11/5 3/3/5 1/1/5
f 8/14/6 6/13/6 3/12/6
f 7/11/7 8/15/7 3/3/7
f 9/16/8 8/15/8 7/11/8
f 10/17/9 7/11/9 1/1/9
f 11/18/10 9/16/10 7/11/10
f 10/17/11 11/18/11 7/11/11
f 12/19/12 11/18/12 10/17/12
f 13/20/13 10/17/13 1/1/13
f 14/22/14 12/10/14 10/21/14
f 13/23/15 14/22/15 10/21/15
f 15/26/16 14/25/16 13/24/16
f 2/4/17 13/24/17 1/27/17
f 16/28/18 15/26/18 13/24/18
f 2/4/19 16/28/19 13/24/19
f 4/5/20 16/28/20 2/4/20
f 17/29/21 8/15/21 9/16/21
f 18/22/22 6/10/22 8/21/22
f 17/23/23 18/22/23 8/21/23
f 19/26/24 18/25/24 17/24/24
f 20/28/25 5/8/25 6/10/25
f 21/31/26 4/30/26 5/8/26
f 20/28/27 21/31/27 5/8/27
f 22/32/28 21/31/28 20/28/28
f 23/3/29 16/28/29 4/5/29
f 24/15/30 15/26/30 16/28/30
f 23/3/31 24/15/31 16/28/31
f 25/33/32 24/15/32 23/3/32
f 26/35/33 14/22/33 15/34/33
f 27/28/34 12/10/34 14/22/34
f 26/35/35 27/28/35 14/22/35
f 28/32/36 27/28/36 26/35/36
f 29/8/37 11/9/37 12/10/37
f 30/36/38 9/16/38 11/18/38
f 29/8/39 30/7/39 11/9/39
f 31/5/40 30/4/40 29/6/40
f 34/3/41 33/2/41 32/1/41
f 35/37/42 19/26/42 33/15/42
f 34/39/43 35/35/43 33/38/43
f 22/32/44 35/35/44 34/39/44
f 36/11/45 34/3/45 32/1/45
f 37/15/46 22/40/46 34/3/46
f 36/11/47 37/15/47 34/3/47
f 25/16/48 37/15/48 36/11/48
f 38/17/49 36/11/49 32/1/49
f 39/18/50 25/16/50 36/11/50
f 38/17/51 39/18/51 36/11/51
f 28/19/52 39/18/52 38/17/52
f 40/20/53 38/17/53 32/1/53
f 41/31/54 28/32/54 38/41/54
f 40/42/55 41/31/55 38/41/55
f 31/5/56 41/43/56 40/3/56
f 33/15/57 40/3/57 32/33/57
f 42/28/58 31/5/58 40/3/58
f 33/15/59 42/28/59 40/3/59
f 19/26/60 42/28/60 33/15/60
f 20/28/61 35/35/61 22/32/61
f 18/22/62 19/34/62 35/35/62
f 20/28/63 18/22/63 35/35/63
f 6/10/64 18/22/64 20/28/64
f 23/29/65 37/15/65 25/16/65
f 21/31/66 22/32/66 37/41/66
f 23/42/67 21/31/67 37/41/67
f 4/5/68 21/43/68 23/3/68
f 26/35/69 39/39/69 28/32/69
f 24/36/70 25/16/70 39/18/70
f 26/35/71 24/38/71 39/39/71
f 15/26/72 24/15/72 26/37/72
f 29/8/73 41/31/73 31/30/73
f 27/28/74 28/32/74 41/31/74
f 29/8/75 27/28/75 41/31/75
f 12/10/76 27/28/76 29/8/76
f 17/24/77 42/28/77 19/26/77
f 30/4/78 31/5/78 42/28/78
f 17/24/79 30/4/79 42/28/79
f 9/27/80 30/4/80 17/24/80

