# ProBuilder 4.0.5
# https://unity3d.com/unity/features/worldbuilding/probuilder
# 2020/03/11 11:36:48

mtllib ./R_Wall_slidingdoor_5.6mx3m.mtl
o R_Wall_slidingdoor_5.6mx3m

g R_Wall_slidingdoor_5.6mx3m
v 0 0 0.1999998
v 0 0 5.8
v 9.918213E-05 0 2.020533
v 9.918213E-05 0 3.979466
v 0 3 0.1999998
v 9.918213E-05 3 2.020533
v 0 3 5.8
v 9.918213E-05 3 3.979466
v 0.0001983643 2 2.020533
v 0.0001983643 2 3.979466

vt 0 0.1999998
vt 0 5.8
vt 9.918213E-05 2.020533
vt 9.918213E-05 3.979466
vt -0.1999998 3
vt -0.1999998 0
vt -2.020533 3
vt -2.020533 0
vt -5.8 0
vt -5.8 3
vt -3.979466 0
vt -3.979466 3
vt -9.918213E-05 3
vt -9.918213E-05 0
vt -0.0001983643 2
vt -3.979466 2
vt -2.020533 2

vn 0 -1 0
vn 1 0 -5.447971E-05
vn 0 1 0
vn 0 0 -1
vn 0 0 1

g R_Wall_slidingdoor_5.6mx3m
usemtl ProBuilderDefault
f 3/3/1 4/4/1 2/2/1 1/1/1
f 6/7/2 3/8/2 1/6/2 5/5/2
f 4/11/2 8/12/2 7/10/2 2/9/2
f 8/4/3 6/3/3 5/1/3 7/2/3
f 3/3/1 4/4/1 4/4/1 3/3/1
f 9/15/4 3/14/4 3/14/4 6/13/4
f 4/14/5 10/15/5 8/13/5 4/14/5
f 10/16/2 9/17/2 6/7/2 8/12/2

