# ProBuilder 4.0.5
# https://unity3d.com/unity/features/worldbuilding/probuilder
# 2020/03/10 11:41:29

mtllib ./R_Wall_slidingdoor_3mx3m.mtl
o R_Wall_slidingdoor_3mx3m

g R_Wall_slidingdoor_3mx3m
v 0 0 0
v 0 3 0
v -9.918213E-05 0 0.5
v -9.918213E-05 3 0.5
v 0 0 3
v -9.918213E-05 0 2.5
v 0 3 3
v -9.918213E-05 3 2.5
v -0.0001983643 2 0.5
v -0.0001983643 0 2.488619
v -0.0001983643 2 2.5

vt 0 0
vt 0 3
vt 0.5 0
vt 0.5 3
vt -9.918213E-05 2.5
vt -9.918213E-05 0.5
vt 3 3
vt 3 0
vt 2.5 3
vt 2.5 0
vt 0.0001983643 2
vt -0.0001983643 2.488619
vt 0.5 2
vt 2.5 2

vn -1 0 -0.0001983643
vn 0 -1 0
vn 0 1 0
vn 0 0 -1
vn 0 0 1
vn -0.499981 -2.479459E-05 0.5043572
vn -0.999962 -4.958918E-05 0.008714266

g R_Wall_slidingdoor_3mx3m
usemtl ProBuilderDefault
f 3/3/1 4/4/1 2/2/1 1/1/1
f 6/5/2 3/6/2 1/1/2 5/2/2
f 4/6/3 8/5/3 7/2/3 2/1/3
f 8/9/1 6/10/1 5/8/1 7/7/1
f 3/1/4 9/11/4 4/2/4 3/1/4
f 10/12/2 3/6/2 3/6/2 6/5/2
f 9/13/1 11/14/1 8/9/1 4/4/1
f 11/11/6 10/1/7 6/1/6 8/2/5

