# ProBuilder 4.0.5
# https://unity3d.com/unity/features/worldbuilding/probuilder
# 2020/01/31 10:04:24

mtllib ./Classroomwindow_(3).mtl
o Classroomwindow (3)

g Classroomwindow (3)
v -19.97576 0.001799226 -54.98743
v -20.97576 0.001799226 -54.98743
v -19.97576 0.587546 -54.98743
v -20.97576 0.587546 -54.98743
v -20.97576 0.001799226 -58.98743
v -20.97576 0.587546 -58.98743
v -19.97576 0.001799226 -58.98743
v -19.97576 0.587546 -58.98743
v -19.97576 2.410191 -54.98743
v -20.06624 2.410191 -54.98743
v -19.97576 2.581031 -54.98743
v -20.06624 2.581031 -54.98743
v -20.06624 2.410191 -58.98743
v -20.06624 2.581031 -58.98743
v -19.97576 2.410191 -58.98743
v -19.97576 2.581031 -58.98743
v -19.97566 0.5763272 -58.74833
v -20.06634 0.5763272 -58.74833
v -19.97566 2.573479 -58.74833
v -20.06634 2.573479 -58.74833
v -20.06634 0.5763272 -58.98724
v -20.06634 2.573479 -58.98724
v -20.06624 0.5602182 -58.98724
v -19.97576 0.5602182 -58.98724
v -20.06624 2.55727 -58.98724
v -19.97576 2.55727 -58.98724
v -19.97566 0.5763272 -58.98724
v -19.97566 2.573479 -58.98724
v -19.97576 0.5602182 -58.74843
v -20.06624 0.5602182 -58.74843
v -19.97576 0.5733885 -54.98143
v -20.06624 0.5733885 -54.98143
v -19.97576 2.57044 -54.98143
v -20.06624 2.57044 -54.98143
v -20.06624 0.5733885 -55.22024
v -20.06624 2.57044 -55.22024
v -19.97576 0.5733885 -55.22024
v -19.97576 2.57044 -55.22024
v -19.97576 1.207191 -54.98743
v -20.06624 1.207191 -54.98743
v -19.97576 1.378031 -54.98743
v -20.06624 1.378031 -54.98743
v -20.06624 1.207191 -58.98743
v -20.06624 1.378031 -58.98743
v -19.97576 1.207191 -58.98743
v -19.97576 1.378031 -58.98743
v -19.97576 0.5861205 -56.91743
v -20.06624 0.5861205 -56.91743
v -19.97576 2.583172 -56.91743
v -20.06624 2.583172 -56.91743
v -20.06624 0.5861205 -57.15624
v -20.06624 2.583172 -57.15624
v -19.97576 0.5861205 -57.15624
v -19.97576 2.583172 -57.15624

vt 0 0
vt -1 0
vt 0 0.5857468
vt -1 0.5857468
vt 3 0
vt 3 0.5857468
vt 1 0
vt 1 0.5857468
vt -3 0
vt -3 0.5857468
vt 0 3
vt 1 3
vt 0 -1
vt 1 -1
vt -1 -1
vt -1 3
vt 0 -0.3726085
vt -0.0904808 -0.3726085
vt 0 -0.2017678
vt -0.0904808 -0.2017678
vt 3 -0.3726085
vt -1 -0.3726085
vt 3 -0.2017678
vt -1 -0.2017678
vt 0.0904808 -0.3726085
vt 0.0904808 -0.2017678
vt 1 -0.3726085
vt -3 -0.3726085
vt 1 -0.2017678
vt -3 -0.2017678
vt 0.0904808 3
vt 0.0904808 -1
vt -0.0904808 -1
vt -0.0904808 3
vt 9.918213E-05 -1.036272
vt -0.09057999 -1.036272
vt 9.918213E-05 0.9608793
vt -0.09057999 0.9608793
vt 3.000099 -1.036272
vt 2.761192 -1.036272
vt 3.000099 0.9608793
vt 2.761192 0.9608793
vt 0.0904808 -1.052381
vt 0 -1.052381
vt 0.0904808 0.9446702
vt 0 0.9446702
vt -2.761192 -1.036272
vt -3.000099 -1.036272
vt -2.761192 0.9608793
vt -3.000099 0.9608793
vt 0.09057999 3.000099
vt -9.918213E-05 2.761192
vt 0.09057999 2.761192
vt -0.0904808 2.761192
vt 0 -1.033411
vt -0.0904808 -1.033411
vt 0 0.9636405
vt -0.0904808 0.9636405
vt 3 -1.033411
vt 2.761192 -1.033411
vt 3 0.9636405
vt 2.761192 0.9636405
vt 0.0904808 -1.033411
vt 0.0904808 0.9636405
vt -2.761192 -1.033411
vt -3 -1.033411
vt -2.761192 0.9636405
vt -3 0.9636405
vt 0.0904808 2.761192
vt 0 -1.026479
vt -0.0904808 -1.026479
vt 0 0.9705725
vt -0.0904808 0.9705725
vt 3 -1.026479
vt 2.761192 -1.026479
vt 3 0.9705725
vt 2.761192 0.9705725
vt 0.0904808 -1.026479
vt 0.0904808 0.9705725
vt -2.761192 -1.026479
vt -3 -1.026479
vt -2.761192 0.9705725
vt -3 0.9705725
vt -2.761192 -1.052361
vt -3 -1.052361
vt -1.831001 0.9446702
vt -1.831001 -1.052381
vt -1.8311 0.9608792
vt -1.8311 -1.036272
vt 1.921482 -1.052381
vt 1.921482 0.9446702
vt 1.921581 -1.036272
vt 1.921581 0.9608792
vt 0 -1.045164
vt -0.0904808 -1.045164
vt 9.918213E-05 -1.029055
vt -0.09057999 -1.029055
vt 3 -1.051804
vt 2.761192 -1.051804
vt 3.000099 -1.035695
vt 2.761192 -1.035695
vt 0.0904808 2.775671
vt 0 2.775671
vt 0.09057999 2.791881
vt -9.918213E-05 2.791881

vn 0 0 1
vn -1 0 0
vn 0 0 -1
vn 1 0 0
vn 0 1 0
vn 0 -1 0
vn 0.999981 -0.006156826 0
vn 0 -0.006156826 0.999981
vn -0.999981 -0.006156826 0

g Classroomwindow (3)
usemtl ProBuilderDefault
f 3/3/1 4/4/1 2/2/1 1/1/1
f 4/6/2 6/4/2 5/2/2 2/5/2
f 6/8/3 8/3/3 7/1/3 5/7/3
f 8/8/4 3/10/4 1/9/4 7/7/4
f 8/13/5 6/14/5 4/12/5 3/11/5
f 1/11/6 2/16/6 5/15/6 7/13/6
f 11/19/1 12/20/1 10/18/1 9/17/1
f 12/23/2 14/24/2 13/22/2 10/21/2
f 14/26/3 16/19/3 15/17/3 13/25/3
f 16/29/4 11/30/4 9/28/4 15/27/4
f 16/13/5 14/32/5 12/31/5 11/11/5
f 9/11/6 10/34/6 13/33/6 15/13/6
f 19/37/1 20/38/1 18/36/1 17/35/1
f 20/41/2 22/42/2 21/40/2 18/39/2
f 25/45/3 26/46/3 24/44/3 23/43/3
f 28/49/4 19/50/4 17/48/4 27/47/4
f 28/52/5 22/53/5 20/51/5 19/11/5
f 29/11/6 30/34/6 23/54/6 24/52/6
f 33/57/1 34/58/1 32/56/1 31/55/1
f 34/61/2 36/62/2 35/60/2 32/59/2
f 36/64/3 38/57/3 37/55/3 35/63/3
f 38/67/4 33/68/4 31/66/4 37/65/4
f 38/52/5 36/69/5 34/31/5 33/11/5
f 31/11/6 32/34/6 35/54/6 37/52/6
f 41/19/1 42/20/1 40/18/1 39/17/1
f 42/23/2 44/24/2 43/22/2 40/21/2
f 44/26/3 46/19/3 45/17/3 43/25/3
f 46/29/4 41/30/4 39/28/4 45/27/4
f 46/13/5 44/32/5 42/31/5 41/11/5
f 39/11/6 40/34/6 43/33/6 45/13/6
f 49/72/1 50/73/1 48/71/1 47/70/1
f 50/76/2 52/77/2 51/75/2 48/74/2
f 52/79/3 54/72/3 53/70/3 51/78/3
f 54/82/4 49/83/4 47/81/4 53/80/4
f 54/52/5 52/69/5 50/31/5 49/11/5
f 47/11/6 48/34/6 51/54/6 53/52/6
f 27/47/7 17/48/7 29/85/7 24/84/7
f 28/88/3 27/89/3 24/87/3 26/86/3
f 21/92/3 22/93/3 25/91/3 23/90/3
f 17/96/8 18/97/8 30/95/8 29/94/8
f 18/100/9 21/101/9 23/99/9 30/98/9
f 22/104/3 28/105/3 26/103/3 25/102/3

