# ProBuilder 4.0.5
# https://unity3d.com/unity/features/worldbuilding/probuilder
# 2020/02/14 17:16:33

mtllib ./Classroomwindow_s.mtl
o Classroomwindow_s

g Classroomwindow_s
v 0.5 -1.498501 1.997
v -0.5 -1.498501 1.997
v 0.5 -0.4985008 1.997
v -0.5 -0.4985008 1.997
v -0.5 -1.498501 0
v -0.5 -0.4985008 0
v 0.5 -1.498501 0
v 0.5 -0.4985008 0
v 0.5 1.282499 1.997
v 0.4095192 1.282499 1.997
v 0.5 1.45334 1.997
v 0.4095192 1.45334 1.997
v 0.4095192 1.282499 0
v 0.4095192 1.45334 0
v 0.5 1.282499 0
v 0.5 1.45334 0
v 0.5 -0.5043507 2.003
v 0.4095192 -0.5043507 2.003
v 0.5 1.492701 2.003
v 0.4095192 1.492701 2.003
v 0.4095192 -0.5043507 1.764193
v 0.4095192 1.492701 1.764193
v 0.5 -0.5043507 1.764193
v 0.5 1.492701 1.764193
v 0.5 0.07949913 1.997
v 0.4095192 0.07949913 1.997
v 0.5 0.2503399 1.997
v 0.4095192 0.2503399 1.997
v 0.4095192 0.07949913 0
v 0.4095192 0.2503399 0
v 0.5 0.07949913 0
v 0.5 0.2503399 0
v 0.5 -0.4985507 0.2402477
v 0.4095192 -0.4985507 0.2402477
v 0.5 1.498501 0.2402477
v 0.4095192 1.498501 0.2402477
v 0.4095192 -0.4985507 0.001440048
v 0.4095192 1.498501 0.001440048
v 0.5 -0.4985507 0.001440048
v 0.5 1.498501 0.001440048

vt 0.5 0.1122992
vt -0.5 0.1122992
vt 0.5 1.112299
vt -0.5 1.112299
vt 0.06699944 0.1122992
vt -1.93 0.1122992
vt 0.06699944 1.112299
vt -1.93 1.112299
vt 1.93 0.1122992
vt -0.06699944 0.1122992
vt 1.93 1.112299
vt -0.06699944 1.112299
vt -0.5 0.06699944
vt 0.5 0.06699944
vt -0.5 -1.93
vt 0.5 -1.93
vt 0.4095192 0.1122992
vt 0.5 0.2831399
vt 0.4095192 0.2831399
vt 0.06699944 0.2831399
vt -1.93 0.2831399
vt -0.4095192 0.1122992
vt -0.4095192 0.2831399
vt -0.5 0.2831399
vt 1.93 0.2831399
vt -0.06699944 0.2831399
vt -0.4095192 0.06699944
vt -0.4095192 -1.93
vt 0.4095192 -1.93
vt 0.4095192 0.06699944
vt 0.5 -0.4985507
vt 0.4095192 -0.4985507
vt 0.5 1.498501
vt 0.4095192 1.498501
vt 0.06699944 -0.4985507
vt -0.1718082 -0.4985507
vt 0.06699944 1.498501
vt -0.1718082 1.498501
vt -0.4095192 -0.4985507
vt -0.5 -0.4985507
vt -0.4095192 1.498501
vt -0.5 1.498501
vt 0.1718082 -0.4985507
vt -0.06699944 -0.4985507
vt 0.1718082 1.498501
vt -0.06699944 1.498501
vt -0.5 -0.1718082
vt -0.4095192 -0.1718082
vt 0.5 -0.1718082
vt 0.4095192 -0.1718082
vt 0.2402477 -0.4985507
vt 0.001440048 -0.4985507
vt 0.2402477 1.498501
vt 0.001440048 1.498501
vt -0.001440048 -0.4985507
vt -0.2402477 -0.4985507
vt -0.001440048 1.498501
vt -0.2402477 1.498501
vt -0.5 0.2402477
vt -0.4095192 0.2402477
vt -0.5 0.001440048
vt -0.4095192 0.001440048
vt 0.5 0.001440048
vt 0.4095192 0.001440048
vt 0.5 0.2402477
vt 0.4095192 0.2402477

vn 0 0 1
vn -1 0 0
vn 0 0 -1
vn 1 0 0
vn 0 1 0
vn 0 -1 0

g Classroomwindow_s
usemtl ProBuilderDefault
f 3/3/1 4/4/1 2/2/1 1/1/1
f 4/7/2 6/8/2 5/6/2 2/5/2
f 6/3/3 8/4/3 7/2/3 5/1/3
f 8/11/4 3/12/4 1/10/4 7/9/4
f 8/15/5 6/16/5 4/14/5 3/13/5
f 1/14/6 2/13/6 5/15/6 7/16/6
f 11/18/1 12/19/1 10/17/1 9/1/1
f 12/20/2 14/21/2 13/6/2 10/5/2
f 14/23/3 16/24/3 15/2/3 13/22/3
f 16/25/4 11/26/4 9/10/4 15/9/4
f 16/15/5 14/28/5 12/27/5 11/13/5
f 9/14/6 10/30/6 13/29/6 15/16/6
f 19/33/1 20/34/1 18/32/1 17/31/1
f 20/37/2 22/38/2 21/36/2 18/35/2
f 22/41/3 24/42/3 23/40/3 21/39/3
f 24/45/4 19/46/4 17/44/4 23/43/4
f 24/47/5 22/48/5 20/27/5 19/13/5
f 17/14/6 18/30/6 21/50/6 23/49/6
f 27/18/1 28/19/1 26/17/1 25/1/1
f 28/20/2 30/21/2 29/6/2 26/5/2
f 30/23/3 32/24/3 31/2/3 29/22/3
f 32/25/4 27/26/4 25/10/4 31/9/4
f 32/15/5 30/28/5 28/27/5 27/13/5
f 25/14/6 26/30/6 29/29/6 31/16/6
f 35/33/1 36/34/1 34/32/1 33/31/1
f 36/53/2 38/54/2 37/52/2 34/51/2
f 38/41/3 40/42/3 39/40/3 37/39/3
f 40/57/4 35/58/4 33/56/4 39/55/4
f 40/61/5 38/62/5 36/60/5 35/59/5
f 33/65/6 34/66/6 37/64/6 39/63/6

