# ProBuilder 4.0.5
# https://unity3d.com/unity/features/worldbuilding/probuilder
# 2020/01/22 18:39:43

mtllib ./Level1_floor.mtl
o Level1_floor

g Level1_floor_01
v 44.75 2.7405 14.90005
v 42.539 2.7405 14.90005
v 44.75 5.2595 14.90005
v 42.539 5.2595 14.90005
v 42.539 2.7405 7.599951
v 44.65 2.7405 7.599951
v 42.539 5.2595 7.599951
v 44.65 5.2595 7.599951
v 44.65 2.7405 12.59995
v 44.65 5.2595 12.59995
v 44.75 2.8405 7.49995
v 42.439 2.8405 7.49995
v 44.75 2.8405 12.49995
v 42.439 2.8405 12.49995
v 44.75 2.8405 15.00005
v 42.439 2.8405 15.00005
v 50.1501 5.2595 12.59995
v 50.1501 2.7405 12.59995
v 50.1501 5.2595 15.00005
v 50.1501 2.7405 15.00005
v 42.539 2.7405 12.49995
v 42.539 5.2595 12.49995
v 47.2501 5.2595 12.59995
v 47.2501 2.7405 12.59995
v 47.2501 2.8405 12.49995
v 47.2501 2.8405 15.00005
v 47.3501 2.7405 14.90005
v 47.3501 5.2595 14.90005
v 50.2501 2.8405 12.49995
v 50.2501 2.8405 15.00005
v 47.2501 2.7405 19.90005
v 47.2501 5.2595 19.90005
v 50.1501 2.7405 19.90005
v 50.1501 5.2595 19.90005
v 47.3501 2.7405 17.60005
v 47.3501 5.2595 17.60005
v 50.2501 2.8405 17.50005
v 47.2501 2.8405 17.50005
v 42.3499 2.7405 17.60005
v 42.3499 5.2595 17.60005
v 42.3499 2.7405 20.00005
v 42.3499 5.2595 20.00005
v 50.2501 2.8405 20.00005
v 47.2501 2.8405 20.00005
v 44.7499 2.7405 17.60005
v 44.7499 5.2595 17.60005
v 44.7499 2.8405 20.00005
v 44.7499 2.8405 17.50005
v 44.6499 5.2595 19.90005
v 44.6499 2.7405 19.90005
v 42.2499 2.8405 20.00005
v 42.2499 2.8405 17.50005
v 44.7499 5.2595 29.90005
v 44.7499 2.7405 29.90005
v 42.3499 5.2595 29.90005
v 42.3499 2.7405 29.90005
v 44.6499 5.2595 23.10005
v 44.6499 2.7405 23.10005
v 44.7499 2.8405 23.00005
v 42.2499 2.8405 23.00005
v 42.3499 2.7405 23.00005
v 42.3499 5.2595 23.00005
v 52.1501 5.2595 23.10005
v 52.1501 2.7405 23.10005
v 52.1501 5.2595 25.00005
v 52.1501 2.7405 25.00005
v 44.7499 2.8405 25.00005
v 42.2499 2.8405 25.00005
v 42.3499 2.7405 25.00005
v 42.3499 5.2595 25.00005
v 44.6499 5.2595 24.90005
v 44.6499 2.7405 24.90005
v 44.6499 5.2595 27.60005
v 44.6499 2.7405 27.60005
v 44.7499 2.8405 27.50005
v 42.2499 2.8405 27.50005
v 42.3499 2.7405 27.50005
v 42.3499 5.2595 27.50005
v 52.1501 5.2595 27.60005
v 52.1501 2.7405 27.60005
v 52.1501 5.2595 30.10005
v 52.1501 2.7405 30.10005
v 44.7499 2.8405 30.00005
v 42.2499 2.8405 30.00005
v 48.7501 5.2595 23.10005
v 48.7501 2.7405 23.10005
v 48.7501 2.8405 23.00005
v 48.7501 2.8405 25.00005
v 52.2501 2.8405 23.00005
v 52.2501 2.8405 25.00005
v 48.8501 2.7405 27.40005
v 48.8501 5.2595 27.40005
v 52.1501 2.7405 27.40005
v 52.1501 5.2595 27.40005
v 48.8501 2.7405 24.90005
v 48.8501 5.2595 24.90005
v 52.2501 2.8405 27.50005
v 48.7501 2.8405 27.50005
v 48.7501 2.8405 30.00005
v 48.8501 2.7405 29.90005
v 48.8501 5.2595 29.90005
v 48.7501 5.2595 27.60005
v 48.7501 2.7405 27.60005
v 52.2501 2.8405 30.00005
v 48.8501 2.7405 32.40005
v 48.8501 5.2595 32.40005
v 52.3501 2.7405 32.40005
v 52.3501 5.2595 32.40005
v 52.2501 2.8405 32.50005
v 48.7501 2.8405 32.50005
v 59.6501 5.2595 30.10005
v 59.6501 2.7405 30.10005
v 59.6501 5.2595 32.40005
v 59.6501 2.7405 32.40005
v 55.2501 5.2595 30.10005
v 55.2501 2.7405 30.10005
v 55.2501 2.8405 30.00005
v 55.2501 2.8405 32.50005
v 52.3501 2.7405 42.40005
v 52.3501 5.2595 42.40005
v 55.1501 2.7405 42.40005
v 55.1501 5.2595 42.40005
v 59.7501 2.8405 30.00005
v 59.7501 2.8405 32.50005
v 55.1501 2.7405 32.40005
v 55.1501 5.2595 32.40005
v 52.3501 2.7405 35.50005
v 52.3501 5.2595 35.50005
v 55.2501 2.8405 35.50005
v 52.2501 2.8405 35.50005
v 55.1501 5.2595 35.50005
v 55.1501 2.7405 35.50005
v 55.2501 2.8405 42.50005
v 52.2501 2.8405 42.50005
v 44.75 5.2595 7.49995
v 44.75 5.2595 12.49995
v 47.2501 5.2595 12.49995
v 44.75 2.7405 12.49995
v 44.75 2.7405 7.49995
v 42.439 2.7405 7.49995
v 50.2501 5.2595 12.49995
v 47.2501 2.7405 12.49995
v 50.2501 5.2595 15.00005
v 50.2501 2.7405 12.49995
v 50.2501 5.2595 17.50005
v 50.1501 5.2595 17.50005
v 50.2501 2.7405 15.00005
v 50.2501 5.2595 20.00005
v 50.2501 2.7405 17.50005
v 50.1501 2.7405 17.50005
v 47.2501 5.2595 20.00005
v 50.2501 2.7405 20.00005
v 44.7499 5.2595 20.00005
v 47.2501 2.7405 20.00005
v 44.7499 5.2595 23.00005
v 44.7499 2.7405 20.00005
v 48.7501 5.2595 23.00005
v 44.7499 2.7405 23.00005
v 52.2501 5.2595 23.00005
v 48.7501 2.7405 23.00005
v 52.2501 5.2595 25.00005
v 52.2501 2.7405 23.00005
v 52.2501 5.2595 27.50005
v 52.2501 2.7405 25.00005
v 48.7501 5.179684 27.50005
v 52.2501 2.7405 27.50005
v 48.7501 5.179684 25.00005
v 48.7501 2.7405 27.50005
v 44.7499 5.2595 25.00005
v 48.7501 2.7405 25.00005
v 44.7499 5.2595 27.50005
v 44.7499 2.7405 25.00005
v 48.7501 5.2595 27.50005
v 44.7499 2.7405 27.50005
v 52.2501 5.2595 30.00005
v 55.2501 5.2595 30.00005
v 52.2501 2.7405 30.00005
v 59.7501 5.2595 30.00005
v 55.2501 2.7405 30.00005
v 59.7501 5.2595 32.50005
v 59.7501 2.7405 30.00005
v 55.2501 5.2595 32.50005
v 59.7501 2.7405 32.50005
v 55.2501 5.2595 35.50005
v 55.2501 2.7405 32.50005
v 55.2501 5.2595 42.50005
v 55.2501 2.7405 35.50005
v 52.2501 5.2595 42.50005
v 55.2501 2.7405 42.50005
v 52.2501 5.2595 35.50005
v 52.2501 2.7405 42.50005
v 52.2501 5.2595 32.50005
v 52.2501 2.7405 35.50005
v 48.7501 5.2595 32.50005
v 52.2501 2.7405 32.50005
v 48.7501 5.2595 30.00005
v 48.7501 2.7405 32.50005
v 44.7499 5.2595 30.00005
v 48.7501 2.7405 30.00005
v 42.2499 5.2595 30.00005
v 44.7499 2.7405 30.00005
v 42.2499 5.2595 27.50005
v 42.2499 2.7405 30.00005
v 42.2499 5.2595 25.00005
v 42.2499 2.7405 27.50005
v 42.2499 5.2595 23.00005
v 42.2499 2.7405 25.00005
v 42.2499 5.2595 20.00005
v 42.2499 2.7405 23.00005
v 42.2499 5.2595 17.50005
v 42.2499 2.7405 20.00005
v 44.7499 5.2595 17.50005
v 42.2499 2.7405 17.50005
v 47.2501 5.2595 17.50005
v 44.7499 2.7405 17.50005
v 47.2501 5.2595 15.00005
v 47.2501 2.7405 17.50005
v 44.75 5.2595 15.00005
v 47.2501 2.7405 15.00005
v 42.439 5.2595 7.49995
v 44.75 2.7405 15.00005
v 42.439 5.2595 15.00005
v 42.439 5.2595 12.49995
v 42.439 2.7405 15.00005
v 42.439 2.7405 12.49995
v 59.57528 5.2595 35.60005
v 59.57528 2.7405 35.60005
v 59.57519 5.2595 40.92823
v 59.57519 2.7405 40.92823
v 55.1501 2.7405 35.60005
v 55.1501 5.2595 35.60005
v 55.15 5.2595 41.02823
v 59.67529 5.2595 35.50005
v 59.67519 5.2595 41.02823
v 55.15 5.2595 40.92823
v 55.15 2.7405 40.92823
v 55.15 2.7405 41.02823
v 59.67519 2.7405 41.02823
v 59.67529 2.7405 35.50005
v 48.75004 2.876567 27.50005
v 48.75004 2.876567 25.00005

vt 6.25 -1.2595
vt 8.461 -1.2595
vt 6.25 1.2595
vt 8.461 1.2595
vt -8.461 -1.2595
vt -6.35 -1.2595
vt -8.461 1.2595
vt -6.35 1.2595
vt -17.40005 -1.2595
vt -12.40005 -1.2595
vt -17.40005 1.2595
vt -12.40005 1.2595
vt 6.25 -17.50005
vt 8.561001 -17.50005
vt 6.25 -12.50005
vt 8.561001 -12.50005
vt 6.25 -9.999949
vt 8.561001 -9.999949
vt -9.999949 1.2595
vt -9.999949 -1.2595
vt 12.50005 -1.2595
vt 12.50005 1.2595
vt 10.09995 -1.2595
vt 10.09995 1.2595
vt -3.749901 1.2595
vt -3.749901 -1.2595
vt 3.749901 -12.50005
vt 3.749901 -9.999949
vt 3.649901 -1.2595
vt 3.649901 1.2595
vt -0.8499008 1.2595
vt -0.8499008 -1.2595
vt 0.7499008 -12.50005
vt 0.7499008 -9.999949
vt 3.749901 -1.2595
vt 3.749901 1.2595
vt 0.8499008 -1.2595
vt 0.8499008 1.2595
vt 7.399951 -1.2595
vt 7.399951 1.2595
vt 0.7499008 -7.49995
vt 3.749901 -7.49995
vt 4.99995 -1.2595
vt 4.99995 1.2595
vt 0.7499008 -4.99995
vt 3.749901 -4.99995
vt -3.649901 -1.2595
vt -3.649901 1.2595
vt -6.250099 -1.2595
vt -6.250099 1.2595
vt 6.250099 -4.99995
vt 6.250099 -7.49995
vt 6.350099 1.2595
vt 6.350099 -1.2595
vt -8.650099 -1.2595
vt -8.650099 1.2595
vt 8.750099 -4.99995
vt 8.750099 -7.49995
vt 8.650099 1.2595
vt 8.650099 -1.2595
vt -5.09995 1.2595
vt -5.09995 -1.2595
vt -1.89995 1.2595
vt -1.89995 -1.2595
vt 6.250099 -1.99995
vt 8.750099 -1.99995
vt 1.99995 -1.2595
vt 1.99995 1.2595
vt 4.959106E-05 1.2595
vt 4.959106E-05 -1.2595
vt 6.250099 4.959106E-05
vt 8.750099 4.959106E-05
vt -0.09995041 1.2595
vt -0.09995041 -1.2595
vt 2.600049 1.2595
vt 2.600049 -1.2595
vt 6.250099 2.50005
vt 8.750099 2.50005
vt -2.50005 -1.2595
vt -2.50005 1.2595
vt 5.100049 1.2595
vt 5.100049 -1.2595
vt 6.250099 5.00005
vt 8.750099 5.00005
vt -4.90005 -1.2595
vt -4.90005 1.2595
vt -6.350099 1.2595
vt -6.350099 -1.2595
vt -2.249901 1.2595
vt -2.249901 -1.2595
vt 2.249901 -1.99995
vt 2.249901 4.959106E-05
vt 1.150099 1.2595
vt 1.150099 -1.2595
vt -1.250099 -1.99995
vt -1.250099 4.959106E-05
vt 2.149901 -1.2595
vt 2.149901 1.2595
vt -1.150099 -1.2595
vt -1.150099 1.2595
vt 0.09995041 -1.2595
vt 0.09995041 1.2595
vt -2.40005 -1.2595
vt -2.40005 1.2595
vt -1.250099 2.50005
vt 2.249901 2.50005
vt 2.40005 1.2595
vt 2.40005 -1.2595
vt 2.249901 5.00005
vt -1.250099 5.00005
vt -1.350099 -1.2595
vt -1.350099 1.2595
vt -7.40005 -1.2595
vt -7.40005 1.2595
vt -1.250099 7.50005
vt 2.249901 7.50005
vt 7.40005 1.2595
vt 7.40005 -1.2595
vt 4.250099 1.2595
vt 4.250099 -1.2595
vt -4.250099 5.00005
vt -4.250099 7.50005
vt -4.150099 -1.2595
vt -4.150099 1.2595
vt -8.750099 5.00005
vt -8.750099 7.50005
vt -10.50005 -1.2595
vt -10.50005 1.2595
vt -4.250099 10.50005
vt -1.250099 10.50005
vt 10.50005 1.2595
vt 10.50005 -1.2595
vt -4.250099 17.50005
vt -1.250099 17.50005
vt 6.35 -17.40005
vt 6.35 -12.40005
vt 3.749901 -12.40005
vt -6.25 -12.50005
vt -6.25 -17.50005
vt -6.35 -12.40005
vt -6.35 -17.40005
vt -8.561001 -17.50005
vt -8.461 -17.40005
vt 0.8499008 -12.40005
vt -3.749901 -12.50005
vt -3.749901 -12.40005
vt 0.8499008 -9.999949
vt -0.7499008 -12.50005
vt -0.8499008 -12.40005
vt 0.8499008 -7.49995
vt -0.7499008 -9.999949
vt -0.8499008 -9.999949
vt 0.8499008 -5.09995
vt -0.7499008 -7.49995
vt -0.8499008 -7.49995
vt 3.749901 -5.09995
vt -0.7499008 -4.99995
vt -0.8499008 -5.09995
vt 6.350099 -5.09995
vt -3.749901 -4.99995
vt -3.749901 -5.09995
vt 6.350099 -1.89995
vt -6.250099 -4.99995
vt -6.350099 -5.09995
vt 2.249901 -1.89995
vt -6.250099 -1.99995
vt -6.350099 -1.89995
vt -1.150099 -1.89995
vt -2.249901 -1.99995
vt -2.249901 -1.89995
vt -1.150099 4.959106E-05
vt 1.250099 -1.99995
vt 1.150099 -1.89995
vt -1.150099 2.40005
vt 1.250099 4.959106E-05
vt 1.150099 4.959106E-05
vt -1.278489 2.47135
vt 2.222421 2.47135
vt -1.178515 2.371324
vt 2.120627 2.369609
vt 1.250099 2.50005
vt 1.150099 2.40005
vt 1.022541 2.50005
vt 1.022541 4.959106E-05
vt 0.8945932 2.40005
vt 0.8945932 -0.09995041
vt -2.249901 2.50005
vt -2.149901 2.40005
vt 2.272987 -0.7182913
vt 6.273982 -0.7182913
vt 2.174599 -0.8474829
vt 6.373961 -0.7944326
vt -2.249901 4.959106E-05
vt -2.149901 -0.09995041
vt 6.350099 -0.09995041
vt 6.350099 2.600049
vt -6.250099 4.959106E-05
vt -6.350099 -0.09995041
vt 2.249901 2.600049
vt -6.250099 2.50005
vt -6.350099 2.600049
vt -1.150099 2.600049
vt -2.249901 2.600049
vt -1.150099 5.100049
vt 1.150099 2.600049
vt -4.250099 5.100049
vt 1.250099 5.00005
vt 1.150099 5.100049
vt -8.650099 5.100049
vt 4.250099 5.00005
vt 4.250099 5.100049
vt -8.650099 7.40005
vt 8.650099 5.100049
vt -4.150099 7.40005
vt 8.750099 7.50005
vt 8.650099 7.40005
vt -4.150099 10.50005
vt 4.250099 7.50005
vt 4.150099 7.40005
vt -4.150099 17.40005
vt 4.250099 10.50005
vt 4.150099 10.50005
vt -1.350099 17.40005
vt 4.250099 17.50005
vt 4.150099 17.40005
vt -1.350099 10.50005
vt 1.250099 17.50005
vt 1.350099 17.40005
vt -1.350099 7.40005
vt 1.250099 10.50005
vt 1.350099 10.50005
vt 2.149901 7.40005
vt 1.250099 7.50005
vt 1.350099 7.40005
vt 2.149901 4.90005
vt -2.249901 7.50005
vt -2.149901 7.40005
vt 6.250099 4.90005
vt -2.249901 5.00005
vt -2.149901 4.90005
vt 8.650099 4.90005
vt -6.250099 5.00005
vt -6.250099 4.90005
vt 8.650099 2.50005
vt -8.650099 4.90005
vt 8.650099 4.959106E-05
vt -8.750099 2.50005
vt -8.650099 2.50005
vt 8.650099 -1.99995
vt -8.750099 4.959106E-05
vt -8.650099 4.959106E-05
vt 8.650099 -4.99995
vt -8.750099 -1.99995
vt -8.650099 -1.99995
vt 8.650099 -7.399951
vt -8.750099 -4.99995
vt -8.650099 -4.99995
vt 6.250099 -7.399951
vt -8.750099 -7.49995
vt -8.650099 -7.399951
vt 3.649901 -7.399951
vt -6.250099 -7.49995
vt -6.250099 -7.399951
vt 3.649901 -10.09995
vt -3.749901 -7.49995
vt -3.649901 -7.399951
vt 6.25 -10.09995
vt -3.749901 -9.999949
vt -3.649901 -10.09995
vt 8.461 -17.40005
vt -6.25 -9.999949
vt -6.25 -10.09995
vt 8.461 -10.09995
vt 8.461 -12.50005
vt -8.561001 -9.999949
vt -8.461 -10.09995
vt -8.561001 -12.50005
vt -8.461 -12.50005
vt 4.99995 -1.1595
vt 1.99995 -1.1595
vt 6.250099 -1.1595
vt 3.749901 -1.1595
vt -7.49995 -1.2595
vt -7.49995 -1.1595
vt -9.999949 -1.1595
vt -3.749901 -1.1595
vt -6.250099 -1.1595
vt -4.99995 -1.2595
vt -4.99995 -1.1595
vt 8.750099 -1.2595
vt 8.750099 -1.1595
vt 2.249901 -1.2595
vt 2.249901 -1.1595
vt -1.99995 -1.2595
vt -1.99995 -1.1595
vt -4.959106E-05 -1.1595
vt -2.50005 -1.1595
vt -1.250099 -1.2595
vt -1.250099 -1.1595
vt -2.249901 -1.1595
vt 1.250099 -1.2595
vt 1.250099 -1.1595
vt 2.50005 -1.2595
vt 2.50005 -1.1595
vt -8.750099 -1.2595
vt -8.750099 -1.1595
vt 5.00005 -1.2595
vt 5.00005 -1.1595
vt -5.00005 -1.2595
vt -5.00005 -1.1595
vt -4.250099 -1.2595
vt -4.250099 -1.1595
vt 7.50005 -1.2595
vt 7.50005 -1.1595
vt -7.50005 -1.2595
vt -7.50005 -1.1595
vt -10.50005 -1.1595
vt 4.250099 -1.1595
vt -17.50005 -1.2595
vt -17.50005 -1.1595
vt 10.50005 -1.1595
vt 17.50005 -1.2595
vt 17.50005 -1.1595
vt -0.7499008 -1.2595
vt -0.7499008 -1.1595
vt 7.49995 -1.2595
vt 7.49995 -1.1595
vt 9.999949 -1.2595
vt 9.999949 -1.1595
vt 12.50005 -1.1595
vt 0.7499008 -1.2595
vt 0.7499008 -1.1595
vt 8.561001 -1.2595
vt 8.561001 -1.1595
vt -8.561001 -1.2595
vt -8.561001 -1.1595
vt -12.50005 -1.2595
vt -12.50005 -1.1595
vt 10.59989 1.2595
vt 10.59989 -1.2595
vt 15.92807 1.2595
vt 15.92807 -1.2595
vt 4.150099 -1.2595
vt 4.150099 1.2595
vt 8.575284 -1.2595
vt 8.575284 1.2595
vt 4.149998 16.02823
vt 8.675285 10.50005
vt 8.675186 16.02823
vt -4.149998 1.2595
vt -4.149998 -1.2595
vt -8.575188 1.2595
vt -8.575188 -1.2595
vt -4.149998 16.02823
vt -8.675186 16.02823
vt -8.675285 10.50005
vt 16.02823 1.2595
vt 16.02823 -1.2595
vt -8.575188 15.92823
vt -4.149998 15.92823
vt 4.149998 15.92823
vt 8.575188 15.92823
vt 8.575284 10.60005
vt -8.575284 10.60005
vt 10.60005 -1.2595
vt 10.60005 1.2595
vt 4.150099 10.60005
vt -4.150099 10.60005
vt 2.50005 1.179624
vt 4.959106E-05 1.179624
vt 2.50005 -1.123493
vt 4.959106E-05 -1.123493

vn 0 0 -1
vn 0 0 1
vn -1 0 0
vn 0 1 0
vn 1 0 0
vn 0 -1 0
vn -0.02279282 0.9994804 0.02279284
vn -0.01139641 0.8905243 0.3233063
vn 0 0.7815683 0.6238198
vn -0.6238198 0.7815682 0
vn 0.0154415 0.7738898 0.633132
vn 0.007720749 0.8869449 0.316566

g Level1_floor_01
usemtl ProBuilderDefault
f 1/1/1 2/2/1 4/4/1 3/3/1
f 5/5/2 6/6/2 8/8/2 7/7/2
f 6/9/3 9/10/3 10/12/3 8/11/3
f 11/13/4 12/14/4 14/16/4 13/15/4
f 13/15/4 14/16/4 16/18/4 15/17/4
f 17/12/3 18/10/3 20/20/3 19/19/3
f 21/21/5 22/22/5 4/24/5 2/23/5
f 10/8/2 9/6/2 24/26/2 23/25/2
f 13/15/4 15/17/4 26/28/4 25/27/4
f 1/1/1 3/3/1 28/30/1 27/29/1
f 23/25/2 24/26/2 18/32/2 17/31/2
f 25/27/4 26/28/4 30/34/4 29/33/4
f 31/35/1 32/36/1 34/38/1 33/37/1
f 27/23/5 28/24/5 36/40/5 35/39/5
f 30/34/4 26/28/4 38/42/4 37/41/4
f 39/39/5 40/40/5 42/44/5 41/43/5
f 37/41/4 38/42/4 44/46/4 43/45/4
f 35/47/2 36/48/2 46/50/2 45/49/2
f 44/46/4 38/42/4 48/52/4 47/51/4
f 32/36/1 31/35/1 50/54/1 49/53/1
f 45/49/2 46/50/2 40/56/2 39/55/2
f 47/51/4 48/52/4 52/58/4 51/57/4
f 53/3/1 54/1/1 56/60/1 55/59/1
f 49/61/3 50/62/3 58/64/3 57/63/3
f 47/51/4 51/57/4 60/66/4 59/65/4
f 41/43/5 42/44/5 62/68/5 61/67/5
f 63/63/3 64/64/3 66/70/3 65/69/3
f 59/65/4 60/66/4 68/72/4 67/71/4
f 61/67/5 62/68/5 70/69/5 69/70/5
f 71/73/3 72/74/3 74/76/3 73/75/3
f 67/71/4 68/72/4 76/78/4 75/77/4
f 69/70/5 70/69/5 78/80/5 77/79/5
f 79/75/3 80/76/3 82/82/3 81/81/3
f 75/77/4 76/78/4 84/84/4 83/83/4
f 77/79/5 78/80/5 55/86/5 56/85/5
f 57/87/2 58/88/2 86/90/2 85/89/2
f 59/65/4 67/71/4 88/92/4 87/91/4
f 85/89/2 86/90/2 64/94/2 63/93/2
f 87/91/4 88/92/4 90/96/4 89/95/4
f 91/97/1 92/98/1 94/100/1 93/99/1
f 95/101/5 96/102/5 92/104/5 91/103/5
f 90/96/4 88/92/4 98/106/4 97/105/4
f 65/69/3 66/70/3 93/108/3 94/107/3
f 75/77/4 83/83/4 99/109/4 98/106/4
f 54/1/1 53/3/1 101/98/1 100/97/1
f 102/89/2 103/90/2 80/94/2 79/93/2
f 98/106/4 99/109/4 104/110/4 97/105/4
f 105/97/1 106/98/1 108/112/1 107/111/1
f 100/85/5 101/86/5 106/114/5 105/113/5
f 104/110/4 99/109/4 110/116/4 109/115/4
f 111/81/3 112/82/3 114/118/3 113/117/3
f 81/93/2 82/94/2 116/120/2 115/119/2
f 104/110/4 109/115/4 118/122/4 117/121/4
f 119/111/1 120/112/1 122/124/1 121/123/1
f 115/119/2 116/120/2 112/60/2 111/59/2
f 117/121/4 118/122/4 124/126/4 123/125/4
f 125/123/1 126/124/1 113/56/1 114/55/1
f 107/113/5 108/114/5 128/128/5 127/127/5
f 118/122/4 109/115/4 130/130/4 129/129/4
f 126/117/3 125/118/3 132/132/3 131/131/3
f 127/127/5 128/128/5 120/11/5 119/9/5
f 129/129/4 130/130/4 134/134/4 133/133/4
f 8/135/4 10/136/4 136/15/4 135/13/4
f 10/136/4 23/137/4 137/27/4 136/15/4
f 9/140/6 6/141/6 139/139/6 138/138/6
f 6/141/6 5/143/6 140/142/6 139/139/6
f 23/137/4 17/144/4 141/33/4 137/27/4
f 24/146/6 9/140/6 138/138/6 142/145/6
f 17/144/4 19/147/4 143/34/4 141/33/4
f 18/149/6 24/146/6 142/145/6 144/148/6
f 19/147/4 146/150/4 145/41/4 143/34/4
f 20/152/6 18/149/6 144/148/6 147/151/6
f 146/150/4 34/153/4 148/45/4 145/41/4
f 150/155/6 20/152/6 147/151/6 149/154/6
f 34/153/4 32/156/4 151/46/4 148/45/4
f 33/158/6 150/155/6 149/154/6 152/157/6
f 32/156/4 49/159/4 153/51/4 151/46/4
f 31/161/6 33/158/6 152/157/6 154/160/6
f 49/159/4 57/162/4 155/65/4 153/51/4
f 50/164/6 31/161/6 154/160/6 156/163/6
f 57/162/4 85/165/4 157/91/4 155/65/4
f 58/167/6 50/164/6 156/163/6 158/166/6
f 85/165/4 63/168/4 159/95/4 157/91/4
f 86/170/6 58/167/6 158/166/6 160/169/6
f 63/168/4 65/171/4 161/96/4 159/95/4
f 64/173/6 86/170/6 160/169/6 162/172/6
f 65/171/4 94/174/4 163/105/4 161/96/4
f 66/176/6 64/173/6 162/172/6 164/175/6
f 94/179/8 92/180/9 165/178/8 163/177/7
f 93/182/6 66/176/6 164/175/6 166/181/6
f 92/185/10 96/186/10 167/184/10 165/183/10
f 91/188/6 93/182/6 166/181/6 168/187/6
f 96/191/12 71/192/4 169/190/12 167/189/11
f 95/194/6 91/188/6 168/187/6 170/193/6
f 71/195/4 73/196/4 171/77/4 169/71/4
f 72/198/6 95/194/6 170/193/6 172/197/6
f 73/196/4 102/199/4 173/106/4 171/77/4
f 74/201/6 72/198/6 172/197/6 174/200/6
f 102/199/4 79/202/4 163/105/4 173/106/4
f 103/203/6 74/201/6 174/200/6 168/187/6
f 79/202/4 81/204/4 175/110/4 163/105/4
f 80/205/6 103/203/6 168/187/6 166/181/6
f 81/204/4 115/206/4 176/121/4 175/110/4
f 82/208/6 80/205/6 166/181/6 177/207/6
f 115/206/4 111/209/4 178/125/4 176/121/4
f 116/211/6 82/208/6 177/207/6 179/210/6
f 111/209/4 113/212/4 180/126/4 178/125/4
f 112/213/6 116/211/6 179/210/6 181/84/6
f 113/212/4 126/214/4 182/122/4 180/126/4
f 114/216/6 112/213/6 181/84/6 183/215/6
f 126/214/4 131/217/4 184/129/4 182/122/4
f 125/219/6 114/216/6 183/215/6 185/218/6
f 131/217/4 122/220/4 186/133/4 184/129/4
f 132/222/6 125/219/6 185/218/6 187/221/6
f 122/220/4 120/223/4 188/134/4 186/133/4
f 121/225/6 132/222/6 187/221/6 189/224/6
f 120/223/4 128/226/4 190/130/4 188/134/4
f 119/228/6 121/225/6 189/224/6 191/227/6
f 128/226/4 108/229/4 192/115/4 190/130/4
f 127/231/6 119/228/6 191/227/6 193/230/6
f 108/229/4 106/232/4 194/116/4 192/115/4
f 107/234/6 127/231/6 193/230/6 195/233/6
f 106/232/4 101/235/4 196/109/4 194/116/4
f 105/237/6 107/234/6 195/233/6 197/236/6
f 101/235/4 53/238/4 198/83/4 196/109/4
f 100/240/6 105/237/6 197/236/6 199/239/6
f 53/238/4 55/241/4 200/84/4 198/83/4
f 54/243/6 100/240/6 199/239/6 201/242/6
f 55/241/4 78/244/4 202/78/4 200/84/4
f 56/245/6 54/243/6 201/242/6 203/125/6
f 78/244/4 70/246/4 204/72/4 202/78/4
f 77/248/6 56/245/6 203/125/6 205/247/6
f 70/246/4 62/249/4 206/66/4 204/72/4
f 69/251/6 77/248/6 205/247/6 207/250/6
f 62/249/4 42/252/4 208/57/4 206/66/4
f 61/254/6 69/251/6 207/250/6 209/253/6
f 42/252/4 40/255/4 210/58/4 208/57/4
f 41/257/6 61/254/6 209/253/6 211/256/6
f 40/255/4 46/258/4 212/52/4 210/58/4
f 39/260/6 41/257/6 211/256/6 213/259/6
f 46/258/4 36/261/4 214/42/4 212/52/4
f 45/263/6 39/260/6 213/259/6 215/262/6
f 36/261/4 28/264/4 216/28/4 214/42/4
f 35/266/6 45/263/6 215/262/6 217/265/6
f 28/264/4 3/267/4 218/17/4 216/28/4
f 27/269/6 35/266/6 217/265/6 219/268/6
f 7/270/4 8/135/4 135/13/4 220/14/4
f 1/272/6 27/269/6 219/268/6 221/271/6
f 3/267/4 4/273/4 222/18/4 218/17/4
f 4/273/4 22/274/4 223/16/4 222/18/4
f 2/276/6 1/272/6 221/271/6 224/275/6
f 21/278/6 2/276/6 224/275/6 225/277/6
f 22/274/4 7/270/4 220/14/4 223/16/4
f 5/143/6 21/278/6 225/277/6 140/142/6
f 47/279/5 59/280/5 158/67/5 156/43/5
f 48/281/1 38/282/1 217/35/1 215/1/1
f 38/284/3 26/285/3 219/20/3 217/283/3
f 44/286/2 47/287/2 156/49/2 154/26/2
f 51/289/3 52/284/3 213/283/3 211/288/3
f 52/291/1 48/281/1 215/1/1 213/290/1
f 59/281/1 87/293/1 160/292/1 158/1/1
f 60/295/3 51/289/3 211/288/3 209/294/3
f 67/296/5 75/297/5 174/79/5 172/70/5
f 68/296/3 60/295/3 209/294/3 207/70/3
f 87/293/1 89/299/1 162/298/1 160/292/1
f 88/300/2 67/287/2 172/49/2 170/90/2
f 89/280/5 90/296/5 164/70/5 162/67/5
f 90/296/5 97/297/5 166/79/5 164/70/5
f 97/302/2 98/300/2 168/90/2 166/301/2
f 98/304/3 88/296/3 170/70/3 168/303/3
f 75/281/1 98/293/1 168/292/1 174/1/1
f 76/304/3 68/296/3 207/70/3 205/303/3
f 83/287/2 84/306/2 203/305/2 201/49/2
f 84/308/3 76/304/3 205/303/3 203/307/3
f 98/293/1 97/299/1 166/298/1 168/292/1
f 99/300/2 83/287/2 201/49/2 199/90/2
f 97/297/5 104/310/5 177/309/5 166/79/5
f 104/299/1 117/312/1 179/311/1 177/298/1
f 109/302/2 110/300/2 197/90/2 195/301/2
f 110/314/3 99/308/3 199/307/3 197/313/3
f 117/312/1 123/306/1 181/305/1 179/311/1
f 118/316/5 129/317/5 187/127/5 185/315/5
f 123/310/5 124/316/5 183/315/5 181/309/5
f 124/291/2 118/318/2 185/120/2 183/290/2
f 129/317/5 133/320/5 189/319/5 187/127/5
f 130/321/3 109/314/3 195/313/3 193/132/3
f 133/318/2 134/302/2 191/301/2 189/120/2
f 134/323/3 130/321/3 193/132/3 191/322/3
f 43/325/2 44/286/2 154/26/2 152/324/2
f 37/327/5 43/279/5 152/43/5 149/326/5
f 26/286/2 15/287/2 221/49/2 219/26/2
f 30/329/5 37/327/5 149/326/5 147/328/5
f 29/330/5 30/329/5 147/328/5 144/21/5
f 25/282/1 29/332/1 144/331/1 142/35/1
f 12/334/1 11/281/1 139/1/1 140/333/1
f 13/281/1 25/282/1 142/35/1 138/1/1
f 15/287/2 16/336/2 224/335/2 221/49/2
f 16/285/3 14/338/3 225/337/3 224/20/3
f 14/338/3 12/320/3 140/319/3 225/337/3
f 11/323/5 13/330/5 138/21/5 139/322/5
f 229/342/3 228/341/3 226/339/3 227/340/3
f 227/345/2 226/346/2 231/344/2 230/343/2
f 233/348/6 234/349/6 232/347/6 131/222/6
f 228/352/1 229/353/1 236/351/1 235/350/1
f 238/355/4 239/356/4 132/217/4 237/354/4
f 235/341/3 236/342/3 237/358/3 232/357/3
f 228/359/4 235/360/4 232/354/4 234/355/4
f 236/361/6 229/362/6 238/349/6 237/347/6
f 229/362/6 227/363/6 239/348/6 238/349/6
f 226/364/4 228/359/4 234/355/4 233/356/4
f 230/365/3 231/366/3 131/131/3 132/132/3
f 227/363/6 230/367/6 132/222/6 239/348/6
f 231/368/4 226/364/4 233/356/4 131/217/4
f 241/372/3 240/371/3 165/369/3 167/370/3

