# ProBuilder 4.0.5
# https://unity3d.com/unity/features/worldbuilding/probuilder
# 2020/01/30 13:03:34

mtllib ./wall_03.mtl
o wall_03

g wall_03
v 55 0 -73
v 55 0 -71
v 55 2.99995 -73
v 55 2.99995 -71
v 55 9.989738E-05 -80
v 55 3.00005 -80
v 52 0 -71
v 52 0 -73
v 52 2.99995 -71
v 52 2.99995 -73
v 50 9.989738E-05 -73
v 50 3.00005 -73
v 48 0.0002000332 -73
v 48 3.00015 -73
v 52 9.989738E-05 -80
v 52 3.00005 -80
v 50 0.0002000332 -80
v 50 3.00015 -80
v 48 0.0002999306 -80
v 48 2.99975 -73
v 48 2.99985 -80
v 48 0.0004000664 -83
v 48 2.99995 -83
v 48 0.0004999638 -90
v 48 3.00005 -90
v 50 0.0002999306 -83
v 50 2.99985 -83
v 50 2.99975 -80
v 50 0.0004000664 -90
v 50 2.99995 -90
v 56 0.0004999638 -90
v 59 0.0006000996 -90
v 56 3.00005 -90
v 59 3.00015 -90
v 57 0.0006999969 -92
v 57 3.00015 -92
v 54 0.0006000996 -92
v 54 3.00005 -92
v 50 0.0006000996 -92
v 48 2.99995 -90
v 50 3.00005 -92
v 52 0.0004999638 -92
v 45 0.0006000996 -92
v 52 2.99995 -92
v 45 3.00005 -92
v 45 0.0006999969 -95
v 52 0.0006000996 -95
v 45 3.00015 -95
v 52 3.00005 -95
v 54 0.0006999969 -95
v 54 3.00015 -95
v 59 0.0004999638 -83
v 59 3.00025 -83
v 62 0.0006000996 -83
v 62 3.00035 -83
v 62 0.0006999969 -88
v 62 3.00045 -88
v 65 0.0007998943 -88
v 65 3.00055 -88
v 65 0.0006999969 -83
v 65 3.00045 -83
v 68 0.0007998943 -83
v 68 3.00055 -83
v 68 0.0009000301 -80
v 68 3.00065 -80
v 65 0.0007998943 -80
v 65 3.00055 -80
v 65 0.0009000301 -77
v 65 3.00065 -77
v 62 0.0007998943 -77
v 62 3.00055 -77
v 62 0.0006999969 -80
v 62 3.00045 -80
v 59 0.0006000996 -80
v 59 3.00035 -80
v 56 0.0004999638 -80
v 56 3.00025 -80
v 56 0.0004000664 -83
v 56 3.00015 -83
v 50 3.00005 -83
v 55 0.001199961 -104
v 55 0.001100063 -101
v 55 2.99985 -104
v 55 2.99975 -101
v 55 0.001300097 -107
v 55 2.99995 -107
v 58 0.001399994 -107
v 58 3.00005 -107
v 58 0.001499891 -115
v 58 3.00015 -115
v 55 0.001399994 -115
v 55 3.00005 -115
v 48 0.001399994 -115
v 52 0.001300097 -115
v 48 3.00005 -115
v 52 2.99995 -115
v 48 0.001300097 -107
v 48 2.99995 -107
v 52 0.001199961 -107
v 52 2.99985 -107
v 52 0.001100063 -104
v 52 2.99975 -104
v 45 0.0009999275 -104
v 45 2.99965 -104
v 52 0.0009999275 -101
v 45 0.0009000301 -101
v 52 2.99965 -101
v 45 2.99955 -101
v 42 0.001100063 -104
v 42 2.99975 -104
v 45 0.0007998943 -98
v 45 2.99945 -98
v 45 2.99935 -95
v 42 0.0009000301 -98
v 42 0.0009999275 -101
v 42 2.99955 -98
v 42 2.99965 -101
v 42 0.0007998943 -95
v 42 2.99945 -95
v 39 0.001100063 -101
v 39 2.99975 -101
v 39 0.001199961 -104
v 39 2.99985 -104
v 39 0.001300097 -107
v 39 2.99995 -107
v 42 0.001199961 -107
v 42 2.99985 -107
v 46 0.001300097 -107
v 46 2.99995 -107
v 46 0.001399994 -115
v 46 3.00005 -115
v 42 0.001300097 -115
v 42 2.99995 -115
v 39 0.001399994 -115
v 39 3.00005 -115
v 36 0.001499891 -115
v 36 3.00015 -115
v 36 0.001399994 -107
v 36 3.00005 -107
v 39 3.00005 -107
v 24 0.001399994 -104
v 24 0.001499891 -107
v 24 3.00035 -104
v 24 3.00045 -107
v 28 0.001399994 -107
v 28 3.00035 -107
v 28 0.001300097 -104
v 28 3.00025 -104
v 31 0.001399994 -104
v 31 3.00035 -104
v 31 0.001300097 -100
v 31 3.00025 -100
v 28 0.001199961 -100
v 28 3.00015 -100
v 28 0.001100063 -95
v 28 3.00005 -95
v 24 0.001199961 -95
v 24 0.001300097 -100
v 24 3.00015 -95
v 24 3.00025 -100
v 21 0.001399994 -100
v 21 3.00035 -100
v 21 0.001499891 -104
v 21 3.00045 -104
v 24 0.001100063 -92
v 24 3.00005 -92
v 22 0.001300097 -89
v 24 0.001199961 -89
v 22 3.00025 -89
v 24 3.00015 -89
v 28 0.0009999275 -92
v 28 0.001100063 -89
v 28 3.00015 -92
v 28 3.00025 -89
v 28 0.001199961 -86
v 28 3.00035 -86
v 24 0.001300097 -86
v 24 3.00045 -86
v 35 0.0009000301 -92
v 35 3.00005 -92
v 35 0.0009999275 -95
v 35 3.00015 -95
v 39 0.0009000301 -95
v 39 3.00005 -95
v 42 3.00005 -95
v 45 0.0006999969 -90
v 42 0.0007998943 -90
v 45 2.99995 -90
v 42 3.00005 -90
v 39 0.0009000301 -90
v 39 0.0009999275 -86
v 39 3.00015 -90
v 39 3.00025 -86
v 41 0.001100063 -86
v 41 3.00035 -86
v 44 0.001199961 -86
v 44 0.001300097 -83
v 44 3.00045 -86
v 44 3.00055 -83
v 41 0.001199961 -83
v 41 3.00045 -83
v 39 0.001100063 -83
v 39 3.00005 -83
v 35 0.0009999275 -90
v 35 2.99985 -90
v 35 2.99975 -92
v 35 0.001100063 -86
v 35 2.99995 -86
v 28 0.001399994 -80
v 35 0.001300097 -80
v 28 3.00025 -80
v 35 3.00015 -80
v 22 0.001600027 -80
v 24 0.001499891 -80
v 22 3.00045 -80
v 24 3.00035 -80
v 28 0.001600027 -74
v 22 0.001699924 -74
v 28 3.000279 -74.00007
v 22 3.00045 -74.0001
v 39 0.001300097 -65
v 35 0.001399994 -65
v 39 3.00015 -65
v 35 3.00025 -65
v 39 0.001199961 -80
v 39 3.00005 -80
v 28 0 -65
v 28 2.99985 -65
v 28 2.999979 -74
v 28 3.00025 -65.0001
v 28 0.001399994 -65.0001
v 35 0.001199961 -83
v 35 3.00015 -83
v 35 3.00005 -86
v 35 0.001250029 -81.5
v 39 0.001149893 -81.5
v 50 2.99995 -89.9999
v 48 3.00005 -89.9999
v 59 3.00005 -89.9999
v 56 2.99995 -89.9999

vt 17 2.9997
vt 19 2.9997
vt 17 5.99965
vt 19 5.99965
vt 10 2.9998
vt 10 5.99975
vt -19 2.9997
vt -17 2.9997
vt -19 5.99965
vt -17 5.99965
vt -7.5 2.9997
vt -5.5 2.9998
vt -7.5 5.99965
vt -5.5 5.99975
vt -3.5 2.9999
vt -3.5 5.99985
vt 7.5 2.9998
vt 10.5 2.9998
vt 7.5 5.99975
vt 10.5 5.99975
vt 5.5 2.9999
vt 5.5 5.99985
vt -10 3
vt -17 5.99945
vt -10 5.99955
vt -7 3.0001
vt -7 5.99965
vt 0 3.0002
vt 0 5.99975
vt 7 3
vt 7 5.99955
vt 10 5.99945
vt 3.5 3.0002
vt 5.5 3.0001
vt 3.5 5.99975
vt 11.5 3.0002
vt 14.5 3.0003
vt 11.5 5.99975
vt 14.5 5.99985
vt 7.424621 3.0004
vt 10.25305 3.0003
vt 7.424621 5.99985
vt 10.25305 5.99975
vt 9.5 3.0003
vt 12.5 3.0004
vt 9.5 5.99975
vt 12.5 5.99985
vt 2.474874 3.0002
vt 5.303301 3.0003
vt 2.474874 5.99965
vt 5.303301 5.99975
vt -7.5 3.0002
vt -0.5 3.0003
vt -0.5 5.99975
vt 0.5 3.0004
vt 7.5 3.0003
vt 0.5 5.99985
vt -5 3.0004
vt -2 3.0003
vt -5 5.99985
vt -2 5.99975
vt 7 3.0002
vt 0 6.00005
vt 17.5 3.0003
vt 17.5 6.00005
vt -7 6.00005
vt -2 6.00015
vt 20.5 3.0005
vt 20.5 6.00025
vt 2 3.0005
vt 2 6.00025
vt 7 6.00015
vt 23.5 3.0005
vt 23.5 6.00025
vt 10 3.0006
vt 10 6.00035
vt -23.5 3.0006
vt -20.5 3.0005
vt -23.5 6.00035
vt -20.5 6.00025
vt 10 3.0005
vt 13 3.0006
vt 13 6.00035
vt -20.5 3.0006
vt -17.5 3.0005
vt -17.5 6.00025
vt -13 3.0005
vt -10 3.0004
vt -13 6.00025
vt -10 6.00015
vt -14.5 3.0003
vt -14.5 6.00005
vt -11.5 3.0002
vt -11.5 5.99995
vt -14 3.0009
vt -11 3.0008
vt -14 5.99955
vt -11 5.99945
vt -17 3.001
vt -13.5 3.0011
vt -10.5 3.001
vt -13.5 5.99975
vt -10.5 5.99965
vt -25 3.0012
vt -17 3.0011
vt -25 5.99985
vt 10.5 3.0011
vt 13.5 3.0012
vt 13.5 5.99985
vt 3.5 3.0011
vt 7.5 3.001
vt 17 3.001
vt 25 3.0011
vt 25 5.99975
vt -7.5 3.0009
vt -3.5 3.001
vt 14 3.0008
vt 14 5.99945
vt 0.5 3.0007
vt 0.5 5.99935
vt 7.5 5.99945
vt -0.5 3.0006
vt -7.5 5.99935
vt -0.5 5.99925
vt -10.5 5.99945
vt -2.5 3.0008
vt -2.5 5.99945
vt -8 3.0005
vt -8 5.99915
vt -5 5.99905
vt 8 3.0006
vt 11 3.0007
vt 8 5.99925
vt 11 5.99935
vt 5 3.0005
vt 5 5.99915
vt 2.5 3.0007
vt 5.5 3.0008
vt 2.5 5.99935
vt 5.5 5.99945
vt 14 5.99955
vt -14 5.99945
vt -1.5 3.001
vt -1.5 5.99965
vt 2.5 5.99955
vt 1.5 3.0011
vt -2.5 5.99965
vt 1.5 5.99975
vt -5.5 3.0011
vt -8.5 3.0012
vt -8.5 5.99985
vt 17 3.0011
vt 8.5 3.0011
vt 8.5 5.99985
vt 14 3.0011
vt 14 6.00005
vt 17 6.00015
vt -20.5 3.0012
vt -16.5 3.0011
vt -16.5 6.00005
vt -17 6.00005
vt -16.5 3.001
vt -16.5 5.99995
vt -13.5 6.00005
vt -14 3.0011
vt -10 3.001
vt -14 6.00005
vt 13.5 3.001
vt 16.5 3.0009
vt 16.5 5.99985
vt -5 3.0008
vt 5 3.0009
vt 5 5.99985
vt 20.5 3.001
vt 23.5 3.0011
vt 20.5 5.99995
vt 10 3.0011
vt -23.5 3.0012
vt 2 3.0008
vt 2 5.99975
vt -22.5 3.001
vt -22.5 5.99995
vt -20.5 5.99985
vt -1 3.0009
vt -1 5.99985
vt -2 3.0007
vt 1 3.0008
vt 1 5.99995
vt 4 3.0009
vt 4 6.00005
vt 16.5 6.00005
vt 9.5 3.0006
vt -9.5 3.0007
vt -9.5 5.99985
vt -5.5 3.0006
vt -2.5 3.0005
vt 2.5 3.0005
vt 0 3.0006
vt 4 5.99995
vt -3.5 6.00005
vt 7 3.001
vt 3.5 3.0009
vt 0.5 6.00025
vt 3.5 6.00015
vt -0.5 6.00015
vt 2 5.99945
vt -4 3.0008
vt -4 5.99965
vt -22.5 3.0013
vt -22.5 6.00015
vt 22.5 3.001033
vt 22.5 5.999784
vt 9.5 3.0011
vt 25 3.001
vt -25 2.9997
vt -16 3.0013
vt -16 5.999679
vt 9.499646 5.99995
vt 9.499646 3.0011
vt 16.49965 5.99995
vt 16.49965 3.0011
vt -7 3.0009
vt -8.5 3.00095
vt 8.5 3.00085
vt -5.5 3.0001
vt -3.5 3.0002
vt -14.5 5.99975

vn -1 0 0
vn 1 0 0
vn 0 0 -1
vn 0 0 1
vn -0.7071068 0 0.7071068
vn 0.7071068 0 0.7071068

g wall_03
usemtl ProBuilderDefault
f 212/25/2 235/223/2 233/27/2
f 212/25/2 210/166/2 235/223/2
f 235/223/2 232/222/2 233/27/2
f 203/31/1 202/201/1 236/224/1
f 236/224/1 225/75/1 226/6/1
f 203/31/1 236/224/1 226/6/1
f 3/3/1 1/1/1 2/2/1
f 2/2/1 4/4/1 3/3/1
f 6/6/1 5/5/1 1/1/1
f 1/1/1 3/3/1 6/6/1
f 9/9/2 7/7/2 8/8/2
f 8/8/2 10/10/2 9/9/2
f 10/13/3 8/11/3 11/12/3
f 11/12/3 12/14/3 10/13/3
f 12/14/3 11/12/3 13/15/3
f 13/15/3 14/16/3 12/14/3
f 16/19/4 15/17/4 5/18/4
f 5/18/4 6/20/4 16/19/4
f 18/22/4 17/21/4 15/17/4
f 15/17/4 16/19/4 18/22/4
f 20/24/2 13/8/2 19/23/2
f 19/23/2 21/25/2 20/24/2
f 21/25/2 19/23/2 22/26/2
f 22/26/2 23/27/2 21/25/2
f 23/27/2 22/26/2 24/28/2
f 24/28/2 25/29/2 23/27/2
f 27/31/1 26/30/1 17/5/1
f 17/5/1 28/32/1 27/31/1
f 25/35/4 24/33/4 29/34/4
f 29/34/4 30/22/4 25/35/4
f 33/38/4 31/36/4 32/37/4
f 32/37/4 34/39/4 33/38/4
f 36/42/5 35/40/5 32/41/5
f 32/41/5 34/43/5 36/42/5
f 38/46/4 37/44/4 35/45/4
f 35/45/4 36/47/4 38/46/4
f 40/50/6 24/48/6 39/49/6
f 39/49/6 41/51/6 40/50/6
f 44/13/3 42/52/3 43/53/3
f 43/53/3 45/54/3 44/13/3
f 48/57/4 46/55/4 47/56/4
f 47/56/4 49/19/4 48/57/4
f 49/19/4 47/56/4 50/44/4
f 50/44/4 51/46/4 49/19/4
f 51/60/1 50/58/1 37/59/1
f 37/59/1 38/61/1 51/60/1
f 34/63/1 32/28/1 52/62/1
f 52/62/1 53/31/1 34/63/1
f 53/39/4 52/37/4 54/64/4
f 54/64/4 55/65/4 53/39/4
f 55/66/2 54/26/2 56/59/2
f 56/59/2 57/67/2 55/66/2
f 57/65/4 56/64/4 58/68/4
f 58/68/4 59/69/4 57/65/4
f 59/71/1 58/70/1 60/62/1
f 60/62/1 61/72/1 59/71/1
f 61/69/4 60/68/4 62/73/4
f 62/73/4 63/74/4 61/69/4
f 63/72/1 62/62/1 64/75/1
f 64/75/1 65/76/1 63/72/1
f 65/79/3 64/77/3 66/78/3
f 66/78/3 67/80/3 65/79/3
f 67/76/1 66/81/1 68/82/1
f 68/82/1 69/83/1 67/76/1
f 69/80/3 68/84/3 70/85/3
f 70/85/3 71/86/3 69/80/3
f 71/89/2 70/87/2 72/88/2
f 72/88/2 73/90/2 71/89/2
f 73/86/3 72/85/3 74/91/3
f 74/91/3 75/92/3 73/86/3
f 75/92/3 74/91/3 76/93/3
f 76/93/3 77/94/3 75/92/3
f 77/25/2 76/88/2 78/26/2
f 78/26/2 79/27/2 77/25/2
f 79/94/3 78/93/3 26/12/3
f 26/12/3 80/14/3 79/94/3
f 83/97/1 81/95/1 82/96/1
f 82/96/1 84/98/1 83/97/1
f 86/10/1 85/99/1 81/95/1
f 81/95/1 83/97/1 86/10/1
f 88/102/3 87/100/3 85/101/3
f 85/101/3 86/103/3 88/102/3
f 90/106/1 89/104/1 87/105/1
f 87/105/1 88/10/1 90/106/1
f 92/20/4 91/107/4 89/108/4
f 89/108/4 90/109/4 92/20/4
f 95/35/4 93/110/4 94/111/4
f 94/111/4 96/19/4 95/35/4
f 96/19/4 94/111/4 91/107/4
f 91/107/4 92/20/4 96/19/4
f 98/3/2 97/112/2 93/113/2
f 93/113/2 95/114/2 98/3/2
f 100/13/3 99/115/3 97/116/3
f 97/116/3 98/16/3 100/13/3
f 102/118/2 101/117/2 99/112/2
f 99/112/2 100/3/2 102/118/2
f 104/120/4 103/119/4 101/111/4
f 101/111/4 102/121/4 104/120/4
f 107/123/3 105/115/3 106/122/3
f 106/122/3 108/124/3 107/123/3
f 84/125/3 82/101/3 105/115/3
f 105/115/3 107/123/3 84/125/3
f 110/127/4 109/126/4 103/119/4
f 103/119/4 104/120/4 110/127/4
f 108/98/1 106/96/1 111/128/1
f 111/128/1 112/129/1 108/98/1
f 112/129/1 111/128/1 46/58/1
f 46/58/1 113/130/1 112/129/1
f 116/133/2 114/131/2 115/132/2
f 115/132/2 117/134/2 116/133/2
f 119/136/2 118/135/2 114/131/2
f 114/131/2 116/133/2 119/136/2
f 117/139/3 115/137/3 120/138/3
f 120/138/3 121/140/3 117/139/3
f 121/134/2 120/132/2 122/117/2
f 122/117/2 123/141/2 121/134/2
f 123/141/2 122/117/2 124/112/2
f 124/112/2 125/3/2 123/141/2
f 127/10/1 126/99/1 109/95/1
f 109/95/1 110/142/1 127/10/1
f 129/144/3 128/143/3 126/137/3
f 126/137/3 127/145/3 129/144/3
f 131/106/1 130/104/1 128/99/1
f 128/99/1 129/10/1 131/106/1
f 133/147/4 132/126/4 130/146/4
f 130/146/4 131/148/4 133/147/4
f 135/14/4 134/149/4 132/126/4
f 132/126/4 133/147/4 135/14/4
f 137/151/4 136/150/4 134/149/4
f 134/149/4 135/14/4 137/151/4
f 139/3/2 138/152/2 136/113/2
f 136/113/2 137/114/2 139/3/2
f 140/22/3 124/138/3 138/153/3
f 138/153/3 139/154/3 140/22/3
f 143/156/2 141/155/2 142/152/2
f 142/152/2 144/157/2 143/156/2
f 144/80/4 142/158/4 145/159/4
f 145/159/4 146/160/4 144/80/4
f 146/161/1 145/105/1 147/95/1
f 147/95/1 148/97/1 146/161/1
f 148/163/4 147/162/4 149/100/4
f 149/100/4 150/164/4 148/163/4
f 150/167/1 149/165/1 151/166/1
f 151/166/1 152/25/1 150/167/1
f 152/109/3 151/168/3 153/169/3
f 153/169/3 154/170/3 152/109/3
f 154/25/1 153/166/1 155/171/1
f 155/171/1 156/60/1 154/25/1
f 159/173/2 157/172/2 158/75/2
f 158/75/2 160/6/2 159/173/2
f 160/176/3 158/174/3 161/175/3
f 161/175/3 162/74/3 160/176/3
f 162/76/2 161/177/2 163/155/2
f 163/155/2 164/156/2 162/76/2
f 164/79/4 163/178/4 141/158/4
f 141/158/4 143/80/4 164/79/4
f 166/180/2 165/179/2 157/172/2
f 157/172/2 159/173/2 166/180/2
f 169/182/4 167/181/4 168/84/4
f 168/84/4 170/183/4 169/182/4
f 170/185/2 168/184/2 165/179/2
f 165/179/2 166/180/2 170/185/2
f 173/61/1 171/186/1 172/187/1
f 172/187/1 174/188/1 173/61/1
f 174/188/1 172/187/1 175/189/1
f 175/189/1 176/190/1 174/188/1
f 176/191/3 175/169/3 177/174/3
f 177/174/3 178/69/3 176/191/3
f 180/46/3 179/192/3 171/169/3
f 171/169/3 173/170/3 180/46/3
f 156/163/4 155/162/4 181/193/4
f 181/193/4 182/194/4 156/163/4
f 182/194/4 181/193/4 183/195/4
f 183/195/4 184/14/4 182/194/4
f 184/14/4 183/195/4 118/196/4
f 118/196/4 185/147/4 184/14/4
f 188/54/3 186/53/3 187/197/3
f 187/197/3 189/145/3 188/54/3
f 192/29/1 190/198/1 191/189/1
f 191/189/1 193/199/1 192/29/1
f 193/14/4 191/195/4 194/116/4
f 194/116/4 195/200/4 193/14/4
f 198/190/1 196/189/1 197/201/1
f 197/201/1 199/72/1 198/190/1
f 199/203/3 197/119/3 200/202/3
f 200/202/3 201/204/3 199/203/3
f 195/200/4 194/116/4 196/122/4
f 196/122/4 198/205/4 195/200/4
f 189/145/3 187/197/3 190/138/3
f 190/138/3 192/22/3 189/145/3
f 201/35/3 200/202/3 202/138/3
f 202/138/3 203/22/3 201/35/3
f 205/29/2 204/198/2 179/179/2
f 179/179/2 206/206/2 205/29/2
f 208/208/2 207/207/2 204/198/2
f 204/198/2 205/29/2 208/208/2
f 211/163/4 209/159/4 210/193/4
f 210/193/4 212/194/4 211/163/4
f 215/210/4 213/209/4 214/158/4
f 214/158/4 216/80/4 215/210/4
f 216/80/4 214/158/4 209/159/4
f 209/159/4 211/163/4 216/80/4
f 219/170/3 217/169/3 218/211/3
f 218/211/3 220/212/3 219/170/3
f 223/22/3 221/138/3 222/213/3
f 222/213/3 224/46/3 223/22/3
f 226/6/1 225/75/1 221/214/1
f 221/214/1 223/114/1 226/6/1
f 228/106/2 227/215/2 217/216/2
f 217/216/2 229/217/2 228/106/2
f 230/220/3 224/218/3 222/219/3
f 222/219/3 231/221/3 230/220/3
f 233/27/2 232/222/2 207/207/2
f 207/207/2 234/208/2 233/27/2
f 237/14/3 29/225/3 24/226/3
f 24/226/3 238/16/3 237/14/3
f 239/227/3 32/91/3 31/93/3
f 31/93/3 240/94/3 239/227/3

