# ProBuilder 4.0.5
# https://unity3d.com/unity/features/worldbuilding/probuilder
# 2020/02/05 10:36:21

mtllib ./Wall_01.mtl
o Wall_01

g Wall_01
v 16 0 7
v 16 0 1
v 16 3.00005 7
v 16 3.00005 1
v 16 0.0001 -2
v 16 3.00015 -2
v 19 0 1
v 19 0 7
v 19 3.00005 1
v 19 3.00005 7
v 26 0.0001000166 1
v 26 3.00015 1
v 26 0.0001000166 -10
v 26 3.00015 -10
v 23.5001 3.00015 -2
v 23.5001 0.0001000166 -2
v 23.5001 3.00015 -13
v 23.5001 0.0001000166 -13
v 27 0.0001000166 -10
v 27 3.00015 -10
v 27 0.0001000166 -7.5001
v 27 3.00015 -7.5001
v 27 0.0001000166 -6.5001
v 27 3.00015 -6.5001
v 37 3.00015 -7.5
v 37 0.0001000166 -7.5
v 36.9999 3.00015 -0.5
v 36.9999 0.0001000166 -0.5
v 40.9999 3.00015 -0.5
v 40.9999 0.0001000166 -0.5
v 40.9999 3.00015 6
v 40.9999 0.0001000166 6
v 36.9999 3.00015 6
v 36.9999 0.0001000166 6
v 36.9999 3.00015 12.9999
v 36.9999 0.0001000166 12.9999
v 27 0.0001000166 9
v 27 3.00015 9
v 27 0.0001000166 13
v 27 3.00015 13
v 34 0.0001000166 13
v 34 3.00015 13
v 34 0.0001000166 18.9999
v 34 3.00015 18.9999
v 37.88123 0.0001000166 18.9998
v 37.88123 3.00015 18.9998
v 40.11877 0.0001000166 18.9998
v 40.11877 3.00015 18.9998
v 37 3.00015 12.9999
v 37 0.0001000166 12.9999
v 37 3.00015 15.9999
v 37 0.0001000166 15.9999
v 38 3.00015 15.9999
v 38 0.0001000166 15.9999
v 38 3.00015 8.0001
v 38 0.0001000166 8.0001
v 43.0001 3.00015 8.0001
v 43.0001 0.0001000166 8.0001
v 43.0001 3.00015 7.0001
v 43.0001 0.0001000166 7.0001
v 46.0001 3.00015 7.0001
v 46.0001 0.0001000166 7.0001
v 46.0001 3.00015 4.0001
v 46.0001 0.0001000166 4.0001
v 49.0001 3.00015 4.0001
v 49.0001 0.0001000166 4.0001
v 49.0001 3.00015 1.0001
v 49.0001 0.0001000166 1.0001
v 41.0001 0.0001000166 18.9999
v 41.0001 3.00015 18.9999
v 41.0001 0.0001000166 10.9999
v 41.0001 3.00015 10.9999
v 42.9999 0.0001000166 10.9999
v 42.9999 3.00015 10.9999
v 42.9999 0.0001000166 12.9999
v 42.9999 3.00015 12.9999
v 55.0001 0.0001000166 12.9999
v 55.0001 3.00015 12.9999
v 55.0001 0.0001000166 6.9999
v 55.0001 3.00015 6.9999
v 51.9999 0.0001000166 6.9999
v 51.9999 3.00015 6.9999
v 51.9999 0.0001000166 1.0001
v 51.9999 3.00015 1.0001
v 40.0001 3.00015 -12.9999
v 40.0001 0.0001000166 -12.9999
v 40.0001 3.00015 -7.5
v 40.0001 0.0001000166 -7.5
v 30 3.00015 -7.5
v 30 0.0001000166 -7.5
v 27.0001 0.0001000166 -6.4999
v 27.0001 3.00015 -6.4999
v 27.0002 0.0001000166 -5
v 27.0002 3.00015 -5
v 27.0001 0.0001000166 3
v 27.0001 3.00015 3
v 23.5 0.0001000166 3
v 23.5 3.00015 3
v 23.5 0.0001000166 9
v 23.5 3.00015 9
v 26.0001 0.0001000166 9
v 26.0001 3.00015 9
v 27 3.00015 8.5001
v 27 0.0001000166 8.5001
v 23.5 3.00015 8.5001
v 23.5 0.0001000166 8.5001
v 36.9999 3.00015 -7.5
v 36.9999 0.0001000166 -7.5
v 44.0001 3.00015 1.0001
v 44.0001 0.0001000166 1.0001
v 44.0001 3.00015 -2
v 44.0001 0.0001000166 -2
v 52.0001 3.00015 -2
v 52.0001 0.0001000166 -2
v 54.9999 0.0001000166 1.0001
v 54.9999 3.00015 1.0001
v 54.9999 0.0001000166 -2.0001
v 54.9999 3.00015 -2.0001
v 54.9998 0.0001000166 -21
v 54.9998 3.00015 -21
v 52.0001 3.00015 -21
v 52.0001 0.0001000166 -21
v 23.5002 3.00015 -16
v 23.5002 0.0001000166 -16
v 40 3.00015 -16
v 40 0.0001000166 -16
v 38 3.00015 -10
v 38 0.0001000166 -10
v 38 3.00015 -14
v 38 0.0001000166 -14
v 26 3.00015 -14
v 26 0.0001000166 -14
v 33.5 3.00015 -16
v 33.5 0.0001000166 -16
v 33.5 3.00015 -17.4999
v 33.5 0.0001000166 -17.4999
v 37 3.00015 -17.4999
v 37 0.0001000166 -17.4999
v 37 3.00015 -15.9999
v 37 0.0001000166 -15.9999
v 40 3.00015 -15.9999
v 40 0.0001000166 -15.9999

vt -1 0
vt 5 0
vt -1 3.00005
vt 5 3.00005
vt 8 0.0001
vt 8 3.00015
vt -5 0
vt 1 0
vt -5 3.00005
vt 1 3.00005
vt -8 0.0001000166
vt -8 3.00015
vt -16 0.0001000166
vt -16 3.00015
vt -2 3.00015
vt -2 0.0001
vt 5.500099 3.00015
vt 5.500099 0.0001000166
vt 19 3.00015
vt 19 0.0001000166
vt 16 0.0001000166
vt 16 3.00015
vt 13.5001 0.0001000166
vt 13.5001 3.00015
vt 12.5001 0.0001000166
vt 12.5001 3.00015
vt -13.50027 3.00015
vt -13.50027 0.0001000166
vt -6.500269 3.00015
vt -6.500269 0.0001000166
vt 18.9999 3.00015
vt 18.9999 0.0001000166
vt 22.9999 3.00015
vt 22.9999 0.0001000166
vt 0 3.00015
vt 0 0.0001000166
vt -22.9999 3.00015
vt -22.9999 0.0001000166
vt -18.9999 3.00015
vt -18.9999 0.0001000166
vt 6.9999 3.00015
vt 6.9999 0.0001000166
vt -3 0.0001000166
vt -3 3.00015
vt -7 0.0001000166
vt -7 3.00015
vt -9 0.0001000166
vt -9 3.00015
vt -12.9999 0.0001000166
vt -12.9999 3.00015
vt -19.88123 0.0001000166
vt -19.88123 3.00015
vt -22.11877 0.0001000166
vt -22.11877 3.00015
vt 9.9999 3.00015
vt 9.9999 0.0001000166
vt 20 3.00015
vt 20 0.0001000166
vt -9.9999 3.00015
vt -9.9999 0.0001000166
vt 25.0001 3.00015
vt 25.0001 0.0001000166
vt 28.0001 3.00015
vt 28.0001 0.0001000166
vt 1.9999 3.00015
vt 1.9999 0.0001000166
vt 31.0001 3.00015
vt 31.0001 0.0001000166
vt 4.9999 3.00015
vt 4.9999 0.0001000166
vt 12.9999 0.0001000166
vt 12.9999 3.00015
vt -23.0001 0.0001000166
vt -23.0001 3.00015
vt -24.9999 0.0001000166
vt -24.9999 3.00015
vt -4.999901 0.0001000166
vt -4.999901 3.00015
vt -6.9999 0.0001000166
vt -6.9999 3.00015
vt -37.0001 0.0001000166
vt -37.0001 3.00015
vt 0.9998999 0.0001000166
vt 0.9998999 3.00015
vt 37.0001 0.0001000166
vt 37.0001 3.00015
vt 33.9999 0.0001000166
vt 33.9999 3.00015
vt -22.0001 3.00015
vt -22.0001 0.0001000166
vt -12 3.00015
vt -12 0.0001000166
vt 12.4993 0.0001000166
vt 12.4993 3.00015
vt 10.9994 0.0001000166
vt 10.9994 3.00015
vt 9.000198 0.0001000166
vt 9.000198 3.00015
vt 11 0.0001000166
vt 11 3.00015
vt 3 0.0001000166
vt 3 3.00015
vt -5.5 0.0001000166
vt -5.5 3.00015
vt -2.5001 3.00015
vt -2.5001 0.0001000166
vt 12 3.00015
vt 12 0.0001000166
vt -31.0001 3.00015
vt -31.0001 0.0001000166
vt -26.0001 3.00015
vt -26.0001 0.0001000166
vt 26.0001 3.00015
vt 26.0001 0.0001000166
vt 34.0001 3.00015
vt 34.0001 0.0001000166
vt -33.9999 0.0001000166
vt -33.9999 3.00015
vt -36.9999 0.0001000166
vt -36.9999 3.00015
vt -7.999907 0.0001000166
vt -7.999907 3.00015
vt -26.99981 0.0001000166
vt -26.99981 3.00015
vt 27 3.00015
vt 27 0.0001000166
vt -15.99967 3.00015
vt -15.99967 0.0001000166
vt -19.88089 3.00015
vt -19.88089 0.0001000166
vt 16 12.9999
vt 23.0001 12.9999
vt 19.88123 12.9998
vt 22.11877 12.9998
vt -23.00156 0.0001000166
vt -23.00156 3.00015
vt -22.12024 0.0001000166
vt -22.12024 3.00015
vt -23.0001 12.9999
vt -16 12.9999
vt -22.11877 12.9998
vt -19.88123 12.9998
vt 22.00018 3.00015
vt 22.00018 0.0001000166
vt -21.99927 3.00015
vt -21.99927 0.0001000166
vt -18.99917 3.00015
vt -18.99917 0.0001000166
vt -20 3.00015
vt -20 0.0001000166
vt 15.5 3.00015
vt 15.5 0.0001000166
vt 23.4999 3.00015
vt 23.4999 0.0001000166
vt -23.4999 3.00015
vt -23.4999 0.0001000166
vt -21.9999 3.00015
vt -21.9999 0.0001000166

vn 1 0 0
vn -1 0 0
vn 0 0 -1
vn 0 0 1
vn 0 0 0
vn 0 -1 0
vn 0 1 0

g Wall_01
usemtl ProBuilderDefault
f 4/4/1 3/3/1 1/1/1 2/2/1
f 6/6/1 4/4/1 2/2/1 5/5/1
f 10/10/2 9/9/2 7/7/2 8/8/2
f 9/3/3 12/12/3 11/11/3 7/1/3
f 14/14/2 13/13/2 11/7/2 12/9/2
f 16/18/4 15/17/4 6/15/4 5/16/4
f 18/20/1 17/19/1 15/6/1 16/5/1
f 22/24/1 21/23/1 19/21/1 20/22/1
f 24/26/1 23/25/1 21/23/1 22/24/1
f 28/30/2 27/29/2 25/27/2 26/28/2
f 30/34/4 29/33/4 27/31/4 28/32/4
f 32/36/2 31/35/2 29/29/2 30/30/2
f 34/40/3 33/39/3 31/37/3 32/38/3
f 36/42/2 35/41/2 33/35/2 34/36/2
f 38/36/5 37/36/5 37/36/5 38/36/5
f 40/46/1 39/45/1 37/43/1 38/44/1
f 42/14/3 41/13/3 39/47/3 40/48/3
f 44/50/1 43/49/1 41/45/1 42/46/1
f 48/54/3 47/53/3 45/51/3 46/52/3
f 50/20/4 49/19/4 35/31/4 36/32/4
f 52/56/2 51/55/2 49/41/2 50/42/2
f 54/58/4 53/57/4 51/19/4 52/20/4
f 56/16/1 55/15/1 53/59/1 54/60/1
f 58/62/4 57/61/4 55/57/4 56/58/4
f 60/1/1 59/3/1 57/15/1 58/16/1
f 62/64/4 61/63/4 59/61/4 60/62/4
f 64/66/1 63/65/1 61/3/1 62/1/1
f 66/68/4 65/67/4 63/63/4 64/64/4
f 68/70/1 67/69/1 65/65/1 66/66/1
f 72/69/2 71/70/2 69/71/2 70/72/2
f 74/76/3 73/75/3 71/73/3 72/74/3
f 76/80/1 75/79/1 73/77/1 74/78/1
f 78/82/3 77/81/3 75/75/3 76/76/3
f 80/84/2 79/83/2 77/42/2 78/41/2
f 82/88/4 81/87/4 79/85/4 80/86/4
f 84/78/2 83/77/2 81/83/2 82/84/2
f 88/28/2 87/27/2 85/39/2 86/40/2
f 90/92/3 89/91/3 87/89/3 88/90/3
f 94/96/1 93/95/1 91/93/1 92/94/1
f 94/98/4 93/97/4 93/97/4 94/98/4
f 96/102/1 95/101/1 93/99/1 94/100/1
f 98/17/4 97/18/4 95/97/4 96/98/4
f 100/44/1 99/43/1 97/101/1 98/102/1
f 102/12/3 101/11/3 99/103/3 100/104/3
f 104/106/1 103/105/1 38/44/1 37/43/1
f 106/103/3 105/104/3 103/48/3 104/47/3
f 90/36/5 89/36/5 89/36/5 90/36/5
f 108/32/4 107/31/4 89/107/4 90/108/4
f 110/112/3 109/111/3 67/109/3 68/110/3
f 112/5/1 111/6/1 109/69/1 110/70/1
f 114/116/4 113/115/4 111/113/4 112/114/4
f 116/120/3 115/119/3 83/117/3 84/118/3
f 118/12/2 117/11/2 115/77/2 116/78/2
f 120/124/2 119/123/2 117/121/2 118/122/2
f 122/126/1 121/125/1 113/6/1 114/5/1
f 46/129/3 45/130/3 43/128/3 44/127/3
f 45/133/6 47/134/6 69/132/6 43/131/6
f 47/137/3 48/138/3 70/136/3 69/135/3
f 48/141/7 46/142/7 44/140/7 70/139/7
f 124/144/1 123/143/1 17/19/1 18/20/1
f 86/148/2 85/147/2 125/145/2 126/146/2
f 128/58/4 127/57/4 20/98/4 19/97/4
f 130/58/1 129/57/1 127/22/1 128/21/1
f 132/11/3 131/12/3 129/149/3 130/150/3
f 13/13/2 14/14/2 131/149/2 132/150/2
f 134/152/4 133/151/4 123/17/4 124/18/4
f 136/154/1 135/153/1 133/143/1 134/144/1
f 138/20/4 137/19/4 135/151/4 136/152/4
f 140/158/2 139/157/2 137/155/2 138/156/2
f 142/144/4 141/143/4 139/19/4 140/20/4

