# ProBuilder 4.0.5
# https://unity3d.com/unity/features/worldbuilding/probuilder
# 2020/02/05 10:10:53

mtllib ./Wall_00.mtl
o Wall_00

g Wall_00
v -6 0.0002000332 -4
v -8 0.0001000166 -4
v -6 2.9996 -4
v -8 2.9995 -4
v -15 0 -4
v -15 2.9994 -4
v -15 0.0001 -1
v -20 0.0001 -1
v -15 2.9995 -1
v -20 2.9995 -1
v -20 0 -3
v -20 2.9994 -3
v -20 0 -6
v -20 2.9994 -6
v -20 0.0001 -8
v -20 2.9995 -8
v -15 0.0001 -8
v -15 2.9995 -8
v -15 0 -6
v -15 2.9994 -6
v -9 0.0001000166 -6
v -9 2.9995 -6
v -9 0.0002000332 -11
v -9 2.9996 -11
v -5.9999 2.9996 -11
v -5.9999 0.0002000332 -11
v -6 0.0002000332 -9
v -6 2.9996 -9
v -6 0.0002000332 -6.0001
v -6 2.9996 -6.0001
v -5.9999 2.9997 -4
v -5.9999 0.0003000498 -4
v -5.9999 2.9997 -6.0001
v -5.9999 0.0003000498 -6.0001
v -4 0.0003000498 -4
v -4 2.9997 -4
v -4 0.0003000498 -15
v -4 2.9997 -15
v -5.9999 2.9996 -17
v -5.9999 0.0002000332 -17
v 1 2.9996 -17
v 1 0.0002000332 -17
v 1 0.0003000498 -15
v 1 2.9997 -15
v 0.5 0.0003000498 -12.0001
v 0.5 2.9997 -12.0001
v 1 2.9996 -21.9999
v 1 0.0002000332 -21.9999
v 3.0001 2.9996 -21.9999
v 3.0001 0.0002000332 -21.9999
v 3.0001 2.9996 -16.9999
v 3.0001 0.0002000332 -16.9999
v 5.9999 2.9996 -16.9999
v 5.9999 0.0002000332 -16.9999
v 5.9999 2.9996 -19.9999
v 5.9999 0.0002000332 -19.9999
v 10.0001 2.9996 -19.9999
v 10.0001 0.0002000332 -19.9999
v 10.0001 2.9996 -14.9999
v 10.0001 0.0002000332 -14.9999
v 2.9999 2.9996 -14.9999
v 2.9999 0.0002000332 -14.9999
v 3.5 2.9996 -12
v 3.5 0.0002000332 -12
v 4.9999 2.9996 -12
v 4.9999 0.0002000332 -12
v 4.9999 2.9996 -9
v 4.9999 0.0002000332 -9
v -0.9998999 0.0003000498 -12.0001
v -0.9998999 2.9997 -12.0001
v -0.9998999 0.0003000498 -8.9999
v -0.9998999 2.9997 -8.9999
v 3.0001 0.0003000498 -8.9999
v 3.0001 2.9997 -8.9999
v 3.0001 0.0003000498 -8.0001
v 3.0001 2.9997 -8.0001
v -1 0.0003000498 -8.0001
v -1 2.9997 -8.0001
v -1 0.0003000498 -5.9999
v -1 2.9997 -5.9999
v 7.9999 2.9996 -9
v 7.9999 0.0002000332 -9
v 7.9999 2.9996 -5.9999
v 7.9999 0.0002000332 -5.9999
v 3 2.9996 -5.9999
v 3 0.0002000332 -5.9999
v 3 2.9996 -3.0001
v 3 0.0002000332 -3.0001
v 0 2.9997 -4
v 0 0.0003000498 -4
v -2.9999 2.9997 -4
v -2.9999 0.0003000498 -4
v -2.9999 2.9997 -6.0001
v -2.9999 0.0003000498 -6.0001
v -2.9999 0.0003000498 -5.9999
v -2.9999 2.9997 -5.9999
v 0 0.0003000498 -3.0001
v 0 2.9997 -3.0001
v 9.989738E-05 0.0003000498 7
v 9.989738E-05 2.9997 7
v 2.9999 2.9996 7
v 2.9999 0.0002000332 7
v 10.5 0.0002000332 7
v 10.5 2.9996 7
v 3.4999 0.0002000332 7
v 3.4999 2.9996 7
v 3.4999 0.0002000332 10.99995
v 3.4999 2.9996 10.99995
v 3 0.0002000332 11.00005
v 3 2.9996 11.00005
v 3 0.0002000332 7.0001
v 3 2.9996 7.0001
v 2.99995 2.9996 17
v 2.99995 0.0002000332 17
v 2.99985 2.9996 17.5
v 2.99985 0.0002000332 17.5
v 10.4999 0.0002000332 17
v 10.4999 2.9996 17
v 3.50005 0.0002000332 17
v 3.50005 2.9996 17
v 10.4998 2.9996 17.5
v 3.49995 2.9996 17.5
v 10.4998 0.0002000332 17.5
v 3.49995 0.0002000332 17.5
v 3.50005 0.0002000332 12.9999
v 3.50005 2.9996 12.9999
v 2.99995 0.0002000332 12.9999
v 2.99995 2.9996 12.9999
v 9.989738E-05 0.0003000498 11.0001
v 9.989738E-05 2.9997 11.0001
v -0.4999001 0.0003000498 11.0001
v -0.4999001 2.9997 11.0001
v -0.4999001 0.0003000498 7
v -0.4999001 2.9997 7
v -7.5 0.0003000498 7.0001
v -7.5 2.9997 7.0001
v -7.5 0.0003000498 17
v -7.5 2.9997 17
v 4.982948E-05 0.0003000498 17
v 4.982948E-05 2.9997 17
v 0.0001499653 0.0003000498 17.5
v 0.0001499653 2.9997 17.5
v -7.50005 0.0003000498 17.5
v -7.50005 2.9997 17.5
v -7.49995 0.0003000498 20.5
v -7.49995 2.9997 20.5
v -0.4999499 2.9997 17
v -0.4999499 0.0003000498 17
v -0.4998498 0.0003000498 17.5
v -0.4998498 2.9997 17.5
v -0.4999499 2.9997 13
v -0.4999499 0.0003000498 13
v 4.982948E-05 2.9997 13
v 4.982948E-05 0.0003000498 13
v 4.982948E-05 0.0003000498 20.5
v 4.982948E-05 2.9997 20.5
v 0.0001499653 0.0003000498 21
v 0.0001499653 2.9997 21
v -7.49985 0.0003000498 21
v -7.49985 2.9997 21
v -7.49975 0.0003000498 31
v -7.49975 2.9997 31
v -0.5000501 2.9997 20.5
v -0.5000501 0.0003000498 20.5
v -0.4999499 0.0003000498 21
v -0.4999499 2.9997 21
v -0.4999499 0.0003000498 25
v -0.4999499 2.9997 25
v 0.0001499653 0.0003000498 25
v 0.0001499653 2.9997 25
v -0.5 0.0003000498 31
v -0.5 2.9997 31
v -0.5 0.0003000498 26.99995
v -0.5 2.9997 26.99995
v 0 0.0003000498 26.99985
v 0 2.9997 26.99985
v 0 0.0003000498 30.9999
v 0 2.9997 30.9999
v 2 0.0003000498 43.5
v 2 2.9997 43.5
v 3.0001 0.0003000498 26.99995
v 3.0001 2.9997 26.99995
v 3.5 0.0003000498 26.99985
v 3.5 2.9997 26.99985
v 3.5 0.0003000498 30.9998
v 3.5 2.9997 30.9998
v 10.5 0.0003000498 30.9997
v 10.5 2.9997 30.9997
v 3.0001 2.9997 30.9999
v 3.0001 0.0003000498 30.9999
v 2.99995 0.0003000498 21
v 2.99995 2.9997 21
v 2.99985 0.0003000498 20.5
v 2.99985 2.9997 20.5
v 10.5 2.9997 21
v 10.5 0.0003000498 21
v 3.499949 2.9997 21
v 3.499949 0.0003000498 21
v 10.4999 0.0003000498 20.5
v 3.499849 0.0003000498 20.5
v 10.4999 2.9997 20.5
v 3.499849 2.9997 20.5
v 3.499949 2.9997 25.0001
v 3.499949 0.0003000498 25.0001
v 2.99995 2.9997 25.0001
v 2.99995 0.0003000498 25.0001
v 10.5 0.0003000498 20.49995
v 10.5 2.9997 20.49995
v 11 0.0003000498 20.49985
v 11 2.9997 20.49985
v 11 0.0003000498 30.9996
v 11 2.9997 30.9996
v 10.5 2.9996 17.49995
v 10.5 0.0002000332 17.49995
v 11 2.9996 17.50005
v 11 0.0002000332 17.50005
v 11 2.9996 7.0001
v 11 0.0002000332 7.0001
v 11.0001 0.0003000498 20
v 11.0001 2.9997 20
v 11.9999 0.0003000498 20
v 11.9999 2.9997 20
v 11 2.9996 18
v 11 0.0002000332 18
v 11.9999 2.9996 18
v 11.9999 0.0002000332 18
v 14 2.9996 18.0001
v 14 0.0002000332 18.0001
v 14 0.0003000498 19.9999
v 14 2.9997 19.9999
v 20 2.9996 18.0002
v 20 0.0002000332 18.0002
v 14 0.0003000498 23
v 14 2.9997 23
v 12.0001 0.0003000498 23
v 12.0001 2.9997 23
v 12.0001 0.0003000498 26.0001
v 12.0001 2.9997 26.0001
v 22 0.0003000498 26.0001
v 22 2.9997 26.0001
v 16 2.9996 21.0001
v 16 0.0002000332 21.0001
v 15.9999 2.9996 23
v 15.9999 0.0002000332 23
v 18.4999 2.9996 23
v 18.4999 0.0002000332 23
v 18.4999 2.9996 21.0001
v 18.4999 0.0002000332 21.0001
v 22 0.0003000498 18
v 22 2.9997 18
v 21.9999 0.0003000498 18.0001
v 21.9999 2.9997 18.0001
v 21.9998 0.0003000498 7
v 21.9998 2.9997 7
v 18.9999 0.0003000498 7
v 18.9999 2.9997 7
v 20 2.9996 17.5001
v 20 0.0002000332 17.5001
v 11 2.9996 6.999901
v 11 0.0002000332 6.999901
v 16.0001 2.9996 6.999901
v 16.0001 0.0002000332 6.999901

vt 3 -0.0004999668
vt 5 -0.0005999834
vt 3 2.9989
vt 5 2.9988
vt 12 -0.0007
vt 12 2.9987
vt 17 -0.0006
vt 17 2.9988
vt -6 -0.0007
vt -3 -0.0006
vt -6 2.9987
vt -3 2.9988
vt 3 -0.0006
vt 8 -0.0007
vt 8 2.9987
vt 10 -0.0006
vt 10 2.9988
vt -17 -0.0006
vt -12 -0.0006
vt -17 2.9988
vt -12 2.9988
vt -10 -0.0006
vt -8 -0.0007
vt -10 2.9988
vt -8 2.9987
vt 13 -0.0004999668
vt 13 2.9989
vt -6 -0.0004999668
vt -2.9999 2.9989
vt -2.9999 -0.0004999668
vt -11 -0.0004999668
vt -11 2.9989
vt 11 -0.0004999668
vt 11 2.9989
vt 8.0001 -0.0004999668
vt 6 2.999
vt 6 -0.0003999503
vt 8.0001 2.999
vt 2.9999 -0.0003999503
vt 2.9999 2.999
vt 1 -0.0003999503
vt 1 2.999
vt -6 2.999
vt -17 -0.0003999503
vt -17 2.999
vt 19 2.9989
vt 19 -0.0004999668
vt 4 2.9989
vt 4 -0.0004999668
vt -4 -0.0003999503
vt -4 2.999
vt 17.4263 -0.0003999503
vt 17.4263 2.999
vt 14.38502 -0.0003999503
vt 14.38502 2.999
vt 23.9999 2.9989
vt 23.9999 -0.0004999668
vt 6.0001 2.9989
vt -23.9999 2.9989
vt -23.9999 -0.0004999668
vt -18.9999 2.9989
vt -18.9999 -0.0004999668
vt 8.9999 2.9989
vt 8.9999 -0.0004999668
vt 18.9999 2.9989
vt 18.9999 -0.0004999668
vt 21.9999 2.9989
vt 21.9999 -0.0004999668
vt -21.9999 2.9989
vt -21.9999 -0.0004999668
vt -16.9999 2.9989
vt -16.9999 -0.0004999668
vt -13.0001 2.9989
vt -13.0001 -0.0004999668
vt -5.9999 2.9989
vt -5.9999 -0.0004999668
vt -15.78189 2.9989
vt -15.78189 -0.0004999668
vt -12.74059 2.9989
vt -12.74059 -0.0004999668
vt 6.5 2.9989
vt 6.5 -0.0004999668
vt 7.9999 2.9989
vt 7.9999 -0.0004999668
vt -14 2.9989
vt -14 -0.0004999668
vt 3.5 -0.0003999503
vt 3.5 2.999
vt 2.0001 -0.0003999503
vt 2.0001 2.999
vt 14.0001 -0.0003999503
vt 14.0001 2.999
vt 10.9999 -0.0003999503
vt 10.9999 2.999
vt -2.0001 -0.0003999503
vt -2.0001 2.999
vt 10.0001 -0.0003999503
vt 10.0001 2.999
vt 7.9999 2.999
vt 10.9999 2.9989
vt -7.9999 2.9989
vt -7.9999 -0.0004999668
vt -10.9999 2.9989
vt -10.9999 -0.0004999668
vt -5.0001 2.9989
vt -5.0001 -0.0004999668
vt -3 2.999
vt -3 -0.0003999503
vt -9.989738E-05 2.999
vt -9.989738E-05 -0.0003999503
vt 5.0001 -0.0003999503
vt 5.0001 2.999
vt -5.00003 2.999
vt 4.99994 2.9989
vt 4.99994 -0.0004999668
vt 13.5 -0.0004999668
vt 13.5 2.9989
vt 6.4999 -0.0004999668
vt 6.4999 2.9989
vt 6.49808 -0.0004999668
vt 6.49808 2.9989
vt 5.99818 -0.0004999668
vt 5.99818 2.9989
vt -8.999949 2.9989
vt -8.999949 -0.0004999668
vt 6.4999 5
vt 6 5.0001
vt 6.4999 8.999949
vt 6 9.000051
vt 9.000051 -0.0004999668
vt 9.000051 2.9989
vt 14.9988 2.9989
vt 14.9988 -0.0004999668
vt 15.4988 2.9989
vt 15.4988 -0.0004999668
vt -13.4999 -0.0004999668
vt -13.4999 2.9989
vt -6.50005 -0.0004999668
vt -6.50005 2.9989
vt -13.4999 15
vt -13.4998 15.5
vt -6.50005 15
vt -6.49995 15.5
vt 13.4998 2.9989
vt 13.4998 -0.0004999668
vt 13.4998 15.5
vt 13.4999 15
vt 6.49995 15.5
vt 6.50005 15
vt -5.99995 15
vt -5.99985 15.5
vt 5.99985 2.9989
vt 5.99985 -0.0004999668
vt 5.99985 15.5
vt 5.99995 15
vt -15 -0.0004999668
vt -15 2.9989
vt 5.99995 10.9999
vt 6.50005 10.9999
vt -6.50005 10.9999
vt -5.99995 10.9999
vt 15 2.9989
vt 15 -0.0004999668
vt 3.0001 2.999
vt 2.5001 -0.0003999503
vt 2.5001 2.999
vt -4.500072 -0.0003999503
vt -4.500072 2.999
vt -9.0001 2.999
vt -9.0001 -0.0003999503
vt 3.0001 5
vt 2.5001 5
vt 3.0001 9.0001
vt 2.5001 9.0001
vt 9.0001 2.999
vt -2.5001 5
vt -3.0001 5
vt -2.5001 9.0001
vt -3.0001 9.0001
vt -15 2.999
vt -15.0006 -0.0003999503
vt -15.0006 2.999
vt -15.5006 -0.0003999503
vt -15.5006 2.999
vt -15.49985 -0.0003999503
vt -15.49985 2.999
vt -18.49985 -0.0003999503
vt -18.49985 2.999
vt 4.5 2.999
vt 4.5 -0.0003999503
vt -2.50005 2.999
vt -2.50005 -0.0003999503
vt -4.5 15
vt -4.50005 15.5
vt 2.50005 15
vt 2.50015 15.5
vt 4.50005 15.5
vt 4.5 15
vt -2.50015 15.5
vt -2.50005 15
vt 3.00005 15
vt 3.00015 15.5
vt -3.00015 15.5
vt -3.00005 15
vt 15 2.999
vt 11 2.999
vt -3.00005 11
vt -2.50005 11
vt 2.50005 11
vt 3.00005 11
vt -11 2.999
vt -18.5006 -0.0003999503
vt -18.5006 2.999
vt -19.0006 -0.0003999503
vt -19.0006 2.999
vt -18.99995 2.999
vt -28.99995 -0.0003999503
vt -28.99995 2.999
vt 4.49995 2.999
vt 4.49995 -0.0003999503
vt -2.49995 2.999
vt -2.49995 -0.0003999503
vt -4.49995 18.5
vt -4.49985 19
vt 2.49995 18.5
vt 2.50005 19
vt -4.49985 -0.0003999503
vt -4.49985 2.999
vt 4.49985 19
vt 4.49995 18.5
vt -2.50005 19
vt -2.49995 18.5
vt 3.00005 18.5
vt 3.00015 19
vt -3.00015 19
vt -3.00005 18.5
vt 19 2.999
vt 23 -0.0003999503
vt 23 2.999
vt 3.00015 23
vt 2.50005 23
vt -2.50005 23
vt -3.00015 23
vt -19 2.999
vt -19 -0.0003999503
vt -23 2.999
vt -23 -0.0003999503
vt -2.495041 -0.0003999503
vt -2.495041 2.999
vt -2.995041 -0.0003999503
vt -2.995041 2.999
vt 29 2.999
vt 29 -0.0003999503
vt 24.99995 2.999
vt 24.99995 -0.0003999503
vt 2.5 29
vt 3 28.9999
vt 2.5 24.99995
vt 3 24.99985
vt -24.99985 -0.0003999503
vt -24.99985 2.999
vt -3 28.9999
vt -2.5 29
vt -3 24.99985
vt -2.5 24.99995
vt -5.99514 -0.0003999503
vt -5.99514 2.999
vt -6.49504 -0.0003999503
vt -6.49504 2.999
vt -6.499589 -0.0003999503
vt -6.499589 2.999
vt -13.49959 2.999
vt 28.9999 2.999
vt 28.9999 -0.0003999503
vt 6.0001 28.9999
vt 6.5 28.9998
vt 6.0001 24.99995
vt 6.5 24.99985
vt -6.5 28.9998
vt -6.0001 28.9999
vt -6.5 24.99985
vt -6.0001 24.99995
vt 19.0012 -0.0003999503
vt 19.0012 2.999
vt 18.5012 -0.0003999503
vt 18.5012 2.999
vt 13.5 2.999
vt 6.499949 2.999
vt 13.5 19
vt 13.4999 18.5
vt 6.499949 19
vt 6.499849 18.5
vt -13.4999 18.5
vt -13.5 19
vt -6.499849 18.5
vt -6.499949 19
vt 5.99995 2.999
vt 5.99995 19
vt 5.99985 18.5
vt -5.99985 2.999
vt -5.99985 18.5
vt -5.99995 19
vt -5.99995 23.0001
vt -6.499949 23.0001
vt 6.499949 23.0001
vt 5.99995 23.0001
vt -29.10965 2.999
vt -29.10965 -0.0003999503
vt -41.76874 2.999
vt -41.76874 -0.0003999503
vt -5 41.5
vt 28.429 -0.0003999503
vt 28.429 2.999
vt 40.96905 -0.0003999503
vt 40.96905 2.999
vt -13.49633 -0.0003999503
vt -13.49633 2.999
vt -13.99633 -0.0003999503
vt -13.99633 2.999
vt 18.49995 2.999
vt 18.49995 -0.0003999503
vt 13.5 28.9997
vt 14 28.9996
vt 13.5 18.49995
vt 14 18.49985
vt -14 28.9996
vt -13.5 28.9997
vt -14 18.49985
vt -13.5 18.49995
vt 13.50313 2.9989
vt 13.50313 -0.0004999668
vt 14.00313 2.9989
vt 14.00313 -0.0004999668
vt 15.49995 -0.0004999668
vt 15.49995 2.9989
vt -13.5 5
vt -14 5.0001
vt -13.5 15.49995
vt -14 15.50005
vt -15.50005 2.9989
vt -15.50005 -0.0004999668
vt 14 5.0001
vt 13.5 5
vt 14 15.50005
vt 13.5 15.49995
vt 15.50013 2.9989
vt 15.50013 -0.0004999668
vt 28.99948 -0.0003999503
vt 28.99948 2.999
vt 17.99987 -0.0003999503
vt 17.99987 2.999
vt -14.0001 2.999
vt -14.9999 -0.0003999503
vt -14.9999 2.999
vt 15.4972 2.9989
vt 15.4972 -0.0004999668
vt 15.9972 2.9989
vt 15.9972 -0.0004999668
vt 14 2.9989
vt 14.9999 2.9989
vt 14.9999 -0.0004999668
vt 15.00069 2.9989
vt 15.00069 -0.0004999668
vt 17.00079 2.9989
vt 17.00079 -0.0004999668
vt -14.99901 -0.0003999503
vt -14.99901 2.999
vt -16.99911 -0.0003999503
vt -16.99911 2.999
vt 17.00027 -0.0004999668
vt 23.00027 2.9989
vt -17.9999 -0.0003999503
vt -17.9999 2.999
vt -21 -0.0003999503
vt -21 2.999
vt 17 2.999
vt -24.0001 -0.0003999503
vt -24.0001 2.999
vt -25 -0.0003999503
vt -25 2.999
vt 18.99916 2.9989
vt 18.99916 -0.0004999668
vt 20.99906 2.9989
vt 20.99906 -0.0004999668
vt 21.4999 2.9989
vt 21.4999 -0.0004999668
vt -21 2.9989
vt -19.0001 2.9989
vt -21.4999 2.9989
vt -21.4999 -0.0004999668
vt 24.0001 -0.0003999503
vt 24.0001 2.999
vt 16 -0.0003999503
vt 16 2.999
vt 21.9999 2.999
vt -16.0002 2.9989
vt -16.0002 -0.0004999668
vt -23 2.9989
vt -4.999901 2.9989
vt -4.999901 -0.0004999668

vn 0 0 -1
vn -1 0 0
vn 1 0 0
vn 0 0 1
vn 0.9863931 0 0.1644043
vn -0.9863877 0 0.1644363
vn 0 -1 0
vn 0 1 0
vn 0 0 0
vn 0.9874408 0 -0.1579893
vn 0 0.5 0
vn -0.9968147 0 -0.07975253

g Wall_00
usemtl ProBuilderDefault
f 4/4/1 3/3/1 1/1/1 2/2/1
f 6/6/1 4/4/1 2/2/1 5/5/1
f 10/8/1 9/6/1 7/5/1 8/7/1
f 9/12/2 6/11/2 5/9/2 7/10/2
f 12/4/3 10/3/3 8/13/3 11/2/3
f 14/15/3 12/4/3 11/2/3 13/14/3
f 16/17/3 14/15/3 13/14/3 15/16/3
f 18/21/4 16/20/4 15/18/4 17/19/4
f 20/25/2 18/24/2 17/22/2 19/23/2
f 22/11/4 20/21/4 19/19/4 21/9/4
f 24/27/3 22/15/3 21/14/3 23/26/3
f 26/30/4 25/29/4 24/11/4 23/28/4
f 28/32/2 27/31/2 1/28/2 3/11/2
f 30/15/3 29/35/3 27/33/3 28/34/3
f 34/35/3 33/38/3 31/36/3 32/37/3
f 36/42/1 35/41/1 32/39/1 31/40/1
f 38/45/2 37/44/2 35/28/2 36/43/2
f 40/47/3 39/46/3 25/27/3 26/26/3
f 42/49/4 41/48/4 39/29/4 40/30/4
f 44/51/1 43/50/1 37/41/1 38/42/1
f 46/55/5 45/54/5 43/52/5 44/53/5
f 48/57/3 47/56/3 41/46/3 42/47/3
f 50/37/4 49/58/4 47/48/4 48/49/4
f 52/62/2 51/61/2 49/59/2 50/60/2
f 54/64/4 53/63/4 51/58/4 52/37/4
f 56/68/3 55/67/3 53/65/3 54/66/3
f 58/26/4 57/27/4 55/63/4 56/64/4
f 60/72/2 59/71/2 57/69/2 58/70/2
f 62/76/1 61/75/1 59/73/1 60/74/1
f 64/80/6 63/79/6 61/77/6 62/78/6
f 66/84/4 65/83/4 63/81/4 64/82/4
f 68/31/2 67/32/2 65/85/2 66/86/2
f 70/90/4 69/89/4 45/87/4 46/88/4
f 72/94/3 71/93/3 69/91/3 70/92/3
f 74/43/1 73/28/1 71/95/1 72/96/1
f 76/98/3 75/97/3 73/93/3 74/94/3
f 78/90/4 77/89/4 75/37/4 76/36/4
f 80/99/3 79/84/3 77/97/3 78/98/3
f 82/93/4 81/100/4 67/83/4 68/84/4
f 84/102/2 83/101/2 81/32/2 82/31/2
f 86/28/1 85/11/1 83/103/1 84/104/1
f 88/106/2 87/105/2 85/101/2 86/102/2
f 92/110/1 91/109/1 89/107/1 90/108/1
f 94/35/3 93/38/3 91/36/3 92/37/3
f 96/109/4 95/110/4 79/89/4 80/90/4
f 98/112/3 97/111/3 90/37/3 89/36/3
f 100/113/3 99/106/3 97/111/3 98/112/3
f 102/115/2 101/114/2 87/105/2 88/106/2
f 106/119/4 105/118/4 103/116/4 104/117/4
f 110/123/4 109/122/4 107/120/4 108/121/4
f 108/124/3 107/125/3 105/106/3 106/105/3
f 107/128/7 109/129/7 111/127/7 105/126/7
f 109/130/2 110/131/2 112/4/2 111/111/2
f 116/135/2 115/134/2 113/132/2 114/133/2
f 119/138/1 120/139/1 118/137/1 117/136/1
f 120/142/8 122/143/8 121/141/8 118/140/8
f 122/119/4 124/118/4 123/145/4 121/144/4
f 124/148/7 119/149/7 117/147/7 123/146/7
f 127/76/1 128/75/1 126/139/1 125/138/1
f 113/150/8 115/151/8 122/143/8 120/142/8
f 115/152/4 116/153/4 124/118/4 122/119/4
f 116/154/7 114/155/7 119/149/7 124/148/7
f 125/104/3 126/103/3 120/157/3 119/156/3
f 127/158/7 125/159/7 119/149/7 114/155/7
f 126/160/8 128/161/8 113/150/8 120/142/8
f 128/100/2 127/93/2 114/163/2 113/162/2
f 132/166/4 131/165/4 129/1/4 130/164/4
f 136/168/4 135/167/4 133/165/4 134/166/4
f 130/169/3 129/170/3 99/106/3 100/113/3
f 129/173/7 131/174/7 133/172/7 99/171/7
f 131/130/2 132/175/2 134/112/2 133/111/2
f 132/178/8 130/179/8 100/177/8 134/176/8
f 138/180/3 137/156/3 135/106/3 136/113/3
f 142/184/3 141/183/3 139/181/3 140/182/3
f 146/188/3 145/187/3 143/185/3 144/186/3
f 147/191/1 148/192/1 137/190/1 138/189/1
f 148/195/7 149/196/7 143/194/7 137/193/7
f 149/165/4 150/166/4 144/168/4 143/167/4
f 150/199/8 147/200/8 138/198/8 144/197/8
f 153/107/1 154/108/1 152/192/1 151/191/1
f 139/201/7 141/202/7 149/196/7 148/195/7
f 141/1/4 142/164/4 150/166/4 149/165/4
f 142/203/8 140/204/8 147/200/8 150/199/8
f 151/206/2 152/33/2 148/163/2 147/205/2
f 153/207/8 151/208/8 147/200/8 140/204/8
f 152/209/7 154/210/7 139/201/7 148/195/7
f 154/31/3 153/211/3 140/180/3 139/156/3
f 158/215/3 157/214/3 155/212/3 156/213/3
f 162/218/3 161/217/3 159/62/3 160/216/3
f 163/221/1 164/222/1 145/220/1 146/219/1
f 164/225/7 165/226/7 159/224/7 145/223/7
f 165/165/4 166/166/4 160/228/4 159/227/4
f 166/231/8 163/232/8 146/230/8 160/229/8
f 156/107/1 155/108/1 164/222/1 163/221/1
f 155/233/7 157/234/7 165/226/7 164/225/7
f 169/1/4 170/164/4 168/166/4 167/165/4
f 158/235/8 156/236/8 163/232/8 166/231/8
f 167/238/2 168/239/2 166/237/2 165/47/2
f 169/240/7 167/241/7 165/226/7 157/234/7
f 168/242/8 170/243/8 158/235/8 166/231/8
f 170/246/3 169/247/3 157/245/3 158/244/3
f 172/191/1 171/192/1 161/220/1 162/219/1
f 176/251/1 175/250/1 173/248/1 174/249/1
f 174/254/2 173/255/2 171/253/2 172/252/2
f 173/258/7 175/259/7 177/257/7 171/256/7
f 175/260/3 176/261/3 178/218/3 177/217/3
f 176/264/8 174/265/8 172/263/8 178/262/8
f 180/110/9 179/110/9 179/110/9 180/110/9
f 184/269/1 183/268/1 181/266/1 182/267/1
f 188/272/1 187/136/1 185/270/1 186/271/1
f 182/254/2 181/255/2 190/274/2 189/273/2
f 181/277/7 183/278/7 185/276/7 190/275/7
f 183/260/3 184/261/3 186/218/3 185/217/3
f 184/281/8 182/282/8 189/280/8 186/279/8
f 194/286/2 193/285/2 191/283/2 192/284/2
f 197/288/4 198/118/4 196/116/4 195/287/4
f 198/291/7 200/292/7 199/290/7 196/289/7
f 200/270/1 202/271/1 201/272/1 199/136/1
f 202/295/8 197/296/8 195/294/8 201/293/8
f 205/297/4 206/153/4 204/118/4 203/288/4
f 191/298/7 193/299/7 200/292/7 198/291/7
f 193/76/1 194/300/1 202/271/1 200/270/1
f 194/301/8 192/302/8 197/296/8 202/295/8
f 203/246/3 204/247/3 198/245/3 197/244/3
f 205/303/8 203/304/8 197/296/8 192/302/8
f 204/305/7 206/306/7 191/298/7 198/291/7
f 206/238/2 205/239/2 192/237/2 191/47/2
f 180/309/10 179/310/10 177/308/10 178/307/10
f 179/311/11 179/311/9 190/280/11 177/262/8
f 179/314/12 180/315/12 189/313/12 190/312/12
f 210/319/1 209/318/1 207/316/1 208/317/1
f 208/320/2 207/321/2 187/274/2 188/273/2
f 207/324/7 209/325/7 211/323/7 187/322/7
f 209/187/3 210/188/3 212/218/3 211/217/3
f 210/328/8 208/329/8 188/327/8 212/326/8
f 216/333/4 215/332/4 213/330/4 214/331/4
f 214/334/2 213/335/2 104/4/2 103/111/2
f 213/338/8 215/339/8 217/337/8 104/336/8
f 215/340/3 216/341/3 218/106/3 217/105/3
f 216/344/7 214/345/7 103/343/7 218/342/7
f 216/347/2 215/346/2 217/4/2 218/111/2
f 220/351/2 219/350/2 211/348/2 212/349/2
f 222/354/1 221/353/1 219/86/1 220/352/1
f 224/358/2 223/357/2 215/355/2 216/356/2
f 226/361/4 225/360/4 223/359/4 224/91/4
f 228/365/4 227/364/4 225/362/4 226/363/4
f 230/369/1 229/368/1 221/366/1 222/367/1
f 232/238/4 231/371/4 227/8/4 228/370/4
f 234/375/3 233/374/3 229/372/3 230/373/3
f 236/205/4 235/163/4 233/370/4 234/376/4
f 238/378/3 237/377/3 235/374/3 236/375/3
f 240/380/1 239/379/1 237/156/1 238/180/1
f 244/384/2 243/383/2 241/381/2 242/382/2
f 246/386/4 245/385/4 243/65/4 244/66/4
f 248/245/3 247/388/3 245/387/3 246/374/3
f 242/245/1 241/388/1 247/389/1 248/390/1
f 250/394/2 249/393/2 239/391/2 240/392/2
f 254/112/2 253/111/2 251/393/2 252/394/2
f 256/395/4 255/68/4 253/255/4 254/254/4
f 258/341/3 257/340/3 231/396/3 232/397/3
f 216/86/1 215/85/1 257/398/1 258/247/1
f 260/400/3 259/399/3 215/340/3 216/341/3
f 262/47/4 261/46/4 259/359/4 260/91/4

