# ProBuilder 4.0.5
# https://unity3d.com/unity/features/worldbuilding/probuilder
# 2020/01/22 9:51:29

mtllib ./Level1_floor_02.mtl
o Level1_floor_02

g Level1_floor_02
v 57.5 2.5 48.5001
v 55.4 2.5 48.5001
v 57.5 5.2 48.5001
v 55.4 5.2 48.5001
v 55.4 2.5 40.9
v 57.5 2.5 40.9
v 55.4 5.2 40.9
v 57.5 5.2 40.9
v 67.5001 2.5 40.9
v 67.5001 2.5 43
v 67.5001 5.2 40.9
v 67.5001 5.2 43
v 57.5 2.5 43
v 55.4 2.5 43
v 57.5 2.5 45.0001
v 55.4 2.5 45.0001
v 57.5 5.2 43
v 57.5 5.2 45.0001
v 55.4 5.2 43
v 55.4 5.2 45.0001
v 63.5001 5.2 45.0001
v 63.5001 2.5 45.0001
v 63.5001 2.5 48.5001
v 63.5001 5.2 48.5001
v 63.5001 2.5 40.9
v 63.5001 2.5 43
v 63.5001 5.2 40.9
v 63.5001 5.2 43
v 63.5001 5.2 29.4999
v 63.5001 2.5 29.4999
v 67.5001 5.2 29.4999
v 67.5001 2.5 29.4999
v 67.5001 2.5 48.5001
v 67.5001 5.2 48.5001
v 63.5001 5.2 36.4999
v 63.5001 2.5 36.4999
v 67.5001 2.5 36.4999
v 80.0001 2.5 40.9
v 80.0001 5.2 40.9
v 80.0001 2.5 36.4999
v 80.0001 5.2 36.4999
v 74.5001 2.5 40.9
v 74.5001 5.2 40.9
v 74.5001 2.5 36.4999
v 74.5001 5.2 16.4999
v 74.5001 2.5 16.4999
v 80.0001 5.2 16.4999
v 80.0001 2.5 16.4999
v 74.5001 5.2 36.4999
v 74.5001 5.2 29.4999
v 74.5001 2.5 29.4999
v 80.0001 2.5 29.4999
v 80.0001 5.2 29.4999
v 63.4999 5.2 29.4999
v 63.4999 2.5 29.4999
v 63.4999 5.2 23.4999
v 63.4999 2.5 23.4999
v 74.5001 2.5 23.4999
v 80.0001 2.5 23.4999
v 80.0001 5.2 23.4999
v 67.4999 5.2 29.4999
v 67.4999 2.5 29.4999
v 67.4999 2.5 23.4999
v 74.5001 5.2 23.4999
v 67.4999 5.2 23.4999
v 67.4999 2.5 16.4999
v 67.4999 5.2 16.4999
v 63.4999 2.5 16.4999
v 63.4999 5.2 16.4999
v 67.5001 5.2 36.4999
v 85.0001 2.5 23.4999
v 85.0001 5.2 23.4999
v 85.0001 2.5 16.4999
v 85.0001 5.2 16.4999
v 68.1001 5.2 36.4999
v 68.1001 2.5 36.4999
v 68.1001 5.2 29.4999
v 68.1001 2.5 29.4999
v 74.0001 2.5 36.4999
v 74.0001 5.2 36.4999
v 74.0001 2.5 29.4999
v 74.0001 5.2 29.4999
v 67.4999 2.5 19.4999
v 67.4999 5.2 19.4999
v 63.4999 2.5 19.4999
v 63.4999 5.2 19.4999
v 74.5001 2.5 19.4999
v 74.5001 5.2 19.4999
v 67.6001 5.2 29.4999
v 67.6001 2.5 29.4999
v 67.6001 2.5 36.4999
v 67.6001 5.2 36.4999
v 85 2.5 17.99069
v 85 5.2 17.99069
v 85 5.2 22.00911
v 85 2.5 22.00911

vt -1 -0.0999999
vt 1.099998 -0.0999999
vt -1 2.6
vt 1.099998 2.6
vt -1.100001 -0.1
vt 0.9999992 -0.0999999
vt -1.100001 2.6
vt 0.9999992 2.6
vt -1.099998 -0.0999999
vt 1 -0.0999999
vt -1.099998 2.6
vt 1 2.6
vt -1 -1.099998
vt 1.1 -1.1
vt -1 1
vt 1.099998 1
vt -1 3.000099
vt 1.099998 3.000099
vt 3.000099 2.6
vt 3.000099 -0.0999999
vt -3.000099 -0.0999999
vt -3.000099 2.6
vt -1 6.500099
vt 1.099998 6.500099
vt -6.500099 -0.0999999
vt -6.500099 2.6
vt 7.000099 2.6
vt 7.000099 -0.0999999
vt -7.000099 3.000099
vt -7.000099 6.500099
vt -7.000099 -0.0999999
vt -7.000099 2.6
vt -7.000099 -1.099998
vt -7.000099 1
vt -11.0001 -1.099998
vt -11.0001 1
vt 11.0001 2.6
vt 11.0001 -0.0999999
vt -11.0001 -0.0999999
vt -11.0001 2.6
vt -11.0001 6.500099
vt 6.500099 2.6
vt 6.500099 -0.0999999
vt 5.500099 2.6
vt 5.500099 -0.0999999
vt -7.000099 -5.500099
vt -11.0001 -5.500099
vt -5.500099 -0.0999999
vt -5.500099 2.6
vt -18.0001 -0.0999999
vt -18.0001 2.6
vt -18.0001 -5.500099
vt -18.0001 -1.099998
vt -23.5001 -0.0999999
vt -23.5001 2.6
vt -23.5001 -5.500099
vt -23.5001 -1.099998
vt 18.0001 2.6
vt 18.0001 -0.0999999
vt 23.5001 2.6
vt 23.5001 -0.0999999
vt 12.5001 2.6
vt 12.5001 -0.0999999
vt -18.0001 -12.5001
vt -23.5001 -12.5001
vt -12.5001 -0.0999999
vt -12.5001 2.6
vt 18.5001 2.6
vt 18.5001 -0.0999999
vt -18.0001 -18.5001
vt -23.5001 -18.5001
vt -18.5001 -0.0999999
vt -18.5001 2.6
vt -10.9999 2.6
vt -10.9999 -0.0999999
vt -10.9999 -12.5001
vt -10.9999 -18.5001
vt 10.9999 -0.0999999
vt 10.9999 2.6
vt -6.999901 2.6
vt -6.999901 -0.0999999
vt -6.999901 -12.5001
vt -6.999901 -18.5001
vt 6.999901 -0.0999999
vt 6.999901 2.6
vt -7.000099 -12.5001
vt -11.0001 -12.5001
vt 25.5001 2.6
vt 25.5001 -0.0999999
vt -18.0001 -25.5001
vt -23.5001 -25.5001
vt -28.5001 -0.0999999
vt -28.5001 2.6
vt -28.5001 -25.5001
vt -28.5001 -18.5001
vt 28.5001 2.6
vt 28.5001 -0.0999999
vt 18.0001 -5.500099
vt 11.0001 -5.500099
vt 18.0001 -12.5001
vt 11.0001 -12.5001
vt -22.5001 -0.0999999
vt -22.5001 2.6
vt -6.999901 -22.5001
vt -10.9999 -22.5001
vt 22.5001 2.6
vt 22.5001 -0.0999999
vt -25.5001 -0.0999999
vt -25.5001 2.6
vt -6.999901 -25.5001
vt -10.9999 -25.5001
vt -18.0001 -22.5001
vt -11.1001 2.6
vt -11.1001 -0.0999999
vt 11.1001 -12.5001
vt 11.1001 -5.500099
vt 11.1001 -0.0999999
vt 11.1001 2.6
vt -11.1001 -5.500099
vt -11.1001 -12.5001
vt -11.6001 2.6
vt -11.6001 -0.0999999
vt 11.6001 -12.5001
vt 11.6001 -5.500099
vt 11.6001 -0.0999999
vt 11.6001 2.6
vt -11.6001 -5.500099
vt -11.6001 -12.5001
vt -17.5001 -0.0999999
vt -17.5001 2.6
vt -17.5001 -12.5001
vt -17.5001 -5.500099
vt 17.5001 2.6
vt 17.5001 -0.0999999
vt 17.5001 -5.500099
vt 17.5001 -12.5001
vt -25.502 -0.0999999
vt -25.502 2.6
vt -24.01121 -0.0999999
vt -24.01121 2.6
vt -28.5 -24.00931
vt -28.5 -19.99089
vt -18.4982 2.6
vt -18.4982 -0.0999999
vt -19.98899 2.6
vt -19.98899 -0.0999999
vt 28.5001 -18.5001
vt 28.5001 -25.5001
vt 28.5 -19.99089
vt 28.5 -24.00931

vn 0 0 -1
vn -7.379624E-07 0 1
vn -1 0 0
vn -4.612264E-08 1 0
vn 1 0 0
vn 0 -1 0

g Level1_floor_02
usemtl ProBuilderDefault
f 1/1/1 2/2/1 4/4/1 3/3/1
f 5/5/2 6/6/2 8/8/2 7/7/2
f 9/9/3 10/10/3 12/12/3 11/11/3
f 6/13/4 5/14/4 14/16/4 13/15/4
f 13/15/4 14/16/4 16/18/4 15/17/4
f 17/12/3 13/10/3 15/20/3 18/19/3
f 14/1/5 19/3/5 20/22/5 16/21/5
f 15/17/4 16/18/4 2/24/4 1/23/4
f 16/21/5 20/22/5 4/26/5 2/25/5
f 18/12/2 15/10/2 22/28/2 21/27/2
f 15/17/4 1/23/4 23/30/4 22/29/4
f 1/1/1 3/3/1 24/32/1 23/31/1
f 6/13/4 13/15/4 26/34/4 25/33/4
f 8/12/2 6/10/2 25/28/2 27/27/2
f 13/1/1 17/3/1 28/32/1 26/31/1
f 25/33/4 26/34/4 10/36/4 9/35/4
f 29/27/2 30/28/2 32/38/2 31/37/2
f 23/31/1 24/32/1 34/40/1 33/39/1
f 26/1/5 28/3/5 24/26/5 23/25/5
f 10/36/4 26/34/4 23/30/4 33/41/4
f 12/12/3 10/10/3 33/43/3 34/42/3
f 27/4/5 25/2/5 36/45/5 35/44/5
f 25/33/4 9/35/4 37/47/4 36/46/4
f 38/9/3 39/11/3 41/49/3 40/48/3
f 9/39/1 11/40/1 43/51/1 42/50/1
f 37/47/4 9/35/4 42/53/4 44/52/4
f 42/50/1 43/51/1 39/55/1 38/54/1
f 44/52/4 42/53/4 38/57/4 40/56/4
f 45/58/2 46/59/2 48/61/2 47/60/2
f 49/44/5 44/45/5 51/63/5 50/62/5
f 44/52/4 40/56/4 52/65/4 51/64/4
f 40/48/3 41/49/3 53/67/3 52/66/3
f 54/62/5 55/63/5 57/69/5 56/68/5
f 51/64/4 52/65/4 59/71/4 58/70/4
f 52/66/3 53/67/3 60/73/3 59/72/3
f 50/51/1 51/50/1 62/75/1 61/74/1
f 51/64/4 58/70/4 63/77/4 62/76/4
f 58/59/2 64/58/2 65/79/2 63/78/2
f 61/74/1 62/75/1 55/81/1 54/80/1
f 62/76/4 63/77/4 57/83/4 55/82/4
f 66/78/2 67/79/2 69/85/2 68/84/2
f 35/44/5 36/45/5 30/63/5 29/62/5
f 36/46/4 37/47/4 32/87/4 30/86/4
f 37/48/3 70/49/3 31/67/3 32/66/3
f 64/68/5 58/69/5 46/89/5 45/88/5
f 58/70/4 59/71/4 48/91/4 46/90/4
f 59/54/1 60/55/1 72/93/1 71/92/1
f 48/91/4 59/71/4 71/95/4 73/94/4
f 47/60/2 48/61/2 73/97/2 74/96/2
f 75/44/5 76/45/5 78/63/5 77/62/5
f 49/98/6 70/99/6 31/101/6 50/100/6
f 37/47/4 44/52/4 51/64/4 32/87/4
f 79/48/3 80/49/3 82/67/3 81/66/3
f 63/72/3 65/73/3 84/103/3 83/102/3
f 57/83/4 63/77/4 83/105/4 85/104/4
f 56/68/5 57/69/5 85/107/5 86/106/5
f 87/102/3 88/103/3 45/109/3 46/108/3
f 85/104/4 83/105/4 66/111/4 68/110/4
f 86/106/5 85/107/5 68/89/5 69/88/5
f 83/75/1 84/74/1 88/51/1 87/50/1
f 66/111/4 83/105/4 87/112/4 46/90/4
f 67/79/2 66/78/2 46/59/2 45/58/2
f 89/113/1 90/114/1 32/39/1 31/40/1
f 90/115/6 91/116/6 37/99/6 32/101/6
f 91/117/2 92/118/2 70/37/2 37/38/2
f 92/119/4 89/120/4 31/87/4 70/47/4
f 77/121/1 78/122/1 90/114/1 89/113/1
f 78/123/6 76/124/6 91/116/6 90/115/6
f 76/125/2 75/126/2 92/118/2 91/117/2
f 75/127/4 77/128/4 89/120/4 92/119/4
f 81/129/1 82/130/1 50/51/1 51/50/1
f 82/131/4 80/132/4 49/52/4 50/64/4
f 80/133/2 79/134/2 44/59/2 49/58/2
f 79/135/6 81/136/6 51/100/6 44/98/6
f 93/139/3 94/140/3 74/138/3 73/137/3
f 94/141/4 95/142/4 72/95/4 74/94/4
f 95/145/3 96/146/3 71/144/3 72/143/3
f 96/149/6 93/150/6 73/148/6 71/147/6

