# ProBuilder 4.0.5
# https://unity3d.com/unity/features/worldbuilding/probuilder
# 2020/01/21 18:30:21

mtllib ./Level1_floor.mtl
o Level1_floor

g Level1_floor
v 45.003 2.5167 15.57505
v 42.792 2.5167 15.57505
v 45.003 5.0357 15.57505
v 42.792 5.0357 15.57505
v 42.792 2.5167 8.27495
v 44.903 2.5167 8.27495
v 42.792 5.0357 8.27495
v 44.903 5.0357 8.27495
v 44.903 2.5167 13.27495
v 44.903 5.0357 13.27495
v 45.003 2.6167 8.17495
v 42.692 2.6167 8.17495
v 45.003 2.6167 13.17495
v 42.692 2.6167 13.17495
v 45.003 2.6167 15.67505
v 42.692 2.6167 15.67505
v 50.4031 5.0357 13.27495
v 50.4031 2.5167 13.27495
v 50.4031 5.0357 15.67505
v 50.4031 2.5167 15.67505
v 42.792 2.5167 13.17495
v 42.792 5.0357 13.17495
v 47.5031 5.0357 13.27495
v 47.5031 2.5167 13.27495
v 47.5031 2.6167 13.17495
v 47.5031 2.6167 15.67505
v 47.6031 2.5167 15.57505
v 47.6031 5.0357 15.57505
v 50.5031 2.6167 13.17495
v 50.5031 2.6167 15.67505
v 47.5031 2.5167 20.57505
v 47.5031 5.0357 20.57505
v 50.4031 2.5167 20.57505
v 50.4031 5.0357 20.57505
v 47.6031 2.5167 18.27505
v 47.6031 5.0357 18.27505
v 50.5031 2.6167 18.17505
v 47.5031 2.6167 18.17505
v 42.6029 2.5167 18.27505
v 42.6029 5.0357 18.27505
v 42.6029 2.5167 20.67505
v 42.6029 5.0357 20.67505
v 50.5031 2.6167 20.67505
v 47.5031 2.6167 20.67505
v 45.0029 2.5167 18.27505
v 45.0029 5.0357 18.27505
v 45.0029 2.6167 20.67505
v 45.0029 2.6167 18.17505
v 44.9029 5.0357 20.57505
v 44.9029 2.5167 20.57505
v 42.5029 2.6167 20.67505
v 42.5029 2.6167 18.17505
v 45.0029 5.0357 30.57505
v 45.0029 2.5167 30.57505
v 42.6029 5.0357 30.57505
v 42.6029 2.5167 30.57505
v 44.9029 5.0357 23.77505
v 44.9029 2.5167 23.77505
v 45.0029 2.6167 23.67505
v 42.5029 2.6167 23.67505
v 42.6029 2.5167 23.67505
v 42.6029 5.0357 23.67505
v 52.4031 5.0357 23.77505
v 52.4031 2.5167 23.77505
v 52.4031 5.0357 25.67505
v 52.4031 2.5167 25.67505
v 45.0029 2.6167 25.67505
v 42.5029 2.6167 25.67505
v 42.6029 2.5167 25.67505
v 42.6029 5.0357 25.67505
v 44.9029 5.0357 25.57505
v 44.9029 2.5167 25.57505
v 44.9029 5.0357 28.27505
v 44.9029 2.5167 28.27505
v 45.0029 2.6167 28.17505
v 42.5029 2.6167 28.17505
v 42.6029 2.5167 28.17505
v 42.6029 5.0357 28.17505
v 52.4031 5.0357 28.27505
v 52.4031 2.5167 28.27505
v 52.4031 5.0357 30.77505
v 52.4031 2.5167 30.77505
v 45.0029 2.6167 30.67505
v 42.5029 2.6167 30.67505
v 49.0031 5.0357 23.77505
v 49.0031 2.5167 23.77505
v 49.0031 2.6167 23.67505
v 49.0031 2.6167 25.67505
v 52.5031 2.6167 23.67505
v 52.5031 2.6167 25.67505
v 49.1031 2.5167 28.07505
v 49.1031 5.0357 28.07505
v 52.4031 2.5167 28.07505
v 52.4031 5.0357 28.07505
v 49.1031 2.5167 25.57505
v 49.1031 5.0357 25.57505
v 52.5031 2.6167 28.17505
v 49.0031 2.6167 28.17505
v 49.0031 2.6167 30.67505
v 49.1031 2.5167 30.57505
v 49.1031 5.0357 30.57505
v 49.0031 5.0357 28.27505
v 49.0031 2.5167 28.27505
v 52.5031 2.6167 30.67505
v 49.1031 2.5167 33.07505
v 49.1031 5.0357 33.07505
v 52.6031 2.5167 33.07505
v 52.6031 5.0357 33.07505
v 52.5031 2.6167 33.17505
v 49.0031 2.6167 33.17505
v 59.9031 5.0357 30.77505
v 59.9031 2.5167 30.77505
v 59.9031 5.0357 33.07505
v 59.9031 2.5167 33.07505
v 55.5031 5.0357 30.77505
v 55.5031 2.5167 30.77505
v 55.5031 2.6167 30.67505
v 55.5031 2.6167 33.17505
v 52.6031 2.5167 43.07505
v 52.6031 5.0357 43.07505
v 55.4031 2.5167 43.07505
v 55.4031 5.0357 43.07505
v 60.0031 2.6167 30.67505
v 60.0031 2.6167 33.17505
v 55.4031 2.5167 33.07505
v 55.4031 5.0357 33.07505
v 52.6031 2.5167 36.17505
v 52.6031 5.0357 36.17505
v 55.5031 2.6167 36.17505
v 52.5031 2.6167 36.17505
v 55.4031 5.0357 36.17505
v 55.4031 2.5167 36.17505
v 55.5031 2.6167 43.17505
v 52.5031 2.6167 43.17505
v 45.003 5.0357 8.17495
v 45.003 5.0357 13.17495
v 47.5031 5.0357 13.17495
v 45.003 2.5167 13.17495
v 45.003 2.5167 8.17495
v 42.692 2.5167 8.17495
v 50.5031 5.0357 13.17495
v 47.5031 2.5167 13.17495
v 50.5031 5.0357 15.67505
v 50.5031 2.5167 13.17495
v 50.5031 5.0357 18.17505
v 50.4031 5.0357 18.17505
v 50.5031 2.5167 15.67505
v 50.5031 5.0357 20.67505
v 50.5031 2.5167 18.17505
v 50.4031 2.5167 18.17505
v 47.5031 5.0357 20.67505
v 50.5031 2.5167 20.67505
v 45.0029 5.0357 20.67505
v 47.5031 2.5167 20.67505
v 45.0029 5.0357 23.67505
v 45.0029 2.5167 20.67505
v 49.0031 5.0357 23.67505
v 45.0029 2.5167 23.67505
v 52.5031 5.0357 23.67505
v 49.0031 2.5167 23.67505
v 52.5031 5.0357 25.67505
v 52.5031 2.5167 23.67505
v 52.5031 5.0357 28.17505
v 52.5031 2.5167 25.67505
v 49.0031 5.0357 28.17505
v 52.5031 2.5167 28.17505
v 49.0031 5.0357 25.67505
v 49.0031 2.5167 28.17505
v 45.0029 5.0357 25.67505
v 49.0031 2.5167 25.67505
v 45.0029 5.0357 28.17505
v 45.0029 2.5167 25.67505
v 45.0029 2.5167 28.17505
v 52.5031 5.0357 30.67505
v 55.5031 5.0357 30.67505
v 52.5031 2.5167 30.67505
v 60.0031 5.0357 30.67505
v 55.5031 2.5167 30.67505
v 60.0031 5.0357 33.17505
v 60.0031 2.5167 30.67505
v 55.5031 5.0357 33.17505
v 60.0031 2.5167 33.17505
v 55.5031 5.0357 36.17505
v 55.5031 2.5167 33.17505
v 55.5031 5.0357 43.17505
v 55.5031 2.5167 36.17505
v 52.5031 5.0357 43.17505
v 55.5031 2.5167 43.17505
v 52.5031 5.0357 36.17505
v 52.5031 2.5167 43.17505
v 52.5031 5.0357 33.17505
v 52.5031 2.5167 36.17505
v 49.0031 5.0357 33.17505
v 52.5031 2.5167 33.17505
v 49.0031 5.0357 30.67505
v 49.0031 2.5167 33.17505
v 45.0029 5.0357 30.67505
v 49.0031 2.5167 30.67505
v 42.5029 5.0357 30.67505
v 45.0029 2.5167 30.67505
v 42.5029 5.0357 28.17505
v 42.5029 2.5167 30.67505
v 42.5029 5.0357 25.67505
v 42.5029 2.5167 28.17505
v 42.5029 5.0357 23.67505
v 42.5029 2.5167 25.67505
v 42.5029 5.0357 20.67505
v 42.5029 2.5167 23.67505
v 42.5029 5.0357 18.17505
v 42.5029 2.5167 20.67505
v 45.0029 5.0357 18.17505
v 42.5029 2.5167 18.17505
v 47.5031 5.0357 18.17505
v 45.0029 2.5167 18.17505
v 47.5031 5.0357 15.67505
v 47.5031 2.5167 18.17505
v 45.003 5.0357 15.67505
v 47.5031 2.5167 15.67505
v 42.692 5.0357 8.17495
v 45.003 2.5167 15.67505
v 42.692 5.0357 15.67505
v 42.692 5.0357 13.17495
v 42.692 2.5167 15.67505
v 42.692 2.5167 13.17495

vt 6.25 -1.2595
vt 8.461 -1.2595
vt 6.25 1.2595
vt 8.461 1.2595
vt -8.461 -1.2595
vt -6.35 -1.2595
vt -8.461 1.2595
vt -6.35 1.2595
vt -17.40005 -1.2595
vt -12.40005 -1.2595
vt -17.40005 1.2595
vt -12.40005 1.2595
vt 6.25 -17.50005
vt 8.561001 -17.50005
vt 6.25 -12.50005
vt 8.561001 -12.50005
vt 6.25 -9.999949
vt 8.561001 -9.999949
vt -9.999949 1.2595
vt -9.999949 -1.2595
vt 12.50005 -1.2595
vt 12.50005 1.2595
vt 10.09995 -1.2595
vt 10.09995 1.2595
vt -3.749901 1.2595
vt -3.749901 -1.2595
vt 3.749901 -12.50005
vt 3.749901 -9.999949
vt 3.649901 -1.2595
vt 3.649901 1.2595
vt -0.8499008 1.2595
vt -0.8499008 -1.2595
vt 0.7499008 -12.50005
vt 0.7499008 -9.999949
vt 3.749901 -1.2595
vt 3.749901 1.2595
vt 0.8499008 -1.2595
vt 0.8499008 1.2595
vt 7.399951 -1.2595
vt 7.399951 1.2595
vt 0.7499008 -7.49995
vt 3.749901 -7.49995
vt 4.99995 -1.2595
vt 4.99995 1.2595
vt 0.7499008 -4.99995
vt 3.749901 -4.99995
vt -3.649901 -1.2595
vt -3.649901 1.2595
vt -6.250099 -1.2595
vt -6.250099 1.2595
vt 6.250099 -4.99995
vt 6.250099 -7.49995
vt 6.350099 1.2595
vt 6.350099 -1.2595
vt -8.650099 -1.2595
vt -8.650099 1.2595
vt 8.750099 -4.99995
vt 8.750099 -7.49995
vt 8.650099 1.2595
vt 8.650099 -1.2595
vt -5.09995 1.2595
vt -5.09995 -1.2595
vt -1.89995 1.2595
vt -1.89995 -1.2595
vt 6.250099 -1.99995
vt 8.750099 -1.99995
vt 1.99995 -1.2595
vt 1.99995 1.2595
vt 4.959106E-05 1.2595
vt 4.959106E-05 -1.2595
vt 6.250099 4.959106E-05
vt 8.750099 4.959106E-05
vt -0.09995041 1.2595
vt -0.09995041 -1.2595
vt 2.600049 1.2595
vt 2.600049 -1.2595
vt 6.250099 2.50005
vt 8.750099 2.50005
vt -2.50005 -1.2595
vt -2.50005 1.2595
vt 5.100049 1.2595
vt 5.100049 -1.2595
vt 6.250099 5.00005
vt 8.750099 5.00005
vt -4.90005 -1.2595
vt -4.90005 1.2595
vt -6.350099 1.2595
vt -6.350099 -1.2595
vt -2.249901 1.2595
vt -2.249901 -1.2595
vt 2.249901 -1.99995
vt 2.249901 4.959106E-05
vt 1.150099 1.2595
vt 1.150099 -1.2595
vt -1.250099 -1.99995
vt -1.250099 4.959106E-05
vt 2.149901 -1.2595
vt 2.149901 1.2595
vt -1.150099 -1.2595
vt -1.150099 1.2595
vt 0.09995041 -1.2595
vt 0.09995041 1.2595
vt -2.40005 -1.2595
vt -2.40005 1.2595
vt -1.250099 2.50005
vt 2.249901 2.50005
vt 2.40005 1.2595
vt 2.40005 -1.2595
vt 2.249901 5.00005
vt -1.250099 5.00005
vt -1.350099 -1.2595
vt -1.350099 1.2595
vt -7.40005 -1.2595
vt -7.40005 1.2595
vt -1.250099 7.50005
vt 2.249901 7.50005
vt 7.40005 1.2595
vt 7.40005 -1.2595
vt 4.250099 1.2595
vt 4.250099 -1.2595
vt -4.250099 5.00005
vt -4.250099 7.50005
vt -4.150099 -1.2595
vt -4.150099 1.2595
vt -8.750099 5.00005
vt -8.750099 7.50005
vt -10.50005 -1.2595
vt -10.50005 1.2595
vt -4.250099 10.50005
vt -1.250099 10.50005
vt 10.50005 1.2595
vt 10.50005 -1.2595
vt -4.250099 17.50005
vt -1.250099 17.50005
vt 6.35 -17.40005
vt 6.35 -12.40005
vt 3.749901 -12.40005
vt -6.25 -12.50005
vt -6.25 -17.50005
vt -6.35 -12.40005
vt -6.35 -17.40005
vt -8.561001 -17.50005
vt -8.461 -17.40005
vt 0.8499008 -12.40005
vt -3.749901 -12.50005
vt -3.749901 -12.40005
vt 0.8499008 -9.999949
vt -0.7499008 -12.50005
vt -0.8499008 -12.40005
vt 0.8499008 -7.49995
vt -0.7499008 -9.999949
vt -0.8499008 -9.999949
vt 0.8499008 -5.09995
vt -0.7499008 -7.49995
vt -0.8499008 -7.49995
vt 3.749901 -5.09995
vt -0.7499008 -4.99995
vt -0.8499008 -5.09995
vt 6.350099 -5.09995
vt -3.749901 -4.99995
vt -3.749901 -5.09995
vt 6.350099 -1.89995
vt -6.250099 -4.99995
vt -6.350099 -5.09995
vt 2.249901 -1.89995
vt -6.250099 -1.99995
vt -6.350099 -1.89995
vt -1.150099 -1.89995
vt -2.249901 -1.99995
vt -2.249901 -1.89995
vt -1.150099 4.959106E-05
vt 1.250099 -1.99995
vt 1.150099 -1.89995
vt -1.150099 2.40005
vt 1.250099 4.959106E-05
vt 1.150099 4.959106E-05
vt 2.149901 2.40005
vt 1.250099 2.50005
vt 1.150099 2.40005
vt 2.149901 -0.09995041
vt -2.249901 2.50005
vt -2.149901 2.40005
vt 6.350099 -0.09995041
vt -2.249901 4.959106E-05
vt -2.149901 -0.09995041
vt 6.350099 2.600049
vt -6.250099 4.959106E-05
vt -6.350099 -0.09995041
vt 2.249901 2.600049
vt -6.250099 2.50005
vt -6.350099 2.600049
vt -1.150099 2.600049
vt -2.249901 2.600049
vt -1.150099 5.100049
vt 1.150099 2.600049
vt -4.250099 5.100049
vt 1.250099 5.00005
vt 1.150099 5.100049
vt -8.650099 5.100049
vt 4.250099 5.00005
vt 4.250099 5.100049
vt -8.650099 7.40005
vt 8.650099 5.100049
vt -4.150099 7.40005
vt 8.750099 7.50005
vt 8.650099 7.40005
vt -4.150099 10.50005
vt 4.250099 7.50005
vt 4.150099 7.40005
vt -4.150099 17.40005
vt 4.250099 10.50005
vt 4.150099 10.50005
vt -1.350099 17.40005
vt 4.250099 17.50005
vt 4.150099 17.40005
vt -1.350099 10.50005
vt 1.250099 17.50005
vt 1.350099 17.40005
vt -1.350099 7.40005
vt 1.250099 10.50005
vt 1.350099 10.50005
vt 2.149901 7.40005
vt 1.250099 7.50005
vt 1.350099 7.40005
vt 2.149901 4.90005
vt -2.249901 7.50005
vt -2.149901 7.40005
vt 6.250099 4.90005
vt -2.249901 5.00005
vt -2.149901 4.90005
vt 8.650099 4.90005
vt -6.250099 5.00005
vt -6.250099 4.90005
vt 8.650099 2.50005
vt -8.650099 4.90005
vt 8.650099 4.959106E-05
vt -8.750099 2.50005
vt -8.650099 2.50005
vt 8.650099 -1.99995
vt -8.750099 4.959106E-05
vt -8.650099 4.959106E-05
vt 8.650099 -4.99995
vt -8.750099 -1.99995
vt -8.650099 -1.99995
vt 8.650099 -7.399951
vt -8.750099 -4.99995
vt -8.650099 -4.99995
vt 6.250099 -7.399951
vt -8.750099 -7.49995
vt -8.650099 -7.399951
vt 3.649901 -7.399951
vt -6.250099 -7.49995
vt -6.250099 -7.399951
vt 3.649901 -10.09995
vt -3.749901 -7.49995
vt -3.649901 -7.399951
vt 6.25 -10.09995
vt -3.749901 -9.999949
vt -3.649901 -10.09995
vt 8.461 -17.40005
vt -6.25 -9.999949
vt -6.25 -10.09995
vt 8.461 -10.09995
vt 8.461 -12.50005
vt -8.561001 -9.999949
vt -8.461 -10.09995
vt -8.561001 -12.50005
vt -8.461 -12.50005
vt 4.99995 -1.1595
vt 1.99995 -1.1595
vt 6.250099 -1.1595
vt 3.749901 -1.1595
vt -7.49995 -1.2595
vt -7.49995 -1.1595
vt -9.999949 -1.1595
vt -3.749901 -1.1595
vt -6.250099 -1.1595
vt -4.99995 -1.2595
vt -4.99995 -1.1595
vt 8.750099 -1.2595
vt 8.750099 -1.1595
vt 2.249901 -1.2595
vt 2.249901 -1.1595
vt -1.99995 -1.2595
vt -1.99995 -1.1595
vt -4.959106E-05 -1.1595
vt -2.50005 -1.1595
vt -1.250099 -1.2595
vt -1.250099 -1.1595
vt -2.249901 -1.1595
vt 1.250099 -1.2595
vt 1.250099 -1.1595
vt 2.50005 -1.2595
vt 2.50005 -1.1595
vt -8.750099 -1.2595
vt -8.750099 -1.1595
vt 5.00005 -1.2595
vt 5.00005 -1.1595
vt -5.00005 -1.2595
vt -5.00005 -1.1595
vt -4.250099 -1.2595
vt -4.250099 -1.1595
vt 7.50005 -1.2595
vt 7.50005 -1.1595
vt -7.50005 -1.2595
vt -7.50005 -1.1595
vt -10.50005 -1.1595
vt 4.250099 -1.1595
vt -17.50005 -1.2595
vt -17.50005 -1.1595
vt 10.50005 -1.1595
vt 17.50005 -1.2595
vt 17.50005 -1.1595
vt -0.7499008 -1.2595
vt -0.7499008 -1.1595
vt 7.49995 -1.2595
vt 7.49995 -1.1595
vt 9.999949 -1.2595
vt 9.999949 -1.1595
vt 12.50005 -1.1595
vt 0.7499008 -1.2595
vt 0.7499008 -1.1595
vt 8.561001 -1.2595
vt 8.561001 -1.1595
vt -8.561001 -1.2595
vt -8.561001 -1.1595
vt -12.50005 -1.2595
vt -12.50005 -1.1595

vn 0 0 -1
vn 0 0 1
vn -1 0 0
vn 0 1 0
vn 1 0 0
vn 0 -1 0

g Level1_floor
usemtl ProBuilderDefault
f 1/1/1 2/2/1 4/4/1 3/3/1
f 5/5/2 6/6/2 8/8/2 7/7/2
f 6/9/3 9/10/3 10/12/3 8/11/3
f 11/13/4 12/14/4 14/16/4 13/15/4
f 13/15/4 14/16/4 16/18/4 15/17/4
f 17/12/3 18/10/3 20/20/3 19/19/3
f 21/21/5 22/22/5 4/24/5 2/23/5
f 10/8/2 9/6/2 24/26/2 23/25/2
f 13/15/4 15/17/4 26/28/4 25/27/4
f 1/1/1 3/3/1 28/30/1 27/29/1
f 23/25/2 24/26/2 18/32/2 17/31/2
f 25/27/4 26/28/4 30/34/4 29/33/4
f 31/35/1 32/36/1 34/38/1 33/37/1
f 27/23/5 28/24/5 36/40/5 35/39/5
f 30/34/4 26/28/4 38/42/4 37/41/4
f 39/39/5 40/40/5 42/44/5 41/43/5
f 37/41/4 38/42/4 44/46/4 43/45/4
f 35/47/2 36/48/2 46/50/2 45/49/2
f 44/46/4 38/42/4 48/52/4 47/51/4
f 32/36/1 31/35/1 50/54/1 49/53/1
f 45/49/2 46/50/2 40/56/2 39/55/2
f 47/51/4 48/52/4 52/58/4 51/57/4
f 53/3/1 54/1/1 56/60/1 55/59/1
f 49/61/3 50/62/3 58/64/3 57/63/3
f 47/51/4 51/57/4 60/66/4 59/65/4
f 41/43/5 42/44/5 62/68/5 61/67/5
f 63/63/3 64/64/3 66/70/3 65/69/3
f 59/65/4 60/66/4 68/72/4 67/71/4
f 61/67/5 62/68/5 70/69/5 69/70/5
f 71/73/3 72/74/3 74/76/3 73/75/3
f 67/71/4 68/72/4 76/78/4 75/77/4
f 69/70/5 70/69/5 78/80/5 77/79/5
f 79/75/3 80/76/3 82/82/3 81/81/3
f 75/77/4 76/78/4 84/84/4 83/83/4
f 77/79/5 78/80/5 55/86/5 56/85/5
f 57/87/2 58/88/2 86/90/2 85/89/2
f 59/65/4 67/71/4 88/92/4 87/91/4
f 85/89/2 86/90/2 64/94/2 63/93/2
f 87/91/4 88/92/4 90/96/4 89/95/4
f 91/97/1 92/98/1 94/100/1 93/99/1
f 95/101/5 96/102/5 92/104/5 91/103/5
f 90/96/4 88/92/4 98/106/4 97/105/4
f 65/69/3 66/70/3 93/108/3 94/107/3
f 75/77/4 83/83/4 99/109/4 98/106/4
f 54/1/1 53/3/1 101/98/1 100/97/1
f 102/89/2 103/90/2 80/94/2 79/93/2
f 98/106/4 99/109/4 104/110/4 97/105/4
f 105/97/1 106/98/1 108/112/1 107/111/1
f 100/85/5 101/86/5 106/114/5 105/113/5
f 104/110/4 99/109/4 110/116/4 109/115/4
f 111/81/3 112/82/3 114/118/3 113/117/3
f 81/93/2 82/94/2 116/120/2 115/119/2
f 104/110/4 109/115/4 118/122/4 117/121/4
f 119/111/1 120/112/1 122/124/1 121/123/1
f 115/119/2 116/120/2 112/60/2 111/59/2
f 117/121/4 118/122/4 124/126/4 123/125/4
f 125/123/1 126/124/1 113/56/1 114/55/1
f 107/113/5 108/114/5 128/128/5 127/127/5
f 118/122/4 109/115/4 130/130/4 129/129/4
f 126/117/3 125/118/3 132/132/3 131/131/3
f 127/127/5 128/128/5 120/11/5 119/9/5
f 129/129/4 130/130/4 134/134/4 133/133/4
f 8/135/4 10/136/4 136/15/4 135/13/4
f 10/136/4 23/137/4 137/27/4 136/15/4
f 9/140/6 6/141/6 139/139/6 138/138/6
f 6/141/6 5/143/6 140/142/6 139/139/6
f 23/137/4 17/144/4 141/33/4 137/27/4
f 24/146/6 9/140/6 138/138/6 142/145/6
f 17/144/4 19/147/4 143/34/4 141/33/4
f 18/149/6 24/146/6 142/145/6 144/148/6
f 19/147/4 146/150/4 145/41/4 143/34/4
f 20/152/6 18/149/6 144/148/6 147/151/6
f 146/150/4 34/153/4 148/45/4 145/41/4
f 150/155/6 20/152/6 147/151/6 149/154/6
f 34/153/4 32/156/4 151/46/4 148/45/4
f 33/158/6 150/155/6 149/154/6 152/157/6
f 32/156/4 49/159/4 153/51/4 151/46/4
f 31/161/6 33/158/6 152/157/6 154/160/6
f 49/159/4 57/162/4 155/65/4 153/51/4
f 50/164/6 31/161/6 154/160/6 156/163/6
f 57/162/4 85/165/4 157/91/4 155/65/4
f 58/167/6 50/164/6 156/163/6 158/166/6
f 85/165/4 63/168/4 159/95/4 157/91/4
f 86/170/6 58/167/6 158/166/6 160/169/6
f 63/168/4 65/171/4 161/96/4 159/95/4
f 64/173/6 86/170/6 160/169/6 162/172/6
f 65/171/4 94/174/4 163/105/4 161/96/4
f 66/176/6 64/173/6 162/172/6 164/175/6
f 94/174/4 92/177/4 165/106/4 163/105/4
f 93/179/6 66/176/6 164/175/6 166/178/6
f 92/177/4 96/180/4 167/92/4 165/106/4
f 91/182/6 93/179/6 166/178/6 168/181/6
f 96/180/4 71/183/4 169/71/4 167/92/4
f 95/185/6 91/182/6 168/181/6 170/184/6
f 71/183/4 73/186/4 171/77/4 169/71/4
f 72/188/6 95/185/6 170/184/6 172/187/6
f 73/186/4 102/189/4 165/106/4 171/77/4
f 74/191/6 72/188/6 172/187/6 173/190/6
f 102/189/4 79/192/4 163/105/4 165/106/4
f 103/193/6 74/191/6 173/190/6 168/181/6
f 79/192/4 81/194/4 174/110/4 163/105/4
f 80/195/6 103/193/6 168/181/6 166/178/6
f 81/194/4 115/196/4 175/121/4 174/110/4
f 82/198/6 80/195/6 166/178/6 176/197/6
f 115/196/4 111/199/4 177/125/4 175/121/4
f 116/201/6 82/198/6 176/197/6 178/200/6
f 111/199/4 113/202/4 179/126/4 177/125/4
f 112/203/6 116/201/6 178/200/6 180/84/6
f 113/202/4 126/204/4 181/122/4 179/126/4
f 114/206/6 112/203/6 180/84/6 182/205/6
f 126/204/4 131/207/4 183/129/4 181/122/4
f 125/209/6 114/206/6 182/205/6 184/208/6
f 131/207/4 122/210/4 185/133/4 183/129/4
f 132/212/6 125/209/6 184/208/6 186/211/6
f 122/210/4 120/213/4 187/134/4 185/133/4
f 121/215/6 132/212/6 186/211/6 188/214/6
f 120/213/4 128/216/4 189/130/4 187/134/4
f 119/218/6 121/215/6 188/214/6 190/217/6
f 128/216/4 108/219/4 191/115/4 189/130/4
f 127/221/6 119/218/6 190/217/6 192/220/6
f 108/219/4 106/222/4 193/116/4 191/115/4
f 107/224/6 127/221/6 192/220/6 194/223/6
f 106/222/4 101/225/4 195/109/4 193/116/4
f 105/227/6 107/224/6 194/223/6 196/226/6
f 101/225/4 53/228/4 197/83/4 195/109/4
f 100/230/6 105/227/6 196/226/6 198/229/6
f 53/228/4 55/231/4 199/84/4 197/83/4
f 54/233/6 100/230/6 198/229/6 200/232/6
f 55/231/4 78/234/4 201/78/4 199/84/4
f 56/235/6 54/233/6 200/232/6 202/125/6
f 78/234/4 70/236/4 203/72/4 201/78/4
f 77/238/6 56/235/6 202/125/6 204/237/6
f 70/236/4 62/239/4 205/66/4 203/72/4
f 69/241/6 77/238/6 204/237/6 206/240/6
f 62/239/4 42/242/4 207/57/4 205/66/4
f 61/244/6 69/241/6 206/240/6 208/243/6
f 42/242/4 40/245/4 209/58/4 207/57/4
f 41/247/6 61/244/6 208/243/6 210/246/6
f 40/245/4 46/248/4 211/52/4 209/58/4
f 39/250/6 41/247/6 210/246/6 212/249/6
f 46/248/4 36/251/4 213/42/4 211/52/4
f 45/253/6 39/250/6 212/249/6 214/252/6
f 36/251/4 28/254/4 215/28/4 213/42/4
f 35/256/6 45/253/6 214/252/6 216/255/6
f 28/254/4 3/257/4 217/17/4 215/28/4
f 27/259/6 35/256/6 216/255/6 218/258/6
f 7/260/4 8/135/4 135/13/4 219/14/4
f 1/262/6 27/259/6 218/258/6 220/261/6
f 3/257/4 4/263/4 221/18/4 217/17/4
f 4/263/4 22/264/4 222/16/4 221/18/4
f 2/266/6 1/262/6 220/261/6 223/265/6
f 21/268/6 2/266/6 223/265/6 224/267/6
f 22/264/4 7/260/4 219/14/4 222/16/4
f 5/143/6 21/268/6 224/267/6 140/142/6
f 47/269/5 59/270/5 158/67/5 156/43/5
f 48/271/1 38/272/1 216/35/1 214/1/1
f 38/274/3 26/275/3 218/20/3 216/273/3
f 44/276/2 47/277/2 156/49/2 154/26/2
f 51/279/3 52/274/3 212/273/3 210/278/3
f 52/281/1 48/271/1 214/1/1 212/280/1
f 59/271/1 87/283/1 160/282/1 158/1/1
f 60/285/3 51/279/3 210/278/3 208/284/3
f 67/286/5 75/287/5 173/79/5 172/70/5
f 68/286/3 60/285/3 208/284/3 206/70/3
f 87/283/1 89/289/1 162/288/1 160/282/1
f 88/290/2 67/277/2 172/49/2 170/90/2
f 89/270/5 90/286/5 164/70/5 162/67/5
f 90/286/5 97/287/5 166/79/5 164/70/5
f 97/292/2 98/290/2 168/90/2 166/291/2
f 98/294/3 88/286/3 170/70/3 168/293/3
f 75/271/1 98/283/1 168/282/1 173/1/1
f 76/294/3 68/286/3 206/70/3 204/293/3
f 83/277/2 84/296/2 202/295/2 200/49/2
f 84/298/3 76/294/3 204/293/3 202/297/3
f 98/283/1 97/289/1 166/288/1 168/282/1
f 99/290/2 83/277/2 200/49/2 198/90/2
f 97/287/5 104/300/5 176/299/5 166/79/5
f 104/289/1 117/302/1 178/301/1 176/288/1
f 109/292/2 110/290/2 196/90/2 194/291/2
f 110/304/3 99/298/3 198/297/3 196/303/3
f 117/302/1 123/296/1 180/295/1 178/301/1
f 118/306/5 129/307/5 186/127/5 184/305/5
f 123/300/5 124/306/5 182/305/5 180/299/5
f 124/281/2 118/308/2 184/120/2 182/280/2
f 129/307/5 133/310/5 188/309/5 186/127/5
f 130/311/3 109/304/3 194/303/3 192/132/3
f 133/308/2 134/292/2 190/291/2 188/120/2
f 134/313/3 130/311/3 192/132/3 190/312/3
f 43/315/2 44/276/2 154/26/2 152/314/2
f 37/317/5 43/269/5 152/43/5 149/316/5
f 26/276/2 15/277/2 220/49/2 218/26/2
f 30/319/5 37/317/5 149/316/5 147/318/5
f 29/320/5 30/319/5 147/318/5 144/21/5
f 25/272/1 29/322/1 144/321/1 142/35/1
f 12/324/1 11/271/1 139/1/1 140/323/1
f 13/271/1 25/272/1 142/35/1 138/1/1
f 15/277/2 16/326/2 223/325/2 220/49/2
f 16/275/3 14/328/3 224/327/3 223/20/3
f 14/328/3 12/310/3 140/309/3 224/327/3
f 11/313/5 13/320/5 138/21/5 139/312/5

