# ProBuilder 4.0.5
# https://unity3d.com/unity/features/worldbuilding/probuilder
# 2020/02/22 20:28:00

mtllib ./H_Room_W_04_L.mtl
o H_Room_W_04_L

g Room_W_04_L
v -3.69995 0.6499996 0.4999994
v -3.79995 0.6499996 0.4999994
v -3.69995 1.25 0.4999994
v -3.79995 1.25 0.4999994
v -3.79995 0.6499996 -0.600001
v -3.79995 1.25 -0.600001
v -3.69995 0.6499996 -0.600001
v -3.69995 1.25 -0.600001
v 3.80005 -1.25 3.8501
v 3.70005 -1.25 3.8501
v 3.80005 1.25 3.8501
v 3.70005 1.25 3.8501
v 3.70005 -1.25 -3.8501
v 3.80005 -1.25 -3.8501
v 3.70005 1.25 -3.8501
v 3.80005 1.25 -3.8501
v 3.70005 -1.25 -3.75
v 3.80005 -1.25 -3.75
v -3.80005 1.25 -3.75
v -3.80005 -1.25 -3.75
v -3.80005 1.25 -3.8501
v -3.80005 -1.25 -3.8501
v 3.80005 1.25 -3.75
v 3.70005 1.25 -3.75
v 3.80005 -1.25 3.75
v 3.700195 -1.25 3.75
v 3.80005 1.25 3.75
v -3.80005 -1.25 3.75
v -3.80005 1.25 3.75
v -3.80005 -1.25 3.8501
v -3.80005 1.25 3.8501
v 3.700195 1.25 3.75
v -3.69995 -1.25 3.75
v -3.69995 1.25 3.75
v -3.69995 -1.25 3.8501
v -3.69995 1.25 3.8501
v -3.69995 1.25 -3.75
v -3.69995 -1.25 -3.75
v -3.69995 1.25 -3.8501
v -3.69995 -1.25 -3.8501
v -3.69995 1.25 -0.5499998
v -3.69995 -1.25 -0.5499998
v -3.80005 1.25 -0.5499998
v -3.80005 -1.25 -0.5499998
v -3.69995 -1.25 0.4500002
v -3.69995 1.25 0.4500002
v -3.80005 -1.25 0.4500002
v -3.80005 1.25 0.4500002
v 3.70005 1.25 -0.5000501
v 3.70005 -1.25 -0.5000501
v 3.799805 1.25 -0.4999502
v 3.799805 -1.25 -0.4999502
v 3.80005 1.25 0.4999999
v 3.80005 -1.25 0.4999999
v 3.700195 1.25 0.4999999
v 3.700195 -1.25 0.4999999
v 3.799805 1.25 -3.7499
v 3.799805 -1.25 -3.7499
v 3.8 0.6499996 0.5499991
v 3.699999 0.6499996 0.5499991
v 3.8 1.25 0.5499991
v 3.699999 1.25 0.5499991
v 3.699999 0.6499996 -0.5500013
v 3.699999 1.25 -0.5500013
v 3.8 0.6499996 -0.5500013
v 3.8 1.25 -0.5500013

vt 7.600049 -0.6000004
vt 7.500049 -0.6000004
vt 7.600049 0
vt 7.500049 0
vt 4.3 -0.6000004
vt 3.199999 -0.6000004
vt 4.3 0
vt 3.199999 0
vt -7.500049 -0.6000004
vt -7.600049 -0.6000004
vt -7.500049 0
vt -7.600049 0
vt -3.199999 -0.6000004
vt -4.3 -0.6000004
vt -3.199999 0
vt -4.3 0
vt -7.600049 4.3
vt -7.500049 4.3
vt -7.600049 3.199999
vt -7.500049 3.199999
vt 7.600049 3.199999
vt 7.500049 3.199999
vt 7.600049 4.3
vt 7.500049 4.3
vt 7.60005 -1
vt 7.500051 -1
vt 7.60005 1.5
vt 7.500051 1.5
vt -7.500051 -1
vt -7.60005 -1
vt -7.500051 1.5
vt -7.60005 1.5
vt 7.500051 -3.25
vt 7.60005 -3.25
vt 7.500051 -3.3501
vt 7.60005 -3.3501
vt -3.25 1.5
vt -3.25 -1
vt -3.3501 1.5
vt -3.3501 -1
vt 3.25 -1
vt 3.25 1.5
vt 3.3501 -1
vt 3.3501 1.5
vt -7.60005 -3.25
vt -7.500051 -3.25
vt -7.60005 -3.3501
vt -7.500051 -3.3501
vt 7.60005 4.25
vt 7.500196 4.25
vt 7.60005 4.3501
vt 7.500051 4.3501
vt -4.25 1.5
vt -4.25 -1
vt -4.3501 1.5
vt -4.3501 -1
vt 4.25 -1
vt 4.25 1.5
vt 4.3501 -1
vt 4.3501 1.5
vt -7.500196 4.25
vt -7.60005 4.25
vt -7.500051 4.3501
vt -7.60005 4.3501
vt -0.1000497 -1
vt -0.1000497 1.5
vt 7.500196 4.249999
vt 0.1000497 4.350101
vt 0.1000497 4.249999
vt -0.1000497 4.25
vt -0.1000497 4.3501
vt 0.1000502 1.5
vt 0.1000502 -1
vt -0.1000497 -3.350101
vt -0.1000497 -3.249998
vt 0.1000497 -3.25
vt 0.1000497 -3.3501
vt -5.054474E-05 1.5
vt -5.054474E-05 -1
vt 5.054474E-05 -3.3501
vt 5.054474E-05 -3.25
vt 0.10005 4.25
vt -5.054474E-05 4.3501
vt -5.054474E-05 4.25
vt -0.9500002 -1
vt -0.9500002 1.5
vt -5.054474E-05 0.9500002
vt 0.10005 0.9500002
vt -0.10005 0.9500002
vt 0.9500002 1.5
vt 0.9500002 -1
vt 0.04999983 1.5
vt 0.04999983 -1
vt 5.054474E-05 -0.04999983
vt -0.10005 -0.04999983
vt 0.10005 -0.04999983
vt -0.04999983 -1
vt -0.04999983 1.5
vt 7.599801 1.5
vt 7.599801 -1
vt -7.599805 -3.2499
vt -7.599805 4.982948E-05
vt 7.599805 -3.2499
vt 7.599805 4.982948E-05
vt -0.9999999 -1
vt -0.9999999 1.5
vt -7.60005 0.9999999
vt -7.500196 0.9999999
vt 0.9999999 1.5
vt 0.9999999 -1
vt 7.500196 0.9999999
vt 7.60005 0.9999999
vt 3.8 0.6499996
vt 3.699999 0.6499996
vt 3.8 1.25
vt 3.699999 1.25
vt 0.5499991 0.6499996
vt -0.5500013 0.6499996
vt 0.5499991 1.25
vt -0.5500013 1.25
vt -3.699999 0.6499996
vt -3.8 0.6499996
vt -3.699999 1.25
vt -3.8 1.25
vt 0.5500013 0.6499996
vt -0.5499991 0.6499996
vt 0.5500013 1.25
vt -0.5499991 1.25
vt -3.8 0.5499991
vt -3.699999 0.5499991
vt -3.8 -0.5500013
vt -3.699999 -0.5500013
vt 3.8 -0.5500013
vt 3.699999 -0.5500013
vt 3.8 0.5499991
vt 3.699999 0.5499991

vn 0 0 1
vn -1 0 0
vn 0 0 -1
vn 1 0 0
vn 0 1 0
vn 0 -1 0
vn -0.001001434 0 0.9999995

g Room_W_04_L
usemtl ProBuilderDefault
f 3/3/1 4/4/1 2/2/1 1/1/1
f 4/7/2 6/8/2 5/6/2 2/5/2
f 6/11/3 8/12/3 7/10/3 5/9/3
f 8/15/4 3/16/4 1/14/4 7/13/4
f 8/19/5 6/20/5 4/18/5 3/17/5
f 1/23/6 2/24/6 5/22/6 7/21/6
f 11/27/1 12/28/1 10/26/1 9/25/1
f 15/31/3 16/32/3 14/30/3 13/29/3
f 13/35/6 14/36/6 18/34/6 17/33/6
f 21/39/2 22/40/2 20/38/2 19/37/2
f 14/43/4 16/44/4 23/42/4 18/41/4
f 16/47/5 15/48/5 24/46/5 23/45/5
f 9/51/6 10/52/6 26/50/6 25/49/6
f 11/55/4 9/56/4 25/54/4 27/53/4
f 30/59/2 31/60/2 29/58/2 28/57/2
f 12/63/5 11/64/5 27/62/5 32/61/5
f 33/65/3 34/66/3 32/31/3 26/29/3
f 35/68/6 33/69/6 26/67/6 10/52/6
f 34/70/5 36/71/5 12/63/5 32/61/5
f 36/72/1 35/73/1 10/26/1 12/28/1
f 37/72/1 38/73/1 17/26/1 24/28/1
f 39/74/5 37/75/5 24/46/5 15/48/5
f 38/76/6 40/77/6 13/35/6 17/33/6
f 40/65/3 39/66/3 15/31/3 13/29/3
f 43/78/1 44/79/1 42/73/1 41/72/1
f 21/80/5 19/81/5 37/75/5 39/74/5
f 20/81/6 22/80/6 40/77/6 38/76/6
f 22/79/3 21/78/3 39/66/3 40/65/3
f 47/79/3 48/78/3 46/66/3 45/65/3
f 30/83/6 28/84/6 33/82/6 35/68/6
f 29/84/5 31/83/5 36/71/5 34/70/5
f 31/78/1 30/79/1 35/73/1 36/72/1
f 45/85/4 46/86/4 34/53/4 33/54/4
f 47/87/6 45/88/6 33/82/6 28/84/6
f 46/89/5 48/87/5 29/84/5 34/70/5
f 48/90/2 47/91/2 28/57/2 29/58/2
f 41/92/4 42/93/4 38/41/4 37/42/4
f 43/94/5 41/95/5 37/75/5 19/81/5
f 42/96/6 44/94/6 20/81/6 38/76/6
f 44/97/2 43/98/2 19/37/2 20/38/2
f 52/100/7 51/99/7 49/28/7 50/26/7
f 56/29/3 55/31/3 53/32/3 54/30/3
f 50/79/2 49/78/2 24/37/2 17/38/2
f 49/11/5 51/102/5 57/101/5 24/46/5
f 51/78/4 52/79/4 58/41/4 57/42/4
f 52/104/6 50/4/6 17/33/6 58/103/6
f 54/105/4 53/106/4 27/53/4 25/54/4
f 53/107/5 55/108/5 32/61/5 27/62/5
f 55/109/2 56/110/2 26/57/2 32/58/2
f 56/111/6 54/112/6 25/49/6 26/50/6
f 61/115/1 62/116/1 60/114/1 59/113/1
f 62/119/2 64/120/2 63/118/2 60/117/2
f 64/123/3 66/124/3 65/122/3 63/121/3
f 66/127/4 61/128/4 59/126/4 65/125/4
f 66/131/5 64/132/5 62/130/5 61/129/5
f 59/135/6 60/136/6 63/134/6 65/133/6

