# ProBuilder 4.0.5
# https://unity3d.com/unity/features/worldbuilding/probuilder
# 2020/02/22 20:25:26

mtllib ./H_Room_W_01_L.mtl
o H_Room_W_01_L

g Room_W_01_L
v -3.69995 0.6499996 0.4999995
v -3.79995 0.6499996 0.4999995
v -3.69995 1.25 0.4999995
v -3.79995 1.25 0.4999995
v -3.79995 0.6499996 -0.6000009
v -3.79995 1.25 -0.6000009
v -3.69995 0.6499996 -0.6000009
v -3.69995 1.25 -0.6000009
v 3.80005 -1.25 3.8501
v 3.70005 -1.25 3.8501
v 3.80005 1.25 3.8501
v 3.70005 1.25 3.8501
v 3.70005 -1.25 3.75
v 3.70005 -1.25 -3.75
v 3.70005 1.25 3.75
v 3.70005 1.25 -3.75
v 3.70005 -1.25 -3.8501
v 3.80005 -1.25 -3.8501
v 3.70005 1.25 -3.8501
v 3.80005 1.25 -3.8501
v 3.80005 -1.25 -3.75
v 3.80005 -1.25 3.75
v 3.80005 1.25 -3.75
v 3.80005 1.25 3.75
v -3.80005 1.25 -3.75
v -3.80005 -1.25 -3.75
v -3.80005 1.25 -3.8501
v -3.80005 -1.25 -3.8501
v -3.80005 -1.25 3.75
v -3.80005 1.25 3.75
v -3.80005 -1.25 3.8501
v -3.80005 1.25 3.8501
v -3.69995 -1.25 3.75
v -3.69995 1.25 3.75
v -3.69995 -1.25 3.8501
v -3.69995 1.25 3.8501
v -3.69995 1.25 -3.75
v -3.69995 -1.25 -3.75
v -3.69995 1.25 -3.8501
v -3.69995 -1.25 -3.8501
v -3.69995 1.25 -0.5499997
v -3.69995 -1.25 -0.5499997
v -3.80005 1.25 -0.5499997
v -3.80005 -1.25 -0.5499997
v -3.69995 -1.25 0.4500003
v -3.69995 1.25 0.4500003
v -3.80005 -1.25 0.4500003
v -3.80005 1.25 0.4500003

vt 3.80005 -0.8500004
vt 3.70005 -0.8500004
vt 3.80005 -0.25
vt 3.70005 -0.25
vt 3.8 -0.8500004
vt 2.699999 -0.8500004
vt 3.8 -0.25
vt 2.699999 -0.25
vt -3.70005 -0.8500004
vt -3.80005 -0.8500004
vt -3.70005 -0.25
vt -3.80005 -0.25
vt -2.699999 -0.8500004
vt -3.8 -0.8500004
vt -2.699999 -0.25
vt -3.8 -0.25
vt -3.80005 3.8
vt -3.70005 3.8
vt -3.80005 2.699999
vt -3.70005 2.699999
vt 3.80005 2.699999
vt 3.70005 2.699999
vt 3.80005 3.8
vt 3.70005 3.8
vt 3.80005 -1.25
vt 3.70005 -1.25
vt 3.80005 1.25
vt 3.70005 1.25
vt 3.75 -1.25
vt -3.75 -1.25
vt 3.75 1.25
vt -3.75 1.25
vt -3.70005 -1.25
vt -3.80005 -1.25
vt -3.70005 1.25
vt -3.80005 1.25
vt 3.75 -1.25
vt -3.75 -1.25
vt 3.75 1.25
vt -3.75 1.25
vt -3.80005 3.75
vt -3.70005 3.75
vt -3.80005 -3.75
vt -3.70005 -3.75
vt 3.80005 -3.75
vt 3.70005 -3.75
vt 3.80005 3.75
vt 3.70005 3.75
vt 3.70005 -3.8501
vt 3.80005 -3.8501
vt -3.8501 1.25
vt -3.8501 -1.25
vt 3.8501 -1.25
vt 3.8501 1.25
vt -3.80005 -3.8501
vt -3.70005 -3.8501
vt 3.80005 3.8501
vt 3.70005 3.8501
vt -3.70005 3.8501
vt -3.80005 3.8501
vt 3.69995 -1.25
vt 3.69995 1.25
vt 3.70005 3.749999
vt -3.69995 3.850102
vt -3.69995 3.75
vt 3.69995 3.75
vt 3.69995 3.8501
vt -3.69995 1.25
vt -3.69995 -1.25
vt 3.69995 -3.850101
vt 3.69995 -3.75
vt -3.69995 -3.75
vt -3.69995 -3.8501
vt -0.4500003 -1.25
vt -0.4500003 1.25
vt -3.80005 0.4500003
vt -3.69995 0.4500003
vt 3.69995 0.4500003
vt 3.80005 0.4500003
vt 0.4500003 1.25
vt 0.4500003 -1.25
vt 0.5499997 1.25
vt 0.5499997 -1.25
vt 3.80005 -0.5499997
vt 3.69995 -0.5499997
vt -3.69995 -0.5499997
vt -3.80005 -0.5499997
vt -0.5499997 -1.25
vt -0.5499997 1.25

vn 0 0 1
vn -1 0 0
vn 0 0 -1
vn 1 0 0
vn 0 1 0
vn 0 -1 0

g Room_W_01_L
usemtl ProBuilderDefault
f 3/3/1 4/4/1 2/2/1 1/1/1
f 4/7/2 6/8/2 5/6/2 2/5/2
f 6/11/3 8/12/3 7/10/3 5/9/3
f 8/15/4 3/16/4 1/14/4 7/13/4
f 8/19/5 6/20/5 4/18/5 3/17/5
f 1/23/6 2/24/6 5/22/6 7/21/6
f 11/27/1 12/28/1 10/26/1 9/25/1
f 15/31/2 16/32/2 14/30/2 13/29/2
f 19/35/3 20/36/3 18/34/3 17/33/3
f 23/39/4 24/40/4 22/38/4 21/37/4
f 23/43/5 16/44/5 15/42/5 24/41/5
f 22/47/6 13/48/6 14/46/6 21/45/6
f 17/49/6 18/50/6 21/45/6 14/46/6
f 27/51/2 28/52/2 26/30/2 25/32/2
f 18/53/4 20/54/4 23/39/4 21/37/4
f 20/55/5 19/56/5 16/44/5 23/43/5
f 9/57/6 10/58/6 13/48/6 22/47/6
f 11/51/4 9/52/4 22/38/4 24/40/4
f 31/53/2 32/54/2 30/31/2 29/29/2
f 12/59/5 11/60/5 24/41/5 15/42/5
f 33/61/3 34/62/3 15/35/3 13/33/3
f 35/64/6 33/65/6 13/63/6 10/58/6
f 34/66/5 36/67/5 12/59/5 15/42/5
f 36/68/1 35/69/1 10/26/1 12/28/1
f 37/68/1 38/69/1 14/26/1 16/28/1
f 39/70/5 37/71/5 16/44/5 19/56/5
f 38/72/6 40/73/6 17/49/6 14/46/6
f 40/61/3 39/62/3 19/35/3 17/33/3
f 43/36/1 44/34/1 42/69/1 41/68/1
f 27/50/5 25/45/5 37/71/5 39/70/5
f 26/43/6 28/55/6 40/73/6 38/72/6
f 28/25/3 27/27/3 39/62/3 40/61/3
f 47/25/3 48/27/3 46/62/3 45/61/3
f 31/60/6 29/41/6 33/65/6 35/64/6
f 30/47/5 32/57/5 36/67/5 34/66/5
f 32/36/1 31/34/1 35/69/1 36/68/1
f 45/74/4 46/75/4 34/40/4 33/38/4
f 47/76/6 45/77/6 33/65/6 29/41/6
f 46/78/5 48/79/5 30/47/5 34/66/5
f 48/80/2 47/81/2 29/29/2 30/31/2
f 41/82/4 42/83/4 38/37/4 37/39/4
f 43/84/5 41/85/5 37/71/5 25/45/5
f 42/86/6 44/87/6 26/43/6 38/72/6
f 44/88/2 43/89/2 25/32/2 26/30/2

