# ProBuilder 4.0.5
# https://unity3d.com/unity/features/worldbuilding/probuilder
# 2020/02/22 20:24:05

mtllib ./H_Room_W_00b_L.mtl
o H_Room_W_00b_L

g Room_W_00b_L
v 0.04999995 0.6 0.5450001
v -0.04999995 0.6 0.5450001
v 0.04999995 1.25 0.5450001
v -0.04999995 1.25 0.5450001
v -0.04999995 0.6 -0.655
v -0.04999995 1.25 -0.655
v 0.04999995 0.6 -0.655
v 0.04999995 1.25 -0.655
v 0.04999995 -1.25 -0.525
v -0.04999995 -1.25 -0.525
v 0.04999995 1.25 -0.525
v -0.04999995 1.25 -0.525
v -0.04999995 -1.25 -1.275
v -0.04999995 1.25 -1.275
v -0.04999995 -1.25 -3.9001
v 0.04999995 -1.25 -3.9001
v -0.04999995 1.25 -3.9001
v 0.04999995 1.25 -3.9001
v 0.04999995 -1.25 -1.275
v 0.04999995 1.25 -1.275
v 0.04999995 -1.25 3.9001
v -0.04999995 -1.25 3.9001
v 0.04999995 1.25 3.9001
v -0.04999995 1.25 3.9001
v -0.04999995 -1.25 1.275
v -0.04999995 -1.25 0.525
v -0.04999995 1.25 1.275
v -0.04999995 1.25 0.525
v 0.04999995 -1.25 0.525
v 0.04999995 1.25 0.525
v 0.04999995 -1.25 1.275
v 0.04999995 1.25 1.275
v -0.04999995 -1.25 -3.8
v 0.04999995 -1.25 -3.8
v -0.04999995 1.25 -3.8
v 0.04999995 1.25 -3.8
v 0.04999995 -1.25 3.8
v -0.04999995 -1.25 3.8
v 0.04999995 1.25 3.8
v -0.04999995 1.25 3.8

vt 0 0.35
vt -0.0999999 0.35
vt 0 1
vt -0.0999999 1
vt 0.1450001 0.35
vt -1.055 0.35
vt 0.1450001 1
vt -1.055 1
vt 0.0999999 0.35
vt 0.0999999 1
vt 1.055 0.35
vt -0.1450001 0.35
vt 1.055 1
vt -0.1450001 1
vt 0 0.1450001
vt 0.0999999 0.1450001
vt 0 -1.055
vt 0.0999999 -1.055
vt -0.0999999 -1.055
vt -0.0999999 0.1450001
vt 0.05 -1.25
vt -0.05 -1.25
vt 0.05 1.25
vt -0.05 1.25
vt 1.275 -1.25
vt 0.525 -1.25
vt 1.275 1.25
vt 0.525 1.25
vt 0.04999995 -1.25
vt -0.04999995 -1.25
vt 0.04999995 1.25
vt -0.04999995 1.25
vt -0.525 -1.25
vt -1.275 -1.25
vt -0.525 1.25
vt -1.275 1.25
vt -0.05 1.275
vt 0.05 1.275
vt -0.05 0.525
vt 0.05 0.525
vt 0.525 -1.25
vt 0.525 1.25
vt -0.525 -1.25
vt -0.525 1.25
vt -0.05 0.525
vt 0.05 0.525
vt -0.04999995 -1.275
vt 0.04999995 -1.275
vt -0.04999995 -3.8
vt 0.04999995 -3.8
vt -3.8 1.25
vt -3.8 -1.25
vt 3.8 -1.25
vt 3.8 1.25
vt 0.05 3.8
vt -0.05 3.8
vt -1.274999 1.25
vt -1.274999 -1.25
vt -3.800001 1.25
vt -3.800001 -1.25
vt 1.274999 -1.25
vt 1.274999 1.25
vt 3.800001 -1.25
vt 3.800001 1.25
vt -0.04999995 -3.9001
vt 0.04999995 -3.9001
vt -3.9001 1.25
vt -3.9001 -1.25
vt 3.9001 -1.25
vt 3.9001 1.25
vt 0.05 3.9001
vt -0.05 3.9001

vn 0 0 1
vn -1 0 0
vn 0 0 -1
vn 1 0 0
vn 0 1 0
vn 0 -1 0

g Room_W_00b_L
usemtl ProBuilderDefault
f 3/3/1 4/4/1 2/2/1 1/1/1
f 4/7/2 6/8/2 5/6/2 2/5/2
f 6/10/3 8/3/3 7/1/3 5/9/3
f 8/13/4 3/14/4 1/12/4 7/11/4
f 8/17/5 6/18/5 4/16/5 3/15/5
f 1/15/6 2/20/6 5/19/6 7/17/6
f 11/23/1 12/24/1 10/22/1 9/21/1
f 12/27/2 14/28/2 13/26/2 10/25/2
f 17/31/3 18/32/3 16/30/3 15/29/3
f 20/35/4 11/36/4 9/34/4 19/33/4
f 20/39/5 14/40/5 12/38/5 11/37/5
f 9/38/6 10/37/6 13/39/6 19/40/6
f 23/23/1 24/24/1 22/22/1 21/21/1
f 27/27/2 28/42/2 26/41/2 25/25/2
f 28/31/3 30/32/3 29/30/3 26/29/3
f 30/44/4 32/36/4 31/34/4 29/43/4
f 30/45/5 28/46/5 27/38/5 32/37/5
f 31/38/6 25/37/6 26/45/6 29/46/6
f 33/49/6 34/50/6 19/48/6 13/47/6
f 35/51/2 33/52/2 13/34/2 14/36/2
f 34/53/4 36/54/4 20/27/4 19/25/4
f 36/49/5 35/50/5 14/48/5 20/47/5
f 37/55/6 38/56/6 25/37/6 31/38/6
f 39/59/4 37/60/4 31/58/4 32/57/4
f 38/63/2 40/64/2 27/62/2 25/61/2
f 40/55/5 39/56/5 32/37/5 27/38/5
f 15/65/6 16/66/6 34/50/6 33/49/6
f 17/67/2 15/68/2 33/52/2 35/51/2
f 16/69/4 18/70/4 36/54/4 34/53/4
f 18/65/5 17/66/5 35/50/5 36/49/5
f 21/71/6 22/72/6 38/56/6 37/55/6
f 23/67/4 21/68/4 37/60/4 39/59/4
f 22/69/2 24/70/2 40/64/2 38/63/2
f 24/71/5 23/72/5 39/56/5 40/55/5

