# ProBuilder 4.0.5
# https://unity3d.com/unity/features/worldbuilding/probuilder
# 2020/02/22 20:28:50

mtllib ./Room_W_06_L.mtl
o Room_W_06_L

g Room_W_06_L
v -0.5499992 0.6499996 3.85
v -0.5499992 0.6499996 3.75
v -0.5499992 1.25 3.85
v -0.5499992 1.25 3.75
v 0.5500013 0.6499996 3.75
v 0.5500013 1.25 3.75
v 0.5500013 0.6499996 3.85
v 0.5500013 1.25 3.85
v -3.69995 0.6499996 0.4999995
v -3.79995 0.6499996 0.4999995
v -3.69995 1.25 0.4999995
v -3.79995 1.25 0.4999995
v -3.79995 0.6499996 -0.6000009
v -3.79995 1.25 -0.6000009
v -3.69995 0.6499996 -0.6000009
v -3.69995 1.25 -0.6000009
v 3.80005 -1.25 3.8501
v 3.70005 -1.25 3.8501
v 3.80005 1.25 3.8501
v 3.70005 1.25 3.8501
v 3.70005 -1.25 -3.8501
v 3.80005 -1.25 -3.8501
v 3.70005 1.25 -3.8501
v 3.80005 1.25 -3.8501
v 3.70005 -1.25 -3.75
v 3.80005 -1.25 -3.75
v -3.80005 1.25 -3.75
v -3.80005 -1.25 -3.75
v -3.80005 1.25 -3.8501
v -3.80005 -1.25 -3.8501
v 3.80005 1.25 -3.75
v 3.70005 1.25 -3.75
v 3.80005 -1.25 3.75
v 3.700195 -1.25 3.75
v 3.80005 1.25 3.75
v -3.80005 -1.25 3.75
v -3.80005 1.25 3.75
v -3.80005 -1.25 3.8501
v -3.80005 1.25 3.8501
v 3.700195 1.25 3.75
v -3.69995 1.25 -0.5499997
v -3.69995 -1.25 -0.5499997
v -3.80005 1.25 -0.5499997
v -3.80005 -1.25 -0.5499997
v -3.69995 1.25 -3.8501
v -3.69995 1.25 -3.75
v -3.69995 -1.25 -3.75
v -3.69995 -1.25 -3.8501
v -3.69995 -1.25 0.4500003
v -3.69995 1.25 0.4500003
v -3.80005 -1.25 0.4500003
v -3.80005 1.25 0.4500003
v -3.69995 -1.25 3.8501
v -3.69995 -1.25 3.75
v -3.69995 1.25 3.75
v -3.69995 1.25 3.8501
v 3.70005 1.25 -0.5000501
v 3.70005 -1.25 -0.5000501
v 3.799805 1.25 -0.4999502
v 3.799805 -1.25 -0.4999502
v 3.80005 1.25 0.5
v 3.80005 -1.25 0.5
v 3.700195 1.25 0.5
v 3.700195 -1.25 0.5
v 3.799805 1.25 -3.7499
v 3.799805 -1.25 -3.7499
v 3.8 0.6499996 0.5499992
v 3.699999 0.6499996 0.5499992
v 3.8 1.25 0.5499992
v 3.699999 1.25 0.5499992
v 3.699999 0.6499996 -0.5500011
v 3.699999 1.25 -0.5500011
v 3.8 0.6499996 -0.5500011
v 3.8 1.25 -0.5500011
v -0.5 1.25 3.8501
v -0.5 -1.25 3.8501
v -0.5 1.25 3.7501
v -0.5 -1.25 3.7501
v 0.5 -1.25 3.8501
v 0.5 1.25 3.8501
v 0.5 -1.25 3.7501
v 0.5 1.25 3.7501
v -0.4999001 -1.25 -3.8501
v -0.4999001 1.25 -3.8501
v -0.4999001 -1.25 -3.7501
v -0.4999001 1.25 -3.7501
v 0.4999001 1.25 -3.8501
v 0.4999001 -1.25 -3.8501
v 0.4999001 1.25 -3.7501
v 0.4999001 -1.25 -3.7501
v -3.69995 -1.25 -3.7501
v -3.69995 1.25 -3.7501
v 3.70005 1.25 -3.7501
v 3.70005 -1.25 -3.7501
v -0.5499992 0.6499996 -3.75
v -0.5499992 0.6499996 -3.85
v -0.5499992 1.25 -3.75
v -0.5499992 1.25 -3.85
v 0.5500013 0.6499996 -3.85
v 0.5500013 1.25 -3.85
v 0.5500013 0.6499996 -3.75
v 0.5500013 1.25 -3.75

vt -3.75 0.6499996
vt -3.85 0.6499996
vt -3.75 1.25
vt -3.85 1.25
vt 0.5499992 0.6499996
vt -0.5500011 0.6499996
vt 0.5499992 1.25
vt -0.5500011 1.25
vt 3.85 0.6499996
vt 3.75 0.6499996
vt 3.85 1.25
vt 3.75 1.25
vt 0.5500011 0.6499996
vt -0.5499992 0.6499996
vt 0.5500011 1.25
vt -0.5499992 1.25
vt 0.5 -3.700001
vt 0.6000004 -3.700001
vt 0.5 -4.800002
vt 0.6000004 -4.800002
vt -0.5 -4.800002
vt -0.6000004 -4.800002
vt -0.5 -3.700001
vt -0.6000004 -3.700001
vt 7.100049 -0.3500004
vt 7.000049 -0.3500004
vt 7.100049 0.25
vt 7.000049 0.25
vt 0.5499997 -0.3500004
vt -0.5500007 -0.3500004
vt 0.5499997 0.25
vt -0.5500007 0.25
vt -7.000049 -0.3500004
vt -7.100049 -0.3500004
vt -7.000049 0.25
vt -7.100049 0.25
vt 0.5500007 -0.3500004
vt -0.5499997 -0.3500004
vt 0.5500007 0.25
vt -0.5499997 0.25
vt -7.100049 0.5499997
vt -7.000049 0.5499997
vt -7.100049 -0.5500007
vt -7.000049 -0.5500007
vt 7.100049 -0.5500007
vt 7.000049 -0.5500007
vt 7.100049 0.5499997
vt 7.000049 0.5499997
vt 7.10005 -0.75
vt 7.000051 -0.75
vt 7.10005 1.75
vt 7.000051 1.75
vt -7.000051 -0.75
vt -7.10005 -0.75
vt -7.000051 1.75
vt -7.10005 1.75
vt 7.000051 -7
vt 7.10005 -7
vt 7.000051 -7.1001
vt 7.10005 -7.1001
vt -7 1.75
vt -7 -0.75
vt 7 -0.75
vt 7 1.75
vt -7.10005 -7
vt -7.000051 -7
vt -7.10005 -7.1001
vt -7.000051 -7.1001
vt 7.10005 0.5000005
vt 7.000196 0.5000005
vt 7.10005 0.6001
vt 7.000051 0.6001
vt -0.5000005 1.75
vt -0.5000005 -0.75
vt -0.6001 1.75
vt -0.6001 -0.75
vt 0.5000005 -0.75
vt 0.5000005 1.75
vt 0.6001 -0.75
vt 0.6001 1.75
vt -7.000196 0.5000005
vt -7.10005 0.5000005
vt -7.000051 0.6001
vt -7.10005 0.6001
vt -0.39995 1.75
vt -0.39995 -0.75
vt 0.39995 -7.1001
vt 0.39995 -7
vt 0.5000505 -7.1001
vt 0.5000505 -7
vt -0.39995 -7
vt -0.39995 -7.1001
vt -0.5000505 -7
vt -0.5000505 -7.1001
vt 0.39995 -0.75
vt 0.39995 1.75
vt -0.39995 0.6001
vt -0.39995 0.5000005
vt -0.5000505 0.6001
vt -0.5000505 0.5000005
vt 0.39995 0.5000005
vt 0.39995 0.6001
vt 0.5000505 0.5000005
vt 0.5000505 0.6001
vt 2.8 -0.75
vt 2.8 1.75
vt -0.5000505 -2.8
vt -0.39995 -2.8
vt 0.39995 -2.8
vt 0.5000505 -2.8
vt -2.8 1.75
vt -2.8 -0.75
vt 3.8 1.75
vt 3.8 -0.75
vt 0.5000505 -3.8
vt 0.39995 -3.8
vt -0.39995 -3.8
vt -0.5000505 -3.8
vt -3.8 -0.75
vt -3.8 1.75
vt 6.996291 1.75
vt 6.996291 -0.75
vt 7.096046 1.75
vt 7.096046 -0.75
vt -3.75005 -0.75
vt -3.75005 1.75
vt -7.099805 -6.9999
vt -7.000051 -3.75005
vt -7.099805 -3.74995
vt 3.74995 1.75
vt 3.74995 -0.75
vt 7.099805 -6.9999
vt 7.099805 -3.74995
vt 7.00005 -3.75005
vt 2.75 -0.75
vt 2.75 1.75
vt -7.10005 -2.75
vt -7.000196 -2.75
vt -2.75 1.75
vt -2.75 -0.75
vt 7.000196 -2.75
vt 7.10005 -2.75
vt 3.3 0.8999996
vt 3.199999 0.8999996
vt 3.3 1.5
vt 3.199999 1.5
vt -3.200001 0.8999996
vt -4.300001 0.8999996
vt -3.200001 1.5
vt -4.300001 1.5
vt -3.199999 0.8999996
vt -3.3 0.8999996
vt -3.199999 1.5
vt -3.3 1.5
vt 4.300001 0.8999996
vt 3.200001 0.8999996
vt 4.300001 1.5
vt 3.200001 1.5
vt -3.3 -3.200001
vt -3.199999 -3.200001
vt -3.3 -4.300001
vt -3.199999 -4.300001
vt 3.3 -4.300001
vt 3.199999 -4.300001
vt 3.3 -3.200001
vt 3.199999 -3.200001
vt -0.1000998 1.5
vt -0.1000998 -1
vt -9.989738E-05 1.5
vt -9.989738E-05 -1
vt 0.1000998 -1
vt 0.1000998 1.5
vt 3.20005 -1
vt 3.20005 0.1000998
vt 3.20005 9.989738E-05
vt 0 0.1000998
vt 0 9.989738E-05
vt -3.20005 -1
vt -3.20005 9.989738E-05
vt -3.20005 0.1000998
vt -4.19995 -1
vt -4.19995 1.5
vt -1 -1
vt -1 1.5
vt 4.19995 0.1000998
vt 4.19995 9.989738E-05
vt 1 0.1000998
vt 1 9.989738E-05
vt 4.19995 1.5
vt 4.19995 -1
vt 1 1.5
vt 1 -1
vt -4.19995 9.989738E-05
vt -4.19995 0.1000998
vt -1 9.989738E-05
vt -1 0.1000998
vt 7.6001 -1
vt 7.6001 1.5
vt 7.5001 -1
vt 7.5001 1.5
vt -7.6001 1.5
vt -7.6001 -1
vt -7.5001 1.5
vt -7.5001 -1
vt 0.9999002 1.5
vt 0.9999002 -1
vt -4.19995 -7.6001
vt -4.19995 -7.5001
vt -0.9999002 -7.6001
vt -0.9999002 -7.5001
vt -0.9999002 -1
vt -0.9999002 1.5
vt 4.19995 -7.5001
vt 4.19995 -7.6001
vt 0.9999002 -7.5001
vt 0.9999002 -7.6001
vt -3.20005 -7.6001
vt -3.20005 -7.5001
vt 9.989738E-05 -7.6001
vt 9.989738E-05 -7.5001
vt 3.20005 -7.5001
vt 3.20005 -7.6001

vn -1 0 0
vn 0 0 -1
vn 1 0 0
vn 0 0 1
vn 0 1 0
vn 0 -1 0
vn -0.001001434 0 0.9999995

g Room_W_06_L
usemtl ProBuilderDefault
f 3/3/1 4/4/1 2/2/1 1/1/1
f 4/7/2 6/8/2 5/6/2 2/5/2
f 6/11/3 8/12/3 7/10/3 5/9/3
f 8/15/4 3/16/4 1/14/4 7/13/4
f 8/19/5 6/20/5 4/18/5 3/17/5
f 1/23/6 2/24/6 5/22/6 7/21/6
f 11/27/4 12/28/4 10/26/4 9/25/4
f 12/31/1 14/32/1 13/30/1 10/29/1
f 14/35/2 16/36/2 15/34/2 13/33/2
f 16/39/3 11/40/3 9/38/3 15/37/3
f 16/43/5 14/44/5 12/42/5 11/41/5
f 9/47/6 10/48/6 13/46/6 15/45/6
f 19/51/4 20/52/4 18/50/4 17/49/4
f 23/55/2 24/56/2 22/54/2 21/53/2
f 21/59/6 22/60/6 26/58/6 25/57/6
f 29/56/1 30/54/1 28/62/1 27/61/1
f 22/49/3 24/51/3 31/64/3 26/63/3
f 24/67/5 23/68/5 32/66/5 31/65/5
f 17/71/6 18/72/6 34/70/6 33/69/6
f 19/75/3 17/76/3 33/74/3 35/73/3
f 38/79/1 39/80/1 37/78/1 36/77/1
f 20/83/5 19/84/5 35/82/5 40/81/5
f 43/73/4 44/74/4 42/86/4 41/85/4
f 29/89/5 27/90/5 46/88/5 45/87/5
f 28/93/6 30/94/6 48/92/6 47/91/6
f 30/77/2 29/78/2 45/96/2 48/95/2
f 51/77/2 52/78/2 50/96/2 49/95/2
f 38/99/6 36/100/6 54/98/6 53/97/6
f 37/103/5 39/104/5 56/102/5 55/101/5
f 39/73/4 38/74/4 53/86/4 56/85/4
f 49/105/3 50/106/3 55/73/3 54/74/3
f 51/107/6 49/108/6 54/98/6 36/100/6
f 50/109/5 52/110/5 37/103/5 55/101/5
f 52/111/1 51/112/1 36/77/1 37/78/1
f 41/113/3 42/114/3 47/63/3 46/64/3
f 43/115/5 41/116/5 46/88/5 27/90/5
f 42/117/6 44/118/6 28/93/6 47/91/6
f 44/119/1 43/120/1 27/61/1 28/62/1
f 60/124/7 59/123/7 57/121/7 58/122/7
f 64/53/2 63/55/2 61/56/2 62/54/2
f 58/125/1 57/126/1 32/61/1 25/62/1
f 57/128/5 59/129/5 65/127/5 32/66/5
f 59/130/3 60/131/3 66/63/3 65/64/3
f 60/133/6 58/134/6 25/57/6 66/132/6
f 62/135/3 61/136/3 35/73/3 33/74/3
f 61/137/5 63/138/5 40/81/5 35/82/5
f 63/139/1 64/140/1 34/77/1 40/78/1
f 64/141/6 62/142/6 33/69/6 34/70/6
f 69/145/4 70/146/4 68/144/4 67/143/4
f 70/149/1 72/150/1 71/148/1 68/147/1
f 72/153/2 74/154/2 73/152/2 71/151/2
f 74/157/3 69/158/3 67/156/3 73/155/3
f 74/161/5 72/162/5 70/160/5 69/159/5
f 67/165/6 68/166/6 71/164/6 73/163/6
f 78/170/3 77/169/3 75/167/3 76/168/3
f 82/169/1 81/170/1 79/171/1 80/172/1
f 80/169/4 79/170/4 18/173/4 20/158/4
f 79/176/6 81/177/6 34/175/6 18/174/6
f 81/170/2 82/169/2 40/149/2 34/178/2
f 82/177/5 80/176/5 20/180/5 40/179/5
f 76/183/4 75/184/4 56/182/4 53/181/4
f 75/187/5 77/188/5 55/186/5 56/185/5
f 77/191/2 78/192/2 54/190/2 55/189/2
f 78/195/6 76/196/6 53/194/6 54/193/6
f 86/200/3 85/199/3 83/197/3 84/198/3
f 90/204/1 89/203/1 87/201/1 88/202/1
f 84/205/2 83/206/2 48/190/2 45/189/2
f 83/209/6 85/210/6 91/208/6 48/207/6
f 85/211/4 86/212/4 92/182/4 91/181/4
f 86/215/5 84/216/5 45/214/5 92/213/5
f 88/170/2 87/169/2 23/149/2 21/178/2
f 87/219/5 89/220/5 93/218/5 23/217/5
f 89/169/4 90/170/4 94/173/4 93/158/4
f 90/220/6 88/219/6 21/222/6 94/221/6
f 97/3/1 98/4/1 96/2/1 95/1/1
f 98/7/2 100/8/2 99/6/2 96/5/2
f 100/11/3 102/12/3 101/10/3 99/9/3
f 102/15/4 97/16/4 95/14/4 101/13/4
f 102/19/5 100/20/5 98/18/5 97/17/5
f 95/23/6 96/24/6 99/22/6 101/21/6

