# ProBuilder 4.0.5
# https://unity3d.com/unity/features/worldbuilding/probuilder
# 2020/02/22 20:27:20

mtllib ./H_Room_W_03_L.mtl
o H_Room_W_03_L

g Room_W_03_L
v -0.5499992 0.6499996 3.85
v -0.5499992 0.6499996 3.75
v -0.5499992 1.25 3.85
v -0.5499992 1.25 3.75
v 0.5500013 0.6499996 3.75
v 0.5500013 1.25 3.75
v 0.5500013 0.6499996 3.85
v 0.5500013 1.25 3.85
v -3.69995 0.6499996 0.4999994
v -3.79995 0.6499996 0.4999994
v -3.69995 1.25 0.4999994
v -3.79995 1.25 0.4999994
v -3.79995 0.6499996 -0.600001
v -3.79995 1.25 -0.600001
v -3.69995 0.6499996 -0.600001
v -3.69995 1.25 -0.600001
v 3.80005 -1.25 3.8501
v 3.70005 -1.25 3.8501
v 3.80005 1.25 3.8501
v 3.70005 1.25 3.8501
v 3.70005 -1.25 3.75
v 3.70005 -1.25 -3.75
v 3.70005 1.25 3.75
v 3.70005 1.25 -3.75
v 3.70005 -1.25 -3.8501
v 3.80005 -1.25 -3.8501
v 3.70005 1.25 -3.8501
v 3.80005 1.25 -3.8501
v 3.80005 -1.25 -3.75
v 3.80005 -1.25 3.75
v 3.80005 1.25 -3.75
v 3.80005 1.25 3.75
v -3.80005 1.25 -3.75
v -3.80005 -1.25 -3.75
v -3.80005 1.25 -3.8501
v -3.80005 -1.25 -3.8501
v -3.80005 -1.25 3.75
v -3.80005 1.25 3.75
v -3.80005 -1.25 3.8501
v -3.80005 1.25 3.8501
v -3.69995 1.25 -3.75
v -3.69995 -1.25 -3.75
v -3.69995 1.25 -3.8501
v -3.69995 -1.25 -3.8501
v -3.69995 1.25 -0.5499998
v -3.69995 -1.25 -0.5499998
v -3.80005 1.25 -0.5499998
v -3.80005 -1.25 -0.5499998
v -3.69995 -1.25 0.4500002
v -3.69995 1.25 0.4500002
v -3.80005 -1.25 0.4500002
v -3.80005 1.25 0.4500002
v -3.69995 -1.25 3.8501
v -3.69995 -1.25 3.75
v -3.69995 1.25 3.75
v -3.69995 1.25 3.8501
v 0.5000501 1.25 3.75
v 0.5000501 -1.25 3.75
v 0.4999499 1.25 3.849898
v 0.4999499 -1.25 3.849898
v 3.69995 1.25 3.849898
v 3.69995 -1.25 3.849898
v -0.5000501 -1.25 3.75
v -0.5000501 1.25 3.75
v -0.4999499 -1.25 3.849898
v -0.4999499 1.25 3.849898
v -3.69985 -1.25 3.849898
v -3.69985 1.25 3.849898

vt 0 0.3999996
vt -0.1000004 0.3999996
vt 0 1
vt -0.1000004 1
vt 0.04999924 0.3999996
vt -1.050001 0.3999996
vt 0.04999924 1
vt -1.050001 1
vt 0.1000004 0.3999996
vt 0.1000004 1
vt 1.050001 0.3999996
vt -0.04999924 0.3999996
vt 1.050001 1
vt -0.04999924 1
vt 7.450581E-09 0.04999924
vt 0.1000004 0.04999924
vt -7.450581E-09 -1.050001
vt 0.1000004 -1.050001
vt -0.1000004 -1.050001
vt -0.1000004 0.04999924
vt 3.80005 -0.8500004
vt 3.70005 -0.8500004
vt 3.80005 -0.25
vt 3.70005 -0.25
vt 3.8 -0.8500004
vt 2.699999 -0.8500004
vt 3.8 -0.25
vt 2.699999 -0.25
vt -3.70005 -0.8500004
vt -3.80005 -0.8500004
vt -3.70005 -0.25
vt -3.80005 -0.25
vt -2.699999 -0.8500004
vt -3.8 -0.8500004
vt -2.699999 -0.25
vt -3.8 -0.25
vt -3.80005 3.8
vt -3.70005 3.8
vt -3.80005 2.699999
vt -3.70005 2.699999
vt 3.80005 2.699999
vt 3.70005 2.699999
vt 3.80005 3.8
vt 3.70005 3.8
vt 3.80005 -1.25
vt 3.70005 -1.25
vt 3.80005 1.25
vt 3.70005 1.25
vt 3.75 -1.25
vt -3.75 -1.25
vt 3.75 1.25
vt -3.75 1.25
vt -3.70005 -1.25
vt -3.80005 -1.25
vt -3.70005 1.25
vt -3.80005 1.25
vt 3.75 -1.25
vt -3.75 -1.25
vt 3.75 1.25
vt -3.75 1.25
vt -3.80005 3.75
vt -3.70005 3.75
vt -3.80005 -3.75
vt -3.70005 -3.75
vt 3.80005 -3.75
vt 3.70005 -3.75
vt 3.80005 3.75
vt 3.70005 3.75
vt 3.70005 -3.8501
vt 3.80005 -3.8501
vt -3.8501 1.25
vt -3.8501 -1.25
vt 3.8501 -1.25
vt 3.8501 1.25
vt -3.80005 -3.8501
vt -3.70005 -3.8501
vt 3.80005 3.8501
vt 3.70005 3.8501
vt -3.70005 3.8501
vt -3.80005 3.8501
vt -3.69995 1.25
vt -3.69995 -1.25
vt 3.69995 -3.850101
vt 3.69995 -3.749998
vt -3.69995 -3.75
vt -3.69995 -3.8501
vt 3.69995 -1.25
vt 3.69995 1.25
vt -3.69995 3.8501
vt -3.69995 3.75
vt 3.69995 3.75
vt 3.69995 3.8501
vt -0.4500002 -1.25
vt -0.4500002 1.25
vt -3.80005 0.4500002
vt -3.69995 0.4500002
vt 3.69995 0.4500002
vt 3.80005 0.4500002
vt 0.4500002 1.25
vt 0.4500002 -1.25
vt 0.5499998 1.25
vt 0.5499998 -1.25
vt 3.80005 -0.5499998
vt 3.69995 -0.5499998
vt -3.69995 -0.5499998
vt -3.80005 -0.5499998
vt -0.5499998 -1.25
vt -0.5499998 1.25
vt 3.749497 1.25
vt 3.749497 -1.25
vt 3.849395 1.25
vt 3.849395 -1.25
vt -0.5000501 -1.25
vt -0.5000501 1.25
vt -3.69995 3.849898
vt -0.5000501 3.75
vt -0.4999499 3.849898
vt 0.4999499 1.25
vt 0.4999499 -1.25
vt 3.69995 3.849898
vt 0.4999499 3.849898
vt 0.5000501 3.75
vt -3.749497 -1.25
vt -3.749497 1.25
vt -3.849395 -1.25
vt -3.849395 1.25
vt 0.5000501 1.25
vt 0.5000501 -1.25
vt -0.4999499 -1.25
vt -0.4999499 1.25

vn -1 0 0
vn 0 0 -1
vn 1 0 0
vn 0 0 1
vn 0 1 0
vn 0 -1 0
vn -0.9999995 0 -0.001002381
vn 0.9999995 0 -0.001002381

g Room_W_03_L
usemtl ProBuilderDefault
f 3/3/1 4/4/1 2/2/1 1/1/1
f 4/7/2 6/8/2 5/6/2 2/5/2
f 6/10/3 8/3/3 7/1/3 5/9/3
f 8/13/4 3/14/4 1/12/4 7/11/4
f 8/17/5 6/18/5 4/16/5 3/15/5
f 1/15/6 2/20/6 5/19/6 7/17/6
f 11/23/4 12/24/4 10/22/4 9/21/4
f 12/27/1 14/28/1 13/26/1 10/25/1
f 14/31/2 16/32/2 15/30/2 13/29/2
f 16/35/3 11/36/3 9/34/3 15/33/3
f 16/39/5 14/40/5 12/38/5 11/37/5
f 9/43/6 10/44/6 13/42/6 15/41/6
f 19/47/4 20/48/4 18/46/4 17/45/4
f 23/51/1 24/52/1 22/50/1 21/49/1
f 27/55/2 28/56/2 26/54/2 25/53/2
f 31/59/3 32/60/3 30/58/3 29/57/3
f 31/63/5 24/64/5 23/62/5 32/61/5
f 30/67/6 21/68/6 22/66/6 29/65/6
f 25/69/6 26/70/6 29/65/6 22/66/6
f 35/71/1 36/72/1 34/50/1 33/52/1
f 26/73/3 28/74/3 31/59/3 29/57/3
f 28/75/5 27/76/5 24/64/5 31/63/5
f 17/77/6 18/78/6 21/68/6 30/67/6
f 19/71/3 17/72/3 30/58/3 32/60/3
f 39/73/1 40/74/1 38/51/1 37/49/1
f 20/79/5 19/80/5 32/61/5 23/62/5
f 41/81/4 42/82/4 22/46/4 24/48/4
f 43/83/5 41/84/5 24/64/5 27/76/5
f 42/85/6 44/86/6 25/69/6 22/66/6
f 44/87/2 43/88/2 27/55/2 25/53/2
f 47/56/4 48/54/4 46/82/4 45/81/4
f 35/70/5 33/65/5 41/84/5 43/83/5
f 34/63/6 36/75/6 44/86/6 42/85/6
f 36/45/2 35/47/2 43/88/2 44/87/2
f 51/45/2 52/47/2 50/88/2 49/87/2
f 39/80/6 37/61/6 54/90/6 53/89/6
f 38/67/5 40/77/5 56/92/5 55/91/5
f 40/56/4 39/54/4 53/82/4 56/81/4
f 49/93/3 50/94/3 55/60/3 54/58/3
f 51/95/6 49/96/6 54/90/6 37/61/6
f 50/97/5 52/98/5 38/67/5 55/91/5
f 52/99/1 51/100/1 37/49/1 38/51/1
f 45/101/3 46/102/3 42/57/3 41/59/3
f 47/103/5 45/104/5 41/84/5 33/65/5
f 46/105/6 48/106/6 34/63/6 42/85/6
f 48/107/1 47/108/1 33/52/1 34/50/1
f 60/112/7 59/111/7 57/109/7 58/110/7
f 58/113/2 57/114/2 23/55/2 21/53/2
f 57/116/5 59/117/5 61/115/5 23/62/5
f 59/118/4 60/119/4 62/87/4 61/88/4
f 60/121/6 58/122/6 21/68/6 62/120/6
f 66/126/8 65/125/8 63/123/8 64/124/8
f 64/127/2 63/128/2 54/87/2 55/88/2
f 63/116/6 65/117/6 67/115/6 54/90/6
f 65/129/4 66/130/4 68/81/4 67/82/4
f 66/121/5 64/122/5 55/91/5 68/120/5

