# ProBuilder 4.0.5
# https://unity3d.com/unity/features/worldbuilding/probuilder
# 2020/01/17 11:54:17

mtllib ./Room_l_00.mtl
o Room_l_00

g Room_l_00
v 0 -1.25 8.4
v -7.5 -1.25 8.4
v 0 -1.15 8.4
v -7.5 -1.15 8.4
v -7.5 -1.25 0.9000001
v -7.5 -1.15 0.9000001
v 0 -1.25 0.9000001
v 0 -1.15 0.9000001
v -0.0999999 -1.25 8.4
v 0 1.25 8.4
v -0.0999999 1.25 8.4
v -0.0999999 -1.25 8.3
v -0.0999999 1.25 8.3
v 0 -1.25 8.3
v 0 1.25 8.3
v -7.4 -1.25 8.4
v -7.4 1.25 8.4
v -7.5 1.25 8.4
v -7.5 -1.25 8.3
v -7.5 1.25 8.3
v -7.4 -1.25 8.3
v -7.4 1.25 8.3
v 0 1.15 8.4
v -7.5 1.15 8.4
v -7.5 1.15 0.9000001
v -7.5 1.25 0.9000001
v 0 1.15 0.9000001
v 0 1.25 0.9000001
v 0 -1.25 1
v -0.0999999 -1.25 1
v 0 1.25 1
v -0.0999999 1.25 1
v -0.0999999 -1.25 0.9000001
v -0.0999999 1.25 0.9000001
v -7.4 -1.25 1
v -7.5 -1.25 1
v -7.4 1.25 1
v -7.5 1.25 1
v -7.4 -1.25 0.9000001
v -7.4 1.25 0.9000001

vt -3.65 -1.25
vt -11.15 -1.25
vt -3.65 -1.15
vt -11.15 -1.15
vt 11.15 -1.25
vt 3.65 -1.25
vt 11.15 -1.15
vt 3.65 -1.15
vt 3.65 -3.65
vt 11.15 -3.65
vt 3.65 -11.15
vt 11.15 -11.15
vt -3.65 -11.15
vt -11.15 -11.15
vt -3.65 -3.65
vt -11.15 -3.65
vt -3.75 -1.25
vt -3.650001 1.25
vt -3.75 1.25
vt 3.75 -1.25
vt 3.75 1.25
vt 3.650001 1.25
vt 3.75 -3.650001
vt 3.650001 -3.75
vt 3.75 -3.75
vt -3.650001 -3.75
vt -3.75 -3.75
vt -3.75 -3.650001
vt -3.65 -1.15
vt -11.15 -1.15
vt 11.15 -1.15
vt 3.65 -1.15

vn 0 0 1
vn -1 0 0
vn 0 0 -1
vn 1 0 0
vn 0 1 0
vn 0 -1 0

g Room_l_00
usemtl ProBuilderDefault
f 3/3/1 4/4/1 2/2/1 1/1/1
f 4/3/2 6/4/2 5/2/2 2/1/2
f 6/7/3 8/8/3 7/6/3 5/5/3
f 8/7/4 3/8/4 1/6/4 7/5/4
f 8/11/5 6/12/5 4/10/5 3/9/5
f 1/15/6 2/16/6 5/14/6 7/13/6
f 10/18/1 11/19/1 9/17/1 1/1/1
f 11/18/2 13/19/2 12/17/2 9/1/2
f 13/21/3 15/22/3 14/6/3 12/20/3
f 15/21/4 10/22/4 1/6/4 14/20/4
f 15/24/5 13/25/5 11/23/5 10/9/5
f 1/15/6 9/28/6 12/27/6 14/26/6
f 17/18/1 18/19/1 2/17/1 16/1/1
f 18/18/2 20/19/2 19/17/2 2/1/2
f 20/21/3 22/22/3 21/6/3 19/20/3
f 22/21/4 17/22/4 16/6/4 21/20/4
f 22/24/5 20/25/5 18/23/5 17/9/5
f 16/15/6 2/28/6 19/27/6 21/26/6
f 10/29/1 18/30/1 24/2/1 23/1/1
f 18/29/2 26/30/2 25/2/2 24/1/2
f 26/31/3 28/32/3 27/6/3 25/5/3
f 28/31/4 10/32/4 23/6/4 27/5/4
f 28/11/5 26/12/5 18/10/5 10/9/5
f 23/15/6 24/16/6 25/14/6 27/13/6
f 31/18/1 32/19/1 30/17/1 29/1/1
f 32/18/2 34/19/2 33/17/2 30/1/2
f 34/21/3 28/22/3 7/6/3 33/20/3
f 28/21/4 31/22/4 29/6/4 7/20/4
f 28/24/5 34/25/5 32/23/5 31/9/5
f 29/15/6 30/28/6 33/27/6 7/26/6
f 37/18/1 38/19/1 36/17/1 35/1/1
f 38/18/2 26/19/2 5/17/2 36/1/2
f 26/21/3 40/22/3 39/6/3 5/20/3
f 40/21/4 37/22/4 35/6/4 39/20/4
f 40/24/5 26/25/5 38/23/5 37/9/5
f 35/15/6 36/28/6 5/27/6 39/26/6

