# ProBuilder 4.0.5
# https://unity3d.com/unity/features/worldbuilding/probuilder
# 2020/01/17 14:32:16

mtllib ./Wall_m_00.mtl
o Wall_m_00

g Wall_m_00
v 8.099999 -1.25 -10.73
v 3.099999 -1.25 -10.73
v 8.099999 1.25 -10.73
v 3.099999 1.25 -10.73
v 3.099999 -1.25 -10.83
v 3.099999 1.25 -10.83
v 8.099999 -1.25 -10.83
v 8.099999 1.25 -10.83

vt 2.5 -1.25
vt -2.5 -1.25
vt 2.5 1.25
vt -2.5 1.25
vt 0.05000019 -1.25
vt -0.04999981 -1.25
vt 0.05000019 1.25
vt -0.04999981 1.25
vt 0.04999981 -1.25
vt -0.05000019 -1.25
vt 0.04999981 1.25
vt -0.05000019 1.25
vt -2.5 0.05000019
vt 2.5 0.05000019
vt -2.5 -0.04999981
vt 2.5 -0.04999981

vn 0 0 1
vn -1 0 0
vn 0 0 -1
vn 1 0 0
vn 0 1 0
vn 0 -1 0

g Wall_m_00
usemtl ProBuilderDefault
f 3/3/1 4/4/1 2/2/1 1/1/1
f 4/7/2 6/8/2 5/6/2 2/5/2
f 6/3/3 8/4/3 7/2/3 5/1/3
f 8/11/4 3/12/4 1/10/4 7/9/4
f 8/15/5 6/16/5 4/14/5 3/13/5
f 1/14/6 2/13/6 5/15/6 7/16/6

