# ProBuilder 4.0.5
# https://unity3d.com/unity/features/worldbuilding/probuilder
# 2020/01/30 13:00:45

mtllib ./Road_03.mtl
o Road_03

g Road_03
v 55 0 -73
v 55 0 -71
v 52 0 -73
v 52 0 -71
v 52 0.0001 -80
v 55 0.0001 -80
v 50 0.0001 -73
v 50 0.0002 -80
v 48 0.0002 -73
v 48 0.0003 -80
v 48 0.0004 -83
v 50 0.0003 -83
v 48 0.0005 -90
v 50 0.0004 -90
v 56 0.0005 -90
v 56 0.0004 -83
v 59 0.0006 -90
v 59 0.0005 -83
v 59 0.0006 -80
v 56 0.0005 -80
v 62 0.0006 -83
v 62 0.0007 -80
v 65 0.0007 -83
v 65 0.0008 -80
v 62 0.0007 -88
v 65 0.0008 -88
v 65 0.0009 -77
v 62 0.0008 -77
v 68 0.0008 -83
v 68 0.0009 -80
v 52 0.0005 -92
v 54 0.0006 -92
v 52 0.0006 -95
v 54 0.0007 -95
v 57 0.0007 -92
v 50 0.0006 -92
v 45 0.0006 -92
v 45 0.0007 -95
v 42 0.0007 -92
v 42 0.0008 -95
v 42 0.0009 -98
v 45 0.0008 -98
v 42 0.0009999999 -101
v 45 0.0009 -101
v 42 0.0011 -104
v 45 0.0009999999 -104
v 52 0.0011 -104
v 52 0.0009999999 -101
v 55 0.0012 -104
v 55 0.0011 -101
v 52 0.0012 -107
v 55 0.0013 -107
v 52 0.0013 -115
v 55 0.0014 -115
v 48 0.0013 -107
v 48 0.0014 -115
v 58 0.0015 -115
v 58 0.0014 -107
v 39 0.0011 -101
v 39 0.0012 -104
v 39 0.0013 -107
v 42 0.0012 -107
v 39 0.0014 -115
v 42 0.0013 -115
v 46 0.0014 -115
v 46 0.0013 -107
v 36 0.0014 -107
v 36 0.0015 -115
v 45 0.0007 -90
v 42 0.0008 -90
v 39 0.0008 -92
v 39 0.0009 -95
v 39 0.0009 -90
v 35 0.0009 -92
v 35 0.0009999999 -95
v 35 0.0009999999 -90
v 39 0.0009999999 -86
v 35 0.0011 -86
v 39 0.0011 -83
v 35 0.0012 -83
v 41 0.0011 -86
v 41 0.0012 -83
v 39 0.0012 -80
v 35 0.0013 -80
v 44 0.0012 -86
v 44 0.0013 -83
v 39 0.0013 -65
v 35 0.0014 -65
v 28 0.0015 -65
v 28 0.0014 -80
v 24 0.0016 -75
v 24 0.0015 -80
v 28 0.0016 -74
v 24 0.0017 -74
v 22 0.0017 -75
v 22 0.0016 -80
v 28 0.0009999999 -92
v 28 0.0011 -95
v 24 0.0011 -92
v 24 0.0012 -95
v 28 0.0011 -89
v 24 0.0012 -89
v 28 0.0012 -86
v 24 0.0013 -86
v 22 0.0014 -86
v 22 0.0013 -89
v 24 0.0013 -100
v 28 0.0012 -100
v 24 0.0014 -104
v 28 0.0013 -104
v 31 0.0014 -104
v 31 0.0013 -100
v 24 0.0015 -107
v 28 0.0014 -107
v 21 0.0014 -100
v 21 0.0015 -104
v 22 0.0018 -74

vt 0 -1
vt 0 1
vt 3 -1
vt 3 1
vt 3 -8
vt 0 -8
vt 5 -1
vt 5 -8
vt 7 -1
vt 7 -8
vt 7 -11
vt 5 -11
vt 7 -18
vt 5 -18
vt -1 -18
vt -1 -11
vt -4 -18
vt -4 -11
vt -4 -8
vt -1 -8
vt -7 -11
vt -7 -8
vt -10 -11
vt -10 -8
vt -7 -16
vt -10 -16
vt -10 -5
vt -7 -5
vt -13 -11
vt -13 -8
vt 3 -20
vt 1 -20
vt 0.9999999 -20
vt 3 -23
vt 0.9999999 -23
vt -2 -20
vt 5 -20
vt 10 -20
vt 10 -23
vt 13 -20
vt 13 -23
vt 13 -26
vt 10 -26
vt 13 -29
vt 10 -29
vt 13 -32
vt 10 -32
vt 3 -32
vt 3 -29
vt -3.999997E-08 -32
vt -3.666664E-08 -29
vt 3 -35
vt -4.33333E-08 -35
vt 3 -43
vt -4.666663E-08 -43
vt 7 -35
vt 7 -43
vt -3 -43
vt -3 -35
vt 16 -29
vt 16 -32
vt 16 -35
vt 13 -35
vt 16 -43
vt 13 -43
vt 9 -43
vt 9 -35
vt 19 -35
vt 19 -43
vt 10 -18
vt 13 -18
vt 16 -20
vt 16 -23
vt 16 -18
vt 20 -20
vt 20 -23
vt 20 -18
vt 16 -14
vt 20 -14
vt 16 -11
vt 20 -11
vt 14 -14
vt 14 -11
vt 16 -8
vt 20 -8
vt 11 -14
vt 11 -11
vt 16 7
vt 20 7
vt 27 7
vt 27 -8
vt 31 -3
vt 31 -8
vt -27 7
vt -31 -3
vt -27 -2
vt -31 -2
vt 33 -3
vt 33 -8
vt 27 -20
vt 27 -23
vt 31 -20
vt 31 -23
vt 27 -17
vt 31 -17
vt 27 -14
vt 31 -14
vt 33 -14
vt 33 -17
vt 31 -28
vt 27 -28
vt 31 -32
vt 27 -32
vt 24 -32
vt 24 -28
vt 31 -35
vt 27 -35
vt 34 -28
vt 34 -32
vt 31 -2
vt 33 -2

vn 0 1 0
vn 2.777776E-06 -1 -1.11111E-05
vn 1.388888E-05 0 -5.555553E-05

g Road_03
usemtl ProBuilderDefault
f 3/3/1 4/4/1 2/2/1 1/1/1
f 6/6/1 5/5/1 3/3/1 1/1/1
f 8/8/1 7/7/1 3/3/1 5/5/1
f 10/10/1 9/9/1 7/7/1 8/8/1
f 12/12/1 11/11/1 10/10/1 8/8/1
f 14/14/1 13/13/1 11/11/1 12/12/1
f 16/16/1 15/15/1 14/14/1 12/12/1
f 18/18/1 17/17/1 15/15/1 16/16/1
f 20/20/1 19/19/1 18/18/1 16/16/1
f 22/22/1 21/21/1 18/18/1 19/19/1
f 24/24/1 23/23/1 21/21/1 22/22/1
f 26/26/1 25/25/1 21/21/1 23/23/1
f 28/28/1 27/27/1 24/24/1 22/22/1
f 30/30/1 29/29/1 23/23/1 24/24/1
f 32/32/1 31/31/1 14/14/1 15/15/1
f 34/35/1 33/34/1 31/31/1 32/33/1
f 17/17/1 35/36/1 32/32/1 15/15/1
f 36/37/1 13/13/1 14/14/1 31/31/1
f 38/39/1 37/38/1 31/31/1 33/34/1
f 40/41/1 39/40/1 37/38/1 38/39/1
f 42/43/1 41/42/1 40/41/1 38/39/1
f 44/45/1 43/44/1 41/42/1 42/43/1
f 46/47/1 45/46/1 43/44/1 44/45/1
f 48/49/1 47/48/1 46/47/1 44/45/1
f 50/51/1 49/50/1 47/48/1 48/49/1
f 52/53/1 51/52/1 47/48/1 49/50/1
f 54/55/1 53/54/1 51/52/1 52/53/1
f 56/57/1 55/56/1 51/52/1 53/54/1
f 58/59/1 57/58/1 54/55/1 52/53/1
f 60/61/1 59/60/1 43/44/1 45/46/1
f 62/63/1 61/62/1 60/61/1 45/46/1
f 64/65/1 63/64/1 61/62/1 62/63/1
f 66/67/1 65/66/1 64/65/1 62/63/1
f 68/69/1 67/68/1 61/62/1 63/64/1
f 70/71/1 69/70/1 37/38/1 39/40/1
f 72/73/1 71/72/1 39/40/1 40/41/1
f 71/72/1 73/74/1 70/71/1 39/40/1
f 75/76/1 74/75/1 71/72/1 72/73/1
f 74/75/1 76/77/1 73/74/1 71/72/1
f 78/79/1 77/78/1 73/74/1 76/77/1
f 80/81/1 79/80/1 77/78/1 78/79/1
f 82/83/1 81/82/1 77/78/1 79/80/1
f 84/85/1 83/84/1 79/80/1 80/81/1
f 86/87/1 85/86/1 81/82/1 82/83/1
f 88/89/1 87/88/1 83/84/1 84/85/1
f 90/91/1 89/90/1 88/89/1 84/85/1
f 92/93/1 91/92/1 89/90/1 90/91/1
f 94/97/1 93/96/3 89/94/2 91/95/3
f 96/99/1 95/98/1 91/92/1 92/93/1
f 98/101/1 97/100/1 74/75/1 75/76/1
f 100/103/1 99/102/1 97/100/1 98/101/1
f 102/105/1 101/104/1 97/100/1 99/102/1
f 104/107/1 103/106/1 101/104/1 102/105/1
f 106/109/1 105/108/1 104/107/1 102/105/1
f 108/111/1 107/110/1 100/103/1 98/101/1
f 110/113/1 109/112/1 107/110/1 108/111/1
f 112/115/1 111/114/1 110/113/1 108/111/1
f 114/117/1 113/116/1 109/112/1 110/113/1
f 116/119/1 115/118/1 107/110/1 109/112/1
f 117/121/1 94/120/1 91/92/1 95/98/1

