# ProBuilder 4.0.5
# https://unity3d.com/unity/features/worldbuilding/probuilder
# 2020/02/05 10:45:41

mtllib ./Road_04.mtl
o Road_04

g Road_04
v 11 0.0001 -53
v 14 0 -53
v 11 0.0002 -59
v 14 0.0001 -59
v 14 0.0001 -50
v 11 0.0002 -50
v 4 0.0003 -50
v 4 0.0002 -53
v 1 0.0004 -50
v 1 0.0003 -53
v -4 0.0005 -50
v -4 0.0004 -53
v -7 0.0006 -50
v -7 0.0005 -53
v -7 0.0009999999 -32
v -7 0.0009 -35
v -10 0.0011 -32
v -10 0.0009999999 -35
v -7 0.0009999999 -41
v -10 0.0011 -41
v -7 0.0011 -44
v -10 0.0012 -44
v -7 0.0012 -50
v -10 0.0013 -50
v -10 0.0007 -50
v -10 0.0006 -53
v -16 0.0014 -44
v -13 0.0013 -44
v -16 0.0015 -46
v -13 0.0014 -46
v -10 0.0013 -46
v -16 0.0016 -53
v -13 0.0015 -53
v -16 0.0017 -61
v -13 0.0016 -61
v -20 0.0017 -53
v -20 0.0018 -61
v -28 0.0018 -53
v -28 0.001899999 -61
v -28 0.001999999 -62
v -20 0.001899999 -62
v -16 0.0018 -62
v -13 0.0017 -62
v -28 0.002099999 -70
v -20 0.001999999 -70
v -16 0.001899999 -70
v -13 0.0018 -70
v -28 0.0022 -71
v -20 0.002099999 -71
v -16 0.001999999 -71
v -13 0.001899999 -71
v -28 0.0023 -79
v -20 0.0022 -79
v -16 0.002099999 -79
v -13 0.001999999 -79
v -16 0.0022 -82
v -13 0.002099999 -82
v -20 0.0023 -82
v -16 0.0023 -85
v -13 0.0022 -85
v -16 0.0024 -88
v -13 0.0023 -88
v -10 0.0024 -88
v -10 0.0023 -85
v -13 0.0024 -91
v -10 0.0025 -91

vt 7 3
vt 4 3
vt 7 -3
vt 4 -3
vt 4 6
vt 7 6
vt 14 6
vt 14 3
vt 17 6
vt 17 3
vt 22 6
vt 22 3
vt 25 6
vt 25 3
vt 25 24
vt 25 21
vt 28 24
vt 28 21
vt 25 15
vt 28 15
vt 25 12
vt 28 12
vt 28 6
vt 28 3
vt 34 12
vt 31 12
vt 34 10
vt 31 10
vt 28 10
vt 34 3
vt 31 3
vt 34 -5
vt 31 -5
vt 38 3
vt 38 -5
vt 46 3
vt 46 -5
vt 46 -6
vt 38 -6
vt 34 -6
vt 31 -6
vt 46 -14
vt 38 -14
vt 34 -14
vt 31 -14
vt 46 -15
vt 38 -15
vt 34 -15
vt 31 -15
vt 46 -23
vt 38 -23
vt 34 -23
vt 31 -23
vt 34 -26
vt 31 -26
vt 38 -26
vt 34 -29
vt 31 -29
vt 34 -32
vt 31 -32
vt 28 -32
vt 28 -29
vt 31 -35
vt 28 -35

vn 3.333333E-05 1 1.666667E-05

g Road_04
usemtl ProBuilderDefault
f 4/4/1 3/3/1 1/1/1 2/2/1
f 6/6/1 5/5/1 2/2/1 1/1/1
f 8/8/1 7/7/1 6/6/1 1/1/1
f 10/10/1 9/9/1 7/7/1 8/8/1
f 12/12/1 11/11/1 9/9/1 10/10/1
f 14/14/1 13/13/1 11/11/1 12/12/1
f 18/18/1 17/17/1 15/15/1 16/16/1
f 20/20/1 18/18/1 16/16/1 19/19/1
f 22/22/1 20/20/1 19/19/1 21/21/1
f 24/23/1 22/22/1 21/21/1 23/13/1
f 26/24/1 25/23/1 13/13/1 14/14/1
f 30/28/1 29/27/1 27/25/1 28/26/1
f 31/29/1 30/28/1 28/26/1 22/22/1
f 33/31/1 32/30/1 29/27/1 30/28/1
f 35/33/1 34/32/1 32/30/1 33/31/1
f 37/35/1 36/34/1 32/30/1 34/32/1
f 39/37/1 38/36/1 36/34/1 37/35/1
f 41/39/1 40/38/1 39/37/1 37/35/1
f 42/40/1 41/39/1 37/35/1 34/32/1
f 43/41/1 42/40/1 34/32/1 35/33/1
f 45/43/1 44/42/1 40/38/1 41/39/1
f 46/44/1 45/43/1 41/39/1 42/40/1
f 47/45/1 46/44/1 42/40/1 43/41/1
f 49/47/1 48/46/1 44/42/1 45/43/1
f 50/48/1 49/47/1 45/43/1 46/44/1
f 51/49/1 50/48/1 46/44/1 47/45/1
f 53/51/1 52/50/1 48/46/1 49/47/1
f 54/52/1 53/51/1 49/47/1 50/48/1
f 55/53/1 54/52/1 50/48/1 51/49/1
f 57/55/1 56/54/1 54/52/1 55/53/1
f 56/54/1 58/56/1 53/51/1 54/52/1
f 60/58/1 59/57/1 56/54/1 57/55/1
f 62/60/1 61/59/1 59/57/1 60/58/1
f 64/62/1 63/61/1 62/60/1 60/58/1
f 66/64/1 65/63/1 62/60/1 63/61/1

