# ProBuilder 4.0.5
# https://unity3d.com/unity/features/worldbuilding/probuilder
# 2020/02/13 16:09:43

mtllib ./Road_01_00.mtl
o Road_01_00

g Road_01
v 37 0 8
v 35 0 8
v 37 3 8
v 35 3 8
v 35 0 6
v 35 3 6
v 37 0 6
v 37 3 6
v 29 0 8.5
v 27 0 8.5
v 29 3 8.5
v 27 3 8.5
v 27 0 6.5
v 27 3 6.5
v 29 0 6.5
v 29 3 6.5
v 37 0 -1
v 35 0 -1
v 37 3 -1
v 35 3 -1
v 35 0 -3
v 35 3 -3
v 37 0 -3
v 37 3 -3
v 29 0 -1
v 27 0 -1
v 29 3 -1
v 27 3 -1
v 27 0 -3
v 27 3 -3
v 29 0 -3
v 29 3 -3
v 19 0 1
v 19 0 7
v 16 0 1
v 16 0 7
v 16 0.0001 -2
v 19 0.0001 -2
v 44 0.0006 -2
v 44 0.0007 1
v 49 0.0007 -2
v 49 0.0008 1
v 52 0.0008 -2
v 52 0.0009 1
v 52 0.0009999999 4
v 49 0.0009 4
v 52 0.0011 7
v 49 0.0009999999 7
v 52 0.0012 13
v 49 0.0011 13
v 46 0.0011 7
v 46 0.0009999999 4
v 46 0.0012 13
v 43 0.0013 13
v 43 0.0012 7
v 55 0.0012 7
v 55 0.0013 13
v 55 0.0009 -2
v 55 0.0009999999 1
v 52 0.0009 -21
v 55 0.0009999999 -21
v 23 0.0002 -2
v 23 0.0001 1
v 25 0.0003 -2
v 25 0.0002 1
v 23 0.0003 -7
v 25 0.0004 -7
v 23 0.0004 -10
v 25 0.0005 -10
v 23 0.0005 -13
v 25 0.0006 -13
v 37 0.0006 -7
v 29 0.0005 -7
v 37 0.0007 -0.5
v 29 0.0006 -0.5
v 37 0.0008 3
v 29 0.0007 3
v 41 0.0008 -0.5
v 41 0.0009 3
v 37 0.0009 9
v 29 0.0008 9
v 37 0.0009999999 13
v 29 0.0009 13
v 26 0.0009999999 13
v 26 0.0009 9
v 34 0.0011 13
v 30.92974 0.0009999999 13
v 34 0.0011 15.9999
v 34 0.0012 19
v 38 0.0012 15.9999
v 38 0.0013 19
v 41 0.0013 15.9999
v 41 0.0014 19
v 38 0.0013 11
v 41 0.0014 11
v 38 0.0014 8
v 41 0.0015 8
v 43 0.0016 8
v 43 0.0015 11
v 29 0.0007 1.5
v 29 0.0006 -7
v 27.0001 0.0007 1.5
v 27.0001 0.0006 -7
v 23.5 0.0009 9
v 23.5 0.0008 3
v 27 0.0008 3
v 27 0.0007 -0.5
v 41 0.0009999999 6
v 37 0.0009 6
v 23 0.0006 -16
v 25 0.0007 -16
v 38 0.0012 13
v 34 0 4
v 32 0 4
v 34 3 4
v 32 3 4
v 32 0 2
v 32 3 2
v 34 0 2
v 34 3 2
v 39 0 4
v 37 0 4
v 39 3 4
v 37 3 4
v 37 0 2
v 37 3 2
v 39 0 2
v 39 3 2
v 48.5 0 11
v 46.5 0 11
v 48.5 3 11
v 46.5 3 11
v 46.5 0 9
v 46.5 3 9
v 48.5 0 9
v 48.5 3 9
v 29 0 4
v 27 0 4
v 29 3 4
v 27 3 4
v 27 0 2
v 27 3 2
v 29 0 2
v 29 3 2
v 32 1 4
v 29 1 4
v 29 1 2
v 32 1 2
v 23 0.0007 -18
v 25 0.0008 -18
v 27 0.0009 -18
v 27 0.0008 -16
v 29 0.0009999999 -18
v 29 0.0009 -16
v 22 0.0005 -10
v 22 0.0006 -13
v 22.0001 0.0004 -7

vt 0 0
vt -2 0
vt 0 3
vt -2 3
vt 2 0
vt 2 3
vt 0 -2
vt 2 -2
vt -2 -2
vt -1 -5
vt -1 1
vt 2 -5
vt 2 1
vt 2 -8
vt -1 -8
vt -26 -8
vt -26 -5
vt -31 -8
vt -31 -5
vt -34 -8
vt -34 -5
vt -34 -2
vt -31 -2
vt -34 1
vt -31 1
vt -34 7
vt -31 7
vt -31 -2
vt -28 1
vt -28 -2
vt -28 7
vt -25 7
vt -25 1
vt -37 1
vt -37 7
vt -37 -8
vt -37 -5
vt -34 -27
vt -37 -27
vt -5 -8
vt -5 -5
vt -7 -8
vt -7 -5
vt -5 -13
vt -7 -13
vt -5 -16
vt -7 -16
vt 13 0.0003
vt 16 0.0004
vt -5 -19
vt -7 -19
vt -19 -13
vt -11 -13
vt -19 -6.5
vt -11 -6.5
vt -19 -3
vt -11 -3
vt -23 -6.5
vt -23 -3
vt -19 3
vt -11 3
vt -19 7
vt -11 7
vt -8 7
vt -8 3
vt -19 0.0009999999
vt -11 0.0009
vt -16 0.0011
vt -12.92974 0.0009999999
vt -16 9.9999
vt -16 13
vt -20 9.9999
vt -20 13
vt -23 9.9999
vt -23 13
vt -20 4.999999
vt -23 4.999999
vt -20 5
vt -23 5
vt -20 2
vt -23 2
vt -25 2
vt -25 5
vt 6.5 0.0006
vt 4.5 0.0007
vt 13 0.0006
vt -11 -4.5
vt -9.000099 -4.5
vt -9.000099 -13
vt -5.5 3
vt -5.5 -3
vt -9 -3
vt -9 -6.5
vt -23 0
vt -19 0
vt -5 -22
vt -7 -22
vt -16 7
vt -20 7
vt -3 0
vt 0 1
vt -3 1
vt -2 1
vt 3 0
vt 3 1
vt 3 -2
vt -3 -2
vt 9 -20
vt 7 -20
vt 9 -22
vt 7 -22
vt 5 -22
vt 5 -20
vt 3 -22
vt 3 -20
vt 3 -11
vt 5 -11
vt 9 -14
vt 9 -17
vt 10 -14
vt 10 -17
vt 9 -11
vt 9.999901 -11
vt 9.999901 -14

vn 0 0 1
vn -1 0 0
vn 0 0 -1
vn 1 0 0
vn 0 1 0
vn 0 -1 0

g Road_01
usemtl floor
f 3/3/1 4/4/1 2/2/1 1/1/1
f 4/3/2 6/4/2 5/2/2 2/1/2
f 6/6/3 8/3/3 7/1/3 5/5/3
f 8/6/4 3/3/4 1/1/4 7/5/4
f 8/7/5 6/8/5 4/5/5 3/1/5
f 1/1/6 2/2/6 5/9/6 7/7/6
f 11/3/1 12/4/1 10/2/1 9/1/1
f 12/3/2 14/4/2 13/2/2 10/1/2
f 14/6/3 16/3/3 15/1/3 13/5/3
f 16/6/4 11/3/4 9/1/4 15/5/4
f 16/7/5 14/8/5 12/5/5 11/1/5
f 9/1/6 10/2/6 13/9/6 15/7/6
f 19/3/1 20/4/1 18/2/1 17/1/1
f 20/3/2 22/4/2 21/2/2 18/1/2
f 22/6/3 24/3/3 23/1/3 21/5/3
f 24/6/4 19/3/4 17/1/4 23/5/4
f 24/7/5 22/8/5 20/5/5 19/1/5
f 17/1/6 18/2/6 21/9/6 23/7/6
f 27/3/1 28/4/1 26/2/1 25/1/1
f 28/3/2 30/4/2 29/2/2 26/1/2
f 30/6/3 32/3/3 31/1/3 29/5/3
f 32/6/4 27/3/4 25/1/4 31/5/4
f 32/7/5 30/8/5 28/5/5 27/1/5
f 25/1/6 26/2/6 29/9/6 31/7/6
f 35/12/5 36/13/5 34/11/5 33/10/5
f 38/15/5 37/14/5 35/12/5 33/10/5
f 42/19/5 41/18/5 39/16/5 40/17/5
f 44/21/5 43/20/5 41/18/5 42/19/5
f 46/23/5 45/22/5 44/21/5 42/19/5
f 48/25/5 47/24/5 45/22/5 46/23/5
f 50/27/5 49/26/5 47/24/5 48/25/5
f 52/30/5 51/29/5 48/25/5 46/28/5
f 51/29/5 53/31/5 50/27/5 48/25/5
f 55/33/5 54/32/5 53/31/5 51/29/5
f 57/35/5 56/34/5 47/24/5 49/26/5
f 59/37/5 58/36/5 43/20/5 44/21/5
f 61/39/5 60/38/5 43/20/5 58/36/5
f 63/41/5 62/40/5 38/15/5 33/10/5
f 65/43/5 64/42/5 62/40/5 63/41/5
f 67/45/5 66/44/5 62/40/5 64/42/5
f 69/47/5 68/46/5 66/44/5 67/45/5
f 68/49/4 66/48/4 66/48/4 68/49/4
f 71/51/5 70/50/5 68/46/5 69/47/5
f 75/55/5 74/54/5 72/52/5 73/53/5
f 77/57/5 76/56/5 74/54/5 75/55/5
f 79/59/5 78/58/5 74/54/5 76/56/5
f 81/61/5 80/60/5 76/56/5 77/57/5
f 83/63/5 82/62/5 80/60/5 81/61/5
f 85/65/5 84/64/5 83/63/5 81/61/5
f 87/69/3 86/68/3 82/66/3 83/67/3
f 91/73/5 90/72/5 88/70/5 89/71/5
f 93/75/5 92/74/5 90/72/5 91/73/5
f 95/77/5 94/76/5 90/72/5 92/74/5
f 97/81/5 96/80/5 94/78/5 95/79/5
f 99/83/5 98/82/5 97/81/5 95/79/5
f 101/86/4 100/85/4 75/84/4 73/48/4
f 103/89/5 102/88/5 100/87/5 101/53/5
f 105/91/5 104/90/5 81/61/5 77/57/5
f 107/93/5 106/92/5 77/57/5 75/55/5
f 109/95/5 108/94/5 79/59/5 76/56/5
f 111/97/5 110/96/5 70/50/5 71/51/5
f 90/72/5 112/99/5 86/98/5 88/70/5
f 115/3/1 116/4/1 114/2/1 113/1/1
f 116/3/2 118/4/2 117/2/2 114/1/2
f 118/6/3 120/3/3 119/1/3 117/5/3
f 120/6/4 115/3/4 113/1/4 119/5/4
f 120/7/5 118/8/5 116/5/5 115/1/5
f 113/1/6 114/2/6 117/9/6 119/7/6
f 123/3/1 124/4/1 122/2/1 121/1/1
f 124/3/2 126/4/2 125/2/2 122/1/2
f 126/6/3 128/3/3 127/1/3 125/5/3
f 128/6/4 123/3/4 121/1/4 127/5/4
f 128/7/5 126/8/5 124/5/5 123/1/5
f 121/1/6 122/2/6 125/9/6 127/7/6
f 131/3/1 132/4/1 130/2/1 129/1/1
f 132/3/2 134/4/2 133/2/2 130/1/2
f 134/6/3 136/3/3 135/1/3 133/5/3
f 136/6/4 131/3/4 129/1/4 135/5/4
f 136/7/5 134/8/5 132/5/5 131/1/5
f 129/1/6 130/2/6 133/9/6 135/7/6
f 139/3/1 140/4/1 138/2/1 137/1/1
f 140/3/2 142/4/2 141/2/2 138/1/2
f 142/6/3 144/3/3 143/1/3 141/5/3
f 144/6/4 139/3/4 137/1/4 143/5/4
f 144/7/5 142/8/5 140/5/5 139/1/5
f 137/1/6 138/2/6 141/9/6 143/7/6
f 145/101/1 146/102/1 137/100/1 114/1/1
f 146/101/2 147/103/2 143/2/2 137/1/2
f 147/105/3 148/101/3 117/1/3 143/104/3
f 148/13/4 145/101/4 114/1/4 117/5/4
f 148/7/5 147/106/5 146/104/5 145/1/5
f 114/1/6 137/100/6 143/107/6 117/7/6
f 150/111/5 149/110/5 110/108/5 111/109/5
f 152/113/5 151/112/5 150/111/5 111/109/5
f 154/115/5 153/114/5 151/112/5 152/113/5
f 103/117/5 101/116/5 154/115/5 152/113/5
f 156/121/5 155/120/5 68/118/5 70/119/5
f 155/124/5 157/123/5 66/122/5 68/118/5

