# ProBuilder 4.0.5
# https://unity3d.com/unity/features/worldbuilding/probuilder
# 2020/02/07 12:39:43

mtllib ./Road_02.mtl
o Road_02

g Road_02
v 55 0 -26
v 55 0 -21
v 52 0 -26
v 52 0 -21
v 52 0.0001 -29
v 55 0.0001 -29
v 58 0.0002 -29
v 58 0.0001 -26
v 52 0.0002 -32
v 55 0.0002 -32
v 52 0.0003 -35
v 55 0.0003 -35
v 49 0.0003 -32
v 49 0.0004 -35
v 52 0.0004 -46
v 55 0.0004 -46
v 52 0.0005 -49
v 55 0.0005 -49
v 52 0.0006 -49
v 52 0.0006 -55
v 55 0.0006 -55
v 52 0.0007 -58
v 55 0.0007 -58
v 52 0.0008 -64
v 55 0.0008 -64
v 52 0.0009 -67
v 55 0.0009 -67
v 52 0.0009999999 -71
v 55 0.0009999999 -71
v 64 0.0003 -29
v 64 0.0002 -26
v 64 0.0003 -23
v 58 0.0002 -23
v 58 0.0003 -32
v 64 0.0004 -32
v 43 0.0004 -32
v 43 0.0005 -35
v 43 0.0006 -38
v 49 0.0005 -38
v 49 0.0004 -29
v 43 0.0005 -29
v 49 0.0006 -46
v 49 0.0007 -49
v 52 0.0006 -43
v 49 0.0007 -43
v 46 0.0007 -46
v 46 0.0008 -49
v 46 0.0009 -52
v 49 0.0008 -52
v 43 0.0009 -49
v 43 0.0009999999 -52
v 52 0.0007 -52
v 49 0.0009 -55
v 43 0.0011 -55
v 46 0.0009999999 -55
v 46 0.0011 -58
v 49 0.0009999999 -58
v 49 0.0009999999 -64
v 49 0.0011 -67
v 49 0.0012 -70
v 52 0.0011 -70
v 46 0.0011 -64
v 46 0.0012 -67
v 49 0.0011 -61
v 46 0.0012 -61
v 52 0.0009999999 -61
v 49 0.0012 -58
v 52 0.0011 -58
v 43 0.0014 -58
v 43 0.0013 -61
v 43 0.0012 -64
v 55 0.0008 -57
v 55 0.0007 -52.5
v 58 0.0009 -57
v 58 0.0008 -52.5
v 58 0.0009 -55

vt -3 20
vt -3 25
vt 0 20
vt 0 25
vt 0 17
vt -3 17
vt -6 17
vt -6 20
vt 0 14
vt -3 14
vt 0 11
vt -3 11
vt 3 14
vt 3 11
vt 0 2.727272E-09
vt -3 2.727272E-09
vt 0 -3
vt -3 -3
vt 3 -0.0001999999
vt 0 -9
vt -3 -9
vt 0 -12
vt -3 -12
vt 0 -18
vt -3 -18
vt 0 -21
vt -3 -21
vt 18 0.0001000001
vt 21 0.0002000001
vt 0 -25
vt -3 -25
vt -12 17
vt -12 20
vt -12 23
vt -6 23
vt -6 14
vt -12 14
vt 9 14
vt 9 11
vt 9 8
vt 3 8
vt 3 17
vt 9 17
vt 3 -3
vt -3.33333E-09 3
vt 3 3
vt 6 6.666663E-09
vt 6 -3
vt 6 -6
vt 3 -6
vt 9 -3
vt 9 -6
vt 3.880511E-15 -6
vt 3 -9
vt 9 -9
vt 6 -9
vt 6 -12
vt 3 -12
vt 3 -18
vt 3 -21
vt 3 -24
vt 1.333333E-08 -24
vt 6 -18
vt 6 -21
vt 3 -15
vt 6 -15
vt 9.999997E-09 -15
vt 9 -12
vt 9 -15
vt 9 -18
vt -3 -11
vt -3 -6.5
vt -6 -11
vt -6 -6.5
vt 6 -6.5
vt 3 -6.5

vn 0 1 0
vn 1 0 0
vn 3.333333E-05 -1 -4E-05

g Road_02
usemtl ProBuilderDefault
f 3/3/1 4/4/1 2/2/1 1/1/1
f 6/6/1 5/5/1 3/3/1 1/1/1
f 8/8/1 7/7/1 6/6/1 1/1/1
f 10/10/1 9/9/1 5/5/1 6/6/1
f 12/12/1 11/11/1 9/9/1 10/10/1
f 14/14/1 13/13/1 9/9/1 11/11/1
f 16/16/1 15/15/1 11/11/1 12/12/1
f 18/18/1 17/17/1 15/15/1 16/16/1
f 19/19/2 15/15/2 15/15/2 17/19/2
f 21/21/1 20/20/1 17/17/1 18/18/1
f 23/23/1 22/22/1 20/20/1 21/21/1
f 25/25/1 24/24/1 22/22/1 23/23/1
f 27/27/1 26/26/1 24/24/1 25/25/1
f 26/29/2 24/28/2 24/28/2 26/29/2
f 29/31/1 28/30/1 26/26/1 27/27/1
f 31/33/1 30/32/1 7/7/1 8/8/1
f 33/35/1 32/34/1 31/33/1 8/8/1
f 35/37/1 34/36/1 7/7/1 30/32/1
f 37/39/1 36/38/1 13/13/1 14/14/1
f 39/41/1 38/40/1 37/39/1 14/14/1
f 41/43/1 40/42/1 13/13/1 36/38/1
f 43/44/1 42/19/1 15/15/1 19/17/1
f 45/46/1 44/45/1 15/15/1 42/19/1
f 47/48/1 46/47/1 42/19/1 43/44/1
f 49/50/1 48/49/1 47/48/1 43/44/1
f 51/52/1 50/51/1 47/48/1 48/49/1
f 52/53/1 49/50/1 43/44/1 19/17/1
f 20/20/1 53/54/1 49/50/1 52/53/1
f 55/56/1 54/55/1 51/52/1 48/49/1
f 53/54/1 55/56/1 48/49/1 49/50/1
f 57/58/1 56/57/1 55/56/1 53/54/1
f 59/60/1 58/59/1 24/24/1 26/26/1
f 61/62/1 60/61/1 59/60/1 26/26/1
f 63/64/1 62/63/1 58/59/1 59/60/1
f 65/66/1 64/65/1 58/59/1 62/63/1
f 64/65/1 66/67/1 24/24/1 58/59/1
f 56/57/1 67/58/1 64/65/1 65/66/1
f 67/58/1 68/22/1 66/67/1 64/65/1
f 70/69/1 69/68/1 56/57/1 65/66/1
f 71/70/1 70/69/1 65/66/1 62/63/1
f 75/74/1 74/73/1 72/71/1 73/72/1
f 21/54/3 76/56/3 75/75/3 73/76/3
f 57/58/1 53/54/1 20/20/1 22/22/1

