# ProBuilder 4.0.5
# https://unity3d.com/unity/features/worldbuilding/probuilder
# 2020/01/31 16:07:39

mtllib ./Classroomwindow.mtl
o Classroomwindow

g Classroomwindow
v 0.5 -1.498501 1.997002
v -0.5 -1.498501 1.997002
v 0.5 -0.4985008 1.997002
v -0.5 -0.4985008 1.997002
v -0.5 -1.498501 -2.002998
v -0.5 -0.4985008 -2.002998
v 0.5 -1.498501 -2.002998
v 0.5 -0.4985008 -2.002998
v 0.5 1.282499 1.997002
v 0.4095192 1.282499 1.997002
v 0.5 1.45334 1.997002
v 0.4095192 1.45334 1.997002
v 0.4095192 1.282499 -2.002998
v 0.4095192 1.45334 -2.002998
v 0.5 1.282499 -2.002998
v 0.5 1.45334 -2.002998
v 0.5 -0.4985507 -1.764
v 0.4095192 -0.4985507 -1.764
v 0.5 1.498501 -1.764
v 0.4095192 1.498501 -1.764
v 0.4095192 -0.4985507 -2.002808
v 0.4095192 1.498501 -2.002808
v 0.5 1.498501 -2.002808
v 0.5 -0.5043507 2.003002
v 0.4095192 -0.5043507 2.003002
v 0.5 1.492701 2.003002
v 0.4095192 1.492701 2.003002
v 0.4095192 -0.5043507 1.764194
v 0.4095192 1.492701 1.764194
v 0.5 -0.5043507 1.764194
v 0.5 1.492701 1.764194
v 0.5 0.07949913 1.997002
v 0.4095192 0.07949913 1.997002
v 0.5 0.2503399 1.997002
v 0.4095192 0.2503399 1.997002
v 0.4095192 0.07949913 -2.002998
v 0.4095192 0.2503399 -2.002998
v 0.5 0.07949913 -2.002998
v 0.5 0.2503399 -2.002998
v 0.5 -0.4985507 0.06700134
v 0.4095192 -0.4985507 0.06700134
v 0.5 1.498501 0.06700134
v 0.4095192 1.498501 0.06700134
v 0.4095192 -0.4985507 -0.1718063
v 0.4095192 1.498501 -0.1718063
v 0.5 -0.4985507 -0.1718063
v 0.5 1.498501 -0.1718063

vt 0.5 0.1122992
vt -0.5 0.1122992
vt 0.5 1.112299
vt -0.5 1.112299
vt 0.06699944 0.1122992
vt -3.933001 0.1122992
vt 0.06699944 1.112299
vt -3.933001 1.112299
vt 3.933001 0.1122992
vt -0.06699944 0.1122992
vt 3.933001 1.112299
vt -0.06699944 1.112299
vt -0.5 0.06699944
vt 0.5 0.06699944
vt -0.5 -3.933001
vt 0.5 -3.933001
vt 0.4095192 0.1122992
vt 0.5 0.2831399
vt 0.4095192 0.2831399
vt 0.06699944 0.2831399
vt -3.933001 0.2831399
vt -0.4095192 0.1122992
vt -0.4095192 0.2831399
vt -0.5 0.2831399
vt 3.933001 0.2831399
vt -0.06699944 0.2831399
vt -0.4095192 0.06699944
vt -0.4095192 -3.933001
vt 0.4095192 -3.933001
vt 0.4095192 0.06699944
vt 0.5 -0.4985507
vt 0.4095192 -0.4985507
vt 0.5 1.498501
vt 0.4095192 1.498501
vt 0.06699944 -0.4985507
vt -0.1718082 -0.4985507
vt 0.06699944 1.498501
vt -0.1718082 1.498501
vt -0.4095192 -0.4985507
vt -0.5 -0.4985507
vt -0.4095192 1.498501
vt -0.5 1.498501
vt 0.1718082 -0.4985507
vt -0.06699944 -0.4985507
vt 0.1718082 1.498501
vt -0.06699944 1.498501
vt -0.5 -0.1718082
vt -0.4095192 -0.1718082
vt 0.5 -0.1718082
vt 0.4095192 -0.1718082

vn 0 0 1
vn -1 0 0
vn 0 0 -1
vn 1 0 0
vn 0 1 0
vn 0 -1 0

g Classroomwindow
usemtl ProBuilderDefault
f 3/3/1 4/4/1 2/2/1 1/1/1
f 4/7/2 6/8/2 5/6/2 2/5/2
f 6/3/3 8/4/3 7/2/3 5/1/3
f 8/11/4 3/12/4 1/10/4 7/9/4
f 8/15/5 6/16/5 4/14/5 3/13/5
f 1/14/6 2/13/6 5/15/6 7/16/6
f 11/18/1 12/19/1 10/17/1 9/1/1
f 12/20/2 14/21/2 13/6/2 10/5/2
f 14/23/3 16/24/3 15/2/3 13/22/3
f 16/25/4 11/26/4 9/10/4 15/9/4
f 16/15/5 14/28/5 12/27/5 11/13/5
f 9/14/6 10/30/6 13/29/6 15/16/6
f 19/33/1 20/34/1 18/32/1 17/31/1
f 20/37/2 22/38/2 21/36/2 18/35/2
f 22/41/3 23/42/3 8/40/3 21/39/3
f 23/45/4 19/46/4 17/44/4 8/43/4
f 23/47/5 22/48/5 20/27/5 19/13/5
f 17/14/6 18/30/6 21/50/6 8/49/6
f 26/33/1 27/34/1 25/32/1 24/31/1
f 27/37/2 29/38/2 28/36/2 25/35/2
f 29/41/3 31/42/3 30/40/3 28/39/3
f 31/45/4 26/46/4 24/44/4 30/43/4
f 31/47/5 29/48/5 27/27/5 26/13/5
f 24/14/6 25/30/6 28/50/6 30/49/6
f 34/18/1 35/19/1 33/17/1 32/1/1
f 35/20/2 37/21/2 36/6/2 33/5/2
f 37/23/3 39/24/3 38/2/3 36/22/3
f 39/25/4 34/26/4 32/10/4 38/9/4
f 39/15/5 37/28/5 35/27/5 34/13/5
f 32/14/6 33/30/6 36/29/6 38/16/6
f 42/33/1 43/34/1 41/32/1 40/31/1
f 43/37/2 45/38/2 44/36/2 41/35/2
f 45/41/3 47/42/3 46/40/3 44/39/3
f 47/45/4 42/46/4 40/44/4 46/43/4
f 47/47/5 45/48/5 43/27/5 42/13/5
f 40/14/6 41/30/6 44/50/6 46/49/6

