# ProBuilder 4.0.5
# https://unity3d.com/unity/features/worldbuilding/probuilder
# 2020/02/03 15:35:52

mtllib ./Door_frame.mtl
o Door_frame

g Door_frame
v 0 0 0
v -0.9 0 0
v 0 2.1 0
v -0.9 2.1 0
v -2.1 0 0
v -3 0 0
v -2.1 2.1 0
v -3 2.1 0
v 0 3 0
v -0.9 3 0
v -2.1 3 0
v -3 3 0
v -0.9 0 -0.1
v 0 0 -0.1
v -0.9 2.1 -0.1
v 0 2.1 -0.1
v -3 0 -0.1
v -2.1 0 -0.1
v -3 2.1 -0.1
v -2.1 2.1 -0.1
v -0.9 3 -0.1
v 0 3 -0.1
v -3 3 -0.1
v -2.1 3 -0.1
v -2.1 1.983099 0
v -0.9000001 1.983099 0
v -2.1 1.983099 -0.0999999
v -0.9000001 1.983099 -0.0999999

vt 0 0
vt -0.9 0
vt 0 2.1
vt -0.9 2.1
vt -2.1 0
vt -3 0
vt -2.1 2.1
vt -3 2.1
vt 0 3
vt -0.9 3
vt -2.1 3
vt -3 3
vt 0.9 0
vt 0.9 2.1
vt 3 0
vt 2.1 0
vt 3 2.1
vt 2.1 2.1
vt 0.9 3
vt 3 3
vt 2.1 3
vt -2.1 0
vt -0.9000001 0
vt -2.1 -0.0999999
vt -0.9000001 -0.0999999
vt 0.1 0
vt 0.1 2.1
vt -0.1 0
vt -0.1 2.1
vt -2.1 1.983099
vt -0.9000001 1.983099
vt -0.0999999 1.98309
vt 0 1.98309
vt 0.0999999 1.983098
vt 0.9000001 1.983099
vt 2.1 1.983099

vn 0 0 1
vn 0 0 -1
vn 0 -1 0
vn 1 0 0
vn -1 0 0

g Door_frame
usemtl ProBuilderDefault
f 3/3/1 4/4/1 2/2/1 1/1/1
f 7/7/1 8/8/1 6/6/1 5/5/1
f 9/9/1 10/10/1 4/4/1 3/3/1
f 11/11/1 12/12/1 8/8/1 7/7/1
f 10/10/1 11/11/1 7/7/1 4/4/1
f 15/14/2 16/3/2 14/1/2 13/13/2
f 19/17/2 20/18/2 18/16/2 17/15/2
f 21/19/2 22/9/2 16/3/2 15/14/2
f 23/20/2 24/21/2 20/18/2 19/17/2
f 24/21/2 21/19/2 15/14/2 20/18/2
f 27/24/3 28/25/3 26/23/3 25/22/3
f 20/27/4 7/3/4 5/1/4 18/26/4
f 4/3/5 15/29/5 13/28/5 2/1/5
f 25/30/1 26/31/1 4/4/1 7/7/1
f 27/32/5 25/33/5 7/3/5 20/29/5
f 26/33/4 28/34/4 15/27/4 4/3/4
f 28/35/2 27/36/2 20/18/2 15/14/2

