# ProBuilder 4.0.5
# https://unity3d.com/unity/features/worldbuilding/probuilder
# 2020/01/17 14:24:29

mtllib ./Room_s_00.mtl
o Room_s_00

g Room_s_00
v 10.54 -1.25 1.32
v 10.44 -1.25 1.32
v 10.54 1.25 1.32
v 10.44 1.25 1.32
v 10.44 -1.25 1.22
v 10.44 1.25 1.22
v 10.54 -1.25 1.22
v 10.54 1.25 1.22
v 12.94 1.15 3.72
v 10.44 1.15 3.72
v 12.94 1.25 3.72
v 10.44 1.25 3.72
v 10.44 1.15 1.22
v 12.94 1.15 1.22
v 12.94 1.25 1.22
v 10.54 -1.25 3.72
v 10.44 -1.25 3.72
v 10.54 1.25 3.72
v 10.44 -1.25 3.62
v 10.44 1.25 3.62
v 10.54 -1.25 3.62
v 10.54 1.25 3.62
v 12.94 -1.25 1.32
v 12.84 -1.25 1.32
v 12.94 1.25 1.32
v 12.84 1.25 1.32
v 12.84 -1.25 1.22
v 12.84 1.25 1.22
v 12.94 -1.25 1.22
v 12.94 -1.25 3.72
v 12.94 -1.15 3.72
v 10.44 -1.15 3.72
v 10.44 -1.15 1.22
v 12.94 -1.15 1.22
v 12.84 -1.25 3.72
v 12.84 1.25 3.72
v 12.84 -1.25 3.62
v 12.84 1.25 3.62
v 12.94 -1.25 3.62
v 12.94 1.25 3.62

vt 1.25 -1.25
vt 1.15 -1.25
vt 1.25 1.25
vt 1.15 1.25
vt -1.15 -1.25
vt -1.25 -1.25
vt -1.15 1.25
vt -1.25 1.25
vt -1.25 1.15
vt -1.15 1.15
vt 1.25 1.15
vt 1.15 1.15
vt 1.25 -1.15
vt -1.25 -1.15
vt 1.15 -1.25
vt 1.15 1.25
vt -1.15 -1.25
vt -1.15 1.25
vt -1.25 1.15
vt -1.15 1.15
vt 1.25 1.15
vt 1.15 1.15
vt -1.15 1.15
vt 1.15 1.15
vt 1.25 -1.15
vt -1.25 -1.15
vt -1.15 1.15
vt 1.15 1.15

vn 0 0 1
vn -1 0 0
vn 0 0 -1
vn 1 0 0
vn 0 1 0
vn 0 -1 0

g Room_s_00
usemtl ProBuilderDefault
f 3/3/1 4/4/1 2/2/1 1/1/1
f 4/3/2 6/4/2 5/2/2 2/1/2
f 6/7/3 8/8/3 7/6/3 5/5/3
f 8/7/4 3/8/4 1/6/4 7/5/4
f 8/9/5 6/10/5 4/7/5 3/8/5
f 1/3/6 2/4/6 5/12/6 7/11/6
f 11/13/1 12/14/1 10/6/1 9/1/1
f 12/13/2 6/14/2 13/6/2 10/1/2
f 6/13/3 15/14/3 14/6/3 13/1/3
f 15/13/4 11/14/4 9/6/4 14/1/4
f 15/6/5 6/1/5 12/3/5 11/8/5
f 9/3/6 10/8/6 13/6/6 14/1/6
f 18/3/1 12/4/1 17/2/1 16/1/1
f 12/3/2 20/16/2 19/15/2 17/1/2
f 20/7/3 22/8/3 21/6/3 19/5/3
f 22/18/4 18/8/4 16/6/4 21/17/4
f 22/19/5 20/20/5 12/7/5 18/8/5
f 16/3/6 17/4/6 19/22/6 21/21/6
f 25/3/1 26/16/1 24/15/1 23/1/1
f 26/3/2 28/4/2 27/2/2 24/1/2
f 28/18/3 15/8/3 29/6/3 27/17/3
f 15/7/4 25/8/4 23/6/4 29/5/4
f 15/9/5 28/23/5 26/18/5 25/8/5
f 23/3/6 24/16/6 27/24/6 29/11/6
f 31/25/1 32/26/1 17/6/1 30/1/1
f 32/25/2 33/26/2 5/6/2 17/1/2
f 33/25/3 34/26/3 29/6/3 5/1/3
f 34/25/4 31/26/4 30/6/4 29/1/4
f 34/6/5 33/1/5 32/3/5 31/8/5
f 30/3/6 17/8/6 5/6/6 29/1/6
f 11/3/1 36/16/1 35/15/1 30/1/1
f 36/3/2 38/16/2 37/15/2 35/1/2
f 38/18/3 40/8/3 39/6/3 37/17/3
f 40/18/4 11/8/4 30/6/4 39/17/4
f 40/19/5 38/27/5 36/18/5 11/8/5
f 30/3/6 35/16/6 37/28/6 39/21/6

