# ProBuilder 4.0.5
# https://unity3d.com/unity/features/worldbuilding/probuilder
# 2020/01/17 10:41:30

mtllib ./Wall_s_00.mtl
o Wall_s_00

g Wall_s_00
v 13.44 -1.25 -9.809999
v 10.94 -1.25 -9.809999
v 13.44 1.25 -9.809999
v 10.94 1.25 -9.809999
v 10.94 -1.25 -9.91
v 10.94 1.25 -9.91
v 13.44 -1.25 -9.91
v 13.44 1.25 -9.91

vt 1.25 -1.25
vt -1.25 -1.25
vt 1.25 1.25
vt -1.25 1.25
vt 0.05000019 -1.25
vt -0.04999981 -1.25
vt 0.05000019 1.25
vt -0.04999981 1.25
vt 1.25 -1.25
vt -1.25 -1.25
vt 1.25 1.25
vt -1.25 1.25
vt 0.04999981 -1.25
vt -0.05000019 -1.25
vt 0.04999981 1.25
vt -0.05000019 1.25
vt -1.25 0.05000019
vt 1.25 0.05000019
vt -1.25 -0.04999981
vt 1.25 -0.04999981
vt 1.25 -0.04999981
vt -1.25 -0.04999981
vt 1.25 0.05000019
vt -1.25 0.05000019

vn 0 0 1
vn -1 0 0
vn 0 0 -1
vn 1 0 0
vn 0 1 0
vn 0 -1 0

g Wall_s_00
usemtl ProBuilderDefault
f 3/3/1 4/4/1 2/2/1 1/1/1
f 4/7/2 6/8/2 5/6/2 2/5/2
f 6/11/3 8/12/3 7/10/3 5/9/3
f 8/15/4 3/16/4 1/14/4 7/13/4
f 8/19/5 6/20/5 4/18/5 3/17/5
f 1/23/6 2/24/6 5/22/6 7/21/6

