# ProBuilder 4.0.5
# https://unity3d.com/unity/features/worldbuilding/probuilder
# 2020/02/22 20:08:23

mtllib ./H_Room_F_L_04.mtl
o H_Room_F_L_04

g Room_F_L_04
v 3.75 -5E-05 -3.75
v 3.75 -5E-05 3.75
v -3.75 -5E-05 -3.75
v -3.75 -5E-05 3.75
v -3.8 5E-05 3.75
v -3.8 5E-05 -3.75
v 3.8 5E-05 -3.75
v 3.8 5E-05 3.75

vt -3.75 -3.75
vt -3.75 3.75
vt 3.75 -3.75
vt 3.75 3.75
vt 3.749993 3.75
vt 3.749993 -3.75
vt 3.799993 3.75
vt 3.799993 -3.75
vt -3.749993 -3.75
vt -3.749993 3.75
vt -3.799993 -3.75
vt -3.799993 3.75

vn 0 1 0
vn 0.001999998 0.999998 0
vn -0.001999998 0.999998 0

g Room_F_L_04
usemtl ProBuilderDefault
f 3/3/1 4/4/1 2/2/1 1/1/1
f 6/8/2 5/7/2 4/5/2 3/6/2
f 8/12/3 7/11/3 1/9/3 2/10/3

