# ProBuilder 4.0.5
# https://unity3d.com/unity/features/worldbuilding/probuilder
# 2020/02/22 20:05:13

mtllib ./H_Room_F_L_01.mtl
o H_Room_F_L_01

g Room_F_L_01
v 3.75 -5E-05 -3.75
v 3.75 -5E-05 3.75
v -3.75 -5E-05 -3.75
v -3.75 -5E-05 3.75
v -3.75 5E-05 -3.95
v 3.75 5E-05 -3.95
v -3.85 5E-05 3.75
v -3.85 5E-05 -3.75
v 3.75 5E-05 3.95
v -3.75 5E-05 3.95
v 3.85 5E-05 -3.75
v 3.85 5E-05 3.75

vt -3.75 -3.75
vt -3.75 3.75
vt 3.75 -3.75
vt 3.75 3.75
vt 3.75 -3.75
vt -3.75 -3.75
vt 3.75 -3.95
vt -3.75 -3.95
vt 3.749998 3.75
vt 3.749998 -3.75
vt 3.849998 3.75
vt 3.849998 -3.75
vt -3.75 3.95
vt 3.75 3.95
vt -3.749998 -3.75
vt -3.749998 3.75
vt -3.849998 -3.75
vt -3.849998 3.75

vn 0 1 0
vn 0 0.9999999 0.0004999998
vn 0.001000001 0.9999995 0
vn -0.001000001 0.9999995 0

g Room_F_L_01
usemtl ProBuilderDefault
f 3/3/1 4/4/1 2/2/1 1/1/1
f 6/8/2 5/7/2 3/5/2 1/6/2
f 8/12/3 7/11/3 4/9/3 3/10/3
f 10/14/2 9/13/2 2/2/2 4/4/2
f 12/18/4 11/17/4 1/15/4 2/16/4

