# ProBuilder 4.0.5
# https://unity3d.com/unity/features/worldbuilding/probuilder
# 2020/03/10 17:17:42

mtllib ./Doorjointparts_2mx0.2mx2m.mtl
o Doorjointparts_2mx0.2mx2m

g Doorjointparts_2mx0.2mx2m
v -0.8 0 0
v -0.8 0 2
v -1 0 0
v -1 0 2
v -0.8 2 2
v -1 2 2
v -0.8 2 0
v -1 2 0

vt 0.8 0
vt 0.8 2
vt 1 0
vt 1 2
vt -0.8 2
vt -1 2
vt -0.8 0
vt -1 0

vn 0 1 0
vn 0 2.384186E-07 -1
vn 0 -1 0
vn 0 0 1

g Doorjointparts_2mx0.2mx2m
usemtl ProBuilderDefault
f 3/3/1 4/4/1 2/2/1 1/1/1
f 6/4/2 5/2/2 2/1/2 4/3/2
f 8/8/3 7/7/3 5/5/3 6/6/3
f 3/8/4 1/7/4 7/5/4 8/6/4

