# ProBuilder 4.0.5
# https://unity3d.com/unity/features/worldbuilding/probuilder
# 2020/02/22 20:19:52

mtllib ./H_Room_F_S_03.mtl
o H_Room_F_S_03

g Room_F_S_03
v 1.225 -5E-05 -1.275
v 1.225 -5E-05 1.225
v -1.275 -5E-05 -1.275
v -1.275 -5E-05 1.225
v 1.225 5E-05 1.275
v -1.275 5E-05 1.275
v 1.275 5E-05 -1.275
v 1.275 5E-05 1.225

vt -1.225 -1.275
vt -1.225 1.225
vt 1.275 -1.275
vt 1.275 1.225
vt -1.225 1.274998
vt 1.275 1.274998
vt -1.274998 -1.275
vt -1.274998 1.225

vn 0 1 0
vn 0 0.999998 -0.001999988
vn -0.001999988 0.999998 0

g Room_F_S_03
usemtl ProBuilderDefault
f 3/3/1 4/4/1 2/2/1 1/1/1
f 6/6/2 5/5/2 2/2/2 4/4/2
f 8/8/3 7/7/3 1/1/3 2/2/3

