# ProBuilder 4.0.5
# https://unity3d.com/unity/features/worldbuilding/probuilder
# 2020/02/22 20:18:13

mtllib ./H_Room_F_S_01.mtl
o H_Room_F_S_01

g Room_F_S_01
v 1.25 -5E-05 -1.25
v 1.25 -5E-05 1.25
v -1.25 -5E-05 -1.25
v -1.25 -5E-05 1.25
v -1.35 5E-05 1.25
v -1.35 5E-05 -1.25
v -1.25 5E-05 -1.35
v 1.25 5E-05 -1.35
v 1.35 5E-05 -1.25
v 1.35 5E-05 1.25
v 1.25 5E-05 1.35
v -1.25 5E-05 1.35

vt -1.25 -1.25
vt -1.25 1.25
vt 1.25 -1.25
vt 1.25 1.25
vt 1.249999 1.25
vt 1.249999 -1.25
vt 1.35 1.25
vt 1.35 -1.25
vt 1.25 -1.249999
vt -1.25 -1.249999
vt 1.25 -1.35
vt -1.25 -1.35
vt -1.249999 -1.25
vt -1.249999 1.25
vt -1.35 -1.25
vt -1.35 1.25
vt -1.25 1.249999
vt 1.25 1.249999
vt -1.25 1.35
vt 1.25 1.35

vn 0 1 0
vn 0.0009999981 0.9999995 0
vn 0 0.9999995 0.0009999981
vn -0.0009999981 0.9999995 0
vn 0 0.9999995 -0.0009999981

g Room_F_S_01
usemtl ProBuilderDefault
f 3/3/1 4/4/1 2/2/1 1/1/1
f 6/8/2 5/7/2 4/5/2 3/6/2
f 8/12/3 7/11/3 3/9/3 1/10/3
f 10/16/4 9/15/4 1/13/4 2/14/4
f 12/20/5 11/19/5 2/17/5 4/18/5

