# ProBuilder 4.0.5
# https://unity3d.com/unity/features/worldbuilding/probuilder
# 2020/01/30 19:56:16

mtllib ./Classroomdoor.mtl
o Classroomdoor

g Classroomdoor
v -20 0 -59.01164
v -20.09871 0 -59.01164
v -20 1 -59.01164
v -20.09871 1 -59.01164
v -20.09871 0 -61
v -20.09871 1 -61
v -20 0 -61
v -20 1 -61
v -20 0.9679999 -59.01164
v -20.09871 0.9679999 -59.01164
v -20 1.618368 -59.01164
v -20.09871 1.618368 -59.01164
v -20.09871 0.9679999 -61
v -20.09871 1.618368 -61
v -20 0.9679999 -61
v -20 1.618368 -61
v -20 1.613026 -59.91973
v -20.09871 1.613026 -59.91973
v -20 2.563427 -59.91973
v -20.09871 2.563427 -59.91973
v -20.09871 1.613026 -60.05048
v -20.09871 2.563427 -60.05048
v -20 1.613026 -60.05048
v -20 2.563427 -60.05048
v -20 1.613026 -59.01773
v -20.09871 1.613026 -59.01773
v -20 2.563427 -59.01773
v -20.09871 2.563427 -59.01773
v -20.09871 1.613026 -59.14849
v -20.09871 2.563427 -59.14849
v -20 1.613026 -59.14849
v -20 2.563427 -59.14849
v -20 1.613026 -60.86773
v -20.09871 1.613026 -60.86773
v -20 2.563427 -60.86773
v -20.09871 2.563427 -60.86773
v -20.09871 1.613026 -60.99849
v -20.09871 2.563427 -60.99849
v -20 1.613026 -60.99849
v -20 2.563427 -60.99849
v -20 2.516 -59.01164
v -20.09871 2.516 -59.01164
v -20 2.986618 -59.01164
v -20.09871 2.986618 -59.01164
v -20.09871 2.516 -61
v -20.09871 2.986618 -61
v -20 2.516 -61
v -20 2.986618 -61

vt 0 0
vt -0.09870911 0
vt 0 1
vt -0.09870911 1
vt 0.9883575 0
vt -1 0
vt 0.9883575 1
vt -1 1
vt 0.09870911 0
vt 0.09870911 1
vt 1 0
vt -0.9883575 0
vt 1 1
vt -0.9883575 1
vt 0 0.9883575
vt 0.09870911 0.9883575
vt 0 -1
vt 0.09870911 -1
vt -0.09870911 -1
vt -0.09870911 0.9883575
vt 0 0.6503685
vt -0.09870911 0.6503685
vt 0.9883575 0.6503685
vt -1 0.6503685
vt 0.09870911 0.6503685
vt 1 0.6503685
vt -0.9883575 0.6503685
vt 0 -0.2159745
vt -0.09870911 -0.2159745
vt 0 0.7344267
vt -0.09870911 0.7344267
vt 0.2567176 -0.2162111
vt -0.2283159 -0.2159742
vt 0.2571817 0.7344266
vt -0.2278517 0.7346634
vt 0.09870911 -0.2159745
vt 0.09870911 0.7344267
vt 0.2278517 -0.2162111
vt -0.2571817 -0.2159742
vt 0.2283159 0.7344266
vt -0.2567176 0.7346634
vt 0 0.2567177
vt 0.09870911 0.2567177
vt 0 -0.2278519
vt 0.09870911 -0.2278519
vt -0.09870911 -0.2278519
vt -0.09870911 0.2567177
vt 0 0.4706175
vt -0.09870911 0.4706175
vt 0.9883575 0.4706175
vt -1 0.4706175
vt 0.09870911 0.4706175
vt 1 0.4706175
vt -0.9883575 0.4706175

vn 0 0 1
vn -1 0 0
vn 0 0 -1
vn 1 0 0
vn 0 1 0
vn 0 -1 0

g Classroomdoor
usemtl ProBuilderDefault
f 3/3/1 4/4/1 2/2/1 1/1/1
f 4/7/2 6/8/2 5/6/2 2/5/2
f 6/10/3 8/3/3 7/1/3 5/9/3
f 8/13/4 3/14/4 1/12/4 7/11/4
f 8/17/5 6/18/5 4/16/5 3/15/5
f 1/15/6 2/20/6 5/19/6 7/17/6
f 11/21/1 12/22/1 10/2/1 9/1/1
f 12/23/2 14/24/2 13/6/2 10/5/2
f 14/25/3 16/21/3 15/1/3 13/9/3
f 16/26/4 11/27/4 9/12/4 15/11/4
f 16/17/5 14/18/5 12/16/5 11/15/5
f 9/15/6 10/20/6 13/19/6 15/17/6
f 19/30/1 20/31/1 18/29/1 17/28/1
f 20/34/2 22/35/2 21/33/2 18/32/2
f 22/37/3 24/30/3 23/28/3 21/36/3
f 24/40/4 19/41/4 17/39/4 23/38/4
f 24/44/5 22/45/5 20/43/5 19/42/5
f 17/42/6 18/47/6 21/46/6 23/44/6
f 27/30/1 28/31/1 26/29/1 25/28/1
f 28/34/2 30/35/2 29/33/2 26/32/2
f 30/37/3 32/30/3 31/28/3 29/36/3
f 32/40/4 27/41/4 25/39/4 31/38/4
f 32/44/5 30/45/5 28/43/5 27/42/5
f 25/42/6 26/47/6 29/46/6 31/44/6
f 35/30/1 36/31/1 34/29/1 33/28/1
f 36/34/2 38/35/2 37/33/2 34/32/2
f 38/37/3 40/30/3 39/28/3 37/36/3
f 40/40/4 35/41/4 33/39/4 39/38/4
f 40/44/5 38/45/5 36/43/5 35/42/5
f 33/42/6 34/47/6 37/46/6 39/44/6
f 43/48/1 44/49/1 42/2/1 41/1/1
f 44/50/2 46/51/2 45/6/2 42/5/2
f 46/52/3 48/48/3 47/1/3 45/9/3
f 48/53/4 43/54/4 41/12/4 47/11/4
f 48/17/5 46/18/5 44/16/5 43/15/5
f 41/15/6 42/20/6 45/19/6 47/17/6

