# ProBuilder 4.0.5
# https://unity3d.com/unity/features/worldbuilding/probuilder
# 2020/02/26 11:23:24

mtllib ./Room_W_00a_S.mtl
o Room_W_00a_S

g Room_W_00a_S
v 0.05 -1.25 1.3
v -0.05 -1.25 1.3
v 0.05 1.25 1.3
v -0.05 1.25 1.3
v -0.05 -1.25 1.25
v -0.05 -1.25 -1.25
v -0.05 1.25 1.25
v -0.05 1.25 -1.25
v -0.05 -1.25 -1.3
v 0.05 -1.25 -1.3
v -0.05 1.25 -1.3
v 0.05 1.25 -1.3
v 0.05 -1.25 -1.25
v 0.05 -1.25 1.25
v 0.05 1.25 -1.25
v 0.05 1.25 1.25

vt 0.05 -1.25
vt -0.05 -1.25
vt 0.05 1.25
vt -0.05 1.25
vt 1.25 -1.25
vt -1.25 -1.25
vt 1.25 1.25
vt -1.25 1.25
vt -0.05 -1.3
vt 0.05 -1.3
vt -1.3 1.25
vt -1.3 -1.25
vt 1.3 -1.25
vt 1.3 1.25
vt 0.05 1.3
vt -0.05 1.3

vn 0 0 1
vn -1 0 0
vn 0 0 -1
vn 1 0 0
vn 0 1 0
vn 0 -1 0

g Room_W_00a_S
usemtl ProBuilderDefault
f 3/3/1 4/4/1 2/2/1 1/1/1
f 7/7/2 8/8/2 6/6/2 5/5/2
f 11/3/3 12/4/3 10/2/3 9/1/3
f 15/7/4 16/8/4 14/6/4 13/5/4
f 15/2/5 8/1/5 7/3/5 16/4/5
f 14/3/6 5/4/6 6/2/6 13/1/6
f 9/9/6 10/10/6 13/1/6 6/2/6
f 11/11/2 9/12/2 6/6/2 8/8/2
f 10/13/4 12/14/4 15/7/4 13/5/4
f 12/9/5 11/10/5 8/1/5 15/2/5
f 1/15/6 2/16/6 5/4/6 14/3/6
f 3/11/4 1/12/4 14/6/4 16/8/4
f 2/13/2 4/14/2 7/7/2 5/5/2
f 4/15/5 3/16/5 16/4/5 7/3/5

