# ProBuilder 4.0.5
# https://unity3d.com/unity/features/worldbuilding/probuilder
# 2020/03/03 13:13:33

mtllib ./door_parts.mtl
o door_parts

g door_parts_srider
v 0 0.5 -1
v 0 0.5 1
v 0 1.5 -1
v 0 1.5 1
v 0 -1.5 0.5
v 0 -1.5 1.421929
v 0 1.5 0.5
v 0 1.5 1.421929
v 0 -1.5 -1.421929
v 0 -1.5 -0.5
v 0 1.5 -1.421929
v 0 1.5 -0.5

vt 2.5 0.5
vt 0.5 0.5
vt 2.5 1.5
vt 0.5 1.5
vt 1.921929 -1.5
vt 1 -1.5
vt 1.921929 1.5
vt 1 1.5
vt 1.421929 -1.5
vt 0.5 -1.5
vt 1.421929 1.5

vn 1 0 0

g door_parts_srider
usemtl ProBuilderDefault
f 3/3/1 4/4/1 2/2/1 1/1/1
f 7/7/1 8/8/1 6/6/1 5/5/1
f 11/11/1 12/4/1 10/10/1 9/9/1

