# ProBuilder 4.0.5
# https://unity3d.com/unity/features/worldbuilding/probuilder
# 2020/03/03 13:31:44

mtllib ./slidingdoor_parts_srider.mtl
o slidingdoor_parts_srider

g slidingdoor_parts_srider
v 0 0.5 -1
v 0 0.5 1
v 0 1.5 -1
v 0 1.5 1
v 0 -1.5 1
v 0 -1.5 1.421929
v 0 1.5 1.421929
v 0 -1.5 -1.421929
v 0 -1.5 -1
v 0 1.5 -1.421929
v -0.4999 -1.5 1.421929
v -0.4999 1.5 1.421929
v -0.4999 -1.5 1.0001
v -0.4999 1.5 1.0001
v -0.4999 1.5 -1.421929
v -0.4999 -1.5 -1.421929
v -0.4999 1.5 -1.422029
v -0.4999 -1.5 -1.422029
v -0.4998 1.5 -1
v -0.4998 -1.5 -1
v -0.4999 0.5 -1
v -0.4999 0.5 1
v -0.4999 1.4999 -1
v -0.4999 1.4999 1

vt 2.5 0.5
vt 0.5 0.5
vt 2.5 1.5
vt 0.5 1.5
vt 1.421929 -1.5
vt 1 -1.5
vt 1.421929 1.5
vt 1 1.5
vt 0 -1.5
vt 0 1.5
vt -0.4999 -1.5
vt -0.4999 1.5
vt 0.4999 1.5
vt 0.4999 -1.5
vt 1.422029 1.5
vt 1.422029 -1.5
vt -1.422148 1.5
vt -1.422148 -1.5
vt -1.000118 1.5
vt -1.000118 -1.5
vt 0 -1
vt 0 1
vt -0.4999 -1
vt -0.4999 1
vt -1 0.5
vt 1 0.5
vt -1 1.4999
vt 1 1.4999

vn 1 0 0
vn 0 0 1
vn -1 0 0
vn 0 0 -1
vn 0 -1 0

g slidingdoor_parts_srider
usemtl ProBuilderDefault
f 3/3/1 4/4/1 2/2/1 1/1/1
f 4/7/1 7/8/1 6/6/1 5/5/1
f 10/7/1 3/8/1 9/6/1 8/5/1
f 12/12/2 11/11/2 6/9/2 7/10/2
f 14/8/3 13/6/3 11/5/3 12/7/3
f 16/14/4 15/13/4 10/10/4 8/9/4
f 18/16/1 17/15/1 15/7/1 16/5/1
f 20/20/3 19/19/3 17/17/3 18/18/3
f 22/24/5 21/23/5 1/21/5 2/22/5
f 24/28/3 23/27/3 21/25/3 22/26/3

