# ProBuilder 4.0.5
# https://unity3d.com/unity/features/worldbuilding/probuilder
# 2020/03/03 13:20:25

mtllib ./Wall_parts_S.mtl
o Wall_parts_S

g Wall_parts_S
v 0 0 0
v 0 0 2
v 0 3 0
v 0 3 2
v -0.4999 0 2
v -0.4999 3 2
v -0.4999 0 9.989738E-05
v -0.4999 3 9.989738E-05

vt 0 0
vt -2 0
vt 0 3
vt -2 3
vt -0.4999 0
vt -0.4999 3
vt 2 0
vt 2 3
vt 0.4999 0
vt 0.4999 3

vn 1 0 0
vn 0 0 1
vn -1 0 0
vn 0 0 -1

g Wall_parts_S
usemtl ProBuilderDefault
f 3/3/1 4/4/1 2/2/1 1/1/1
f 6/6/2 5/5/2 2/1/2 4/3/2
f 8/3/3 7/1/3 5/7/3 6/8/3
f 3/3/4 1/1/4 7/9/4 8/10/4

