# ProBuilder 4.0.5
# https://unity3d.com/unity/features/worldbuilding/probuilder
# 2020/01/30 19:27:25

mtllib ./wall_05.mtl
o wall_05

g wall_05
v -10 0 -108
v -9 0 -108
v -10 3 -108
v -9 3 -108
v -4 0.0001 -103
v -4 0.0001 -91
v -4 3.0001 -103
v -4 3.0001 -91
v -10 0 -91
v -10 3.00005 -91
v -13 0 -91
v -19 0.0001 -91
v -13 3.00005 -91
v -19 3.00015 -91
v -19 0.0001 -103
v -19 3.0001 -103
v -13 0 -103
v -13 3.00005 -103
v -10 0 -103
v -10 3.0001 -103
v -7 0.0001 -108
v -7 0 -106
v -7 1.00015 -108
v -7 1.00005 -106
v -7 0 -103
v -7 1.00005 -103
v -9 0 -103
v -9 0 -106
v -9 1.00005 -103
v -9 1.00005 -106
v -9 1.00015 -108
v -10 0.0001 -116
v -10 3 -116
v 5 0.0001 -116
v 5 0.0001 -108
v 5 3.0001 -116
v 5 3.0001 -108
v -1 0 -116
v -1 3.00005 -116
v -4 0 -116
v -4 3.0001 -116
v -9 3 -103
v -7 3 -108
v -7 3 -103

vt 0 0
vt -1 0
vt 0 3
vt -1 3
vt 1 0.0001
vt 13 0.0001
vt 1 3.0001
vt 13 3.0001
vt -3 0.0001
vt 3 0
vt -3 3.00015
vt 3 3.00005
vt 6 0
vt 12 0.0001
vt 6 3.00005
vt 12 3.00015
vt -13 0.0001
vt -13 3.0001
vt -12 0.0001
vt -6 0
vt -12 3.00015
vt -6 3.00005
vt -4 0.0001
vt -2 0
vt -4 1.00015
vt -2 1.00005
vt 1 1.00005
vt 2 0
vt -1 1.00005
vt 2 1.00005
vt 4 0.0001
vt 4 1.00015
vt 4 3
vt -4 3.0001
vt -10 0
vt 2 3
vt -10 3

vn 0 0 -1
vn -1 0 0
vn 1 0 0
vn 0 0 1

g wall_05
usemtl ProBuilderDefault
f 3/3/1 4/4/1 2/2/1 1/1/1
f 8/8/2 7/7/2 5/5/2 6/6/2
f 10/12/1 8/11/1 6/9/1 9/10/1
f 14/16/1 13/15/1 11/13/1 12/14/1
f 16/4/3 14/18/3 12/17/3 15/2/3
f 18/22/4 16/21/4 15/19/4 17/20/4
f 20/11/4 18/22/4 17/20/4 19/9/4
f 24/26/2 23/25/2 21/23/2 22/24/2
f 26/27/2 24/26/2 22/24/2 25/5/2
f 30/30/3 29/29/3 27/2/3 28/28/3
f 31/32/3 30/30/3 28/28/3 2/31/3
f 33/16/3 3/33/3 1/31/3 32/14/3
f 37/34/2 36/21/2 34/19/2 35/23/2
f 36/16/4 39/15/4 38/13/4 34/14/4
f 39/15/4 41/12/4 40/10/4 38/13/4
f 41/12/4 33/11/4 32/9/4 40/10/4
f 42/3/4 20/4/4 19/2/4 27/1/4
f 43/36/1 37/37/1 35/35/1 21/28/1
f 7/36/4 44/4/4 25/2/4 5/28/4

