# ProBuilder 4.0.5
# https://unity3d.com/unity/features/worldbuilding/probuilder
# 2020/02/05 10:51:11

mtllib ./wall_05.mtl
o wall_05

g wall_05
v -10 0 -108
v -9 0 -108
v -10 3 -108
v -9 3 -108
v -4 0.0001 -103
v -4 0.0001 -91
v -4 3.0001 -103
v -4 3.0001 -91
v -10 0 -91
v -10 3.00005 -91
v -13 0 -91
v -19 0.0001 -91
v -13 3.00005 -91
v -19 3.00015 -91
v -19 0 -103
v -10 0 -103
v -19 3.0001 -103
v -10 3.0001 -103
v -7 0.0001 -108
v -7 0 -106
v -7 1.00015 -108
v -7 1.00005 -106
v -7 0 -103
v -7 1.00005 -103
v -9 0 -103
v -9 0 -106
v -9 1.00005 -103
v -9 1.00005 -106
v -9 1.00015 -108
v 5 0.0001 -116
v 5 0.0001 -108
v 5 3.0001 -116
v 5 3.0001 -108
v -1 0 -116
v -1 3.00005 -116
v -4 0 -116
v -4 3.0001 -116
v -10 0.0001 -116
v -10 3.00015 -116
v -9 3 -103
v -7 3 -108
v -7 3 -103
v -21 3.0001 -91
v -21 0.0001000166 -91
v -19 0 -93
v -19 3.0001 -93
v -21 3.0001 -105
v -21 0.0001000166 -105
v -19.4999 0 -93
v -19.4999 3.0001 -93
v -19.4999 0 -103.5
v -19.4999 3.0001 -103.5
v -11 0 -103.5
v -11 3.0001 -103.5
v -11 0 -110.5001
v -11 3.0001 -110.5001
v -16.9999 3.0001 -105
v -16.9999 0.0001000166 -105
v -16.9999 3.0001 -112
v -16.9999 0.0001000166 -112
v -12.9999 3.0001 -112
v -12.9999 0.0001000166 -112
v -12.9999 3.0001 -115.9999
v -12.9999 0.0001000166 -115.9999
v -9.9999 3.0001 -115.9999
v -9.9999 0.0001000166 -115.9999
v -11.0001 0 -114
v -11.0001 3.0001 -114
v -10.0001 0 -114
v -10.0001 3.0001 -114

vt 0 0
vt -1 0
vt 0 3
vt -1 3
vt 1 0.0001
vt 13 0.0001
vt 1 3.0001
vt 13 3.0001
vt -3 0.0001
vt 3 0
vt -3 3.00015
vt 3 3.00005
vt 6 0
vt 12 0.0001
vt 6 3.00005
vt 12 3.00015
vt -12 0
vt -12 3.0001
vt -4 0.0001
vt -2 0
vt -4 1.00015
vt -2 1.00005
vt 1 1.00005
vt 2 0
vt -1 1.00005
vt 2 1.00005
vt 4 0.0001
vt 4 1.00015
vt -4 3.0001
vt -10 0
vt 2 3
vt -10 3
vt 15 3.0001
vt 15 0.0001000166
vt -13 0
vt -13 3.0001
vt -13.4999 0
vt -13.4999 3.0001
vt 10 0
vt 10 3.0001
vt -0.5 0
vt -0.5 3.0001
vt 13.4999 0
vt 13.4999 3.0001
vt 5 0
vt 5 3.0001
vt -7.500099 0
vt -7.500099 3.0001
vt -15 3.0001
vt -15 0.0001000166
vt -10.9999 3.0001
vt -10.9999 0.0001000166
vt 9 3.0001
vt 9 0.0001000166
vt -6.999901 3.0001
vt -6.999901 0.0001000166
vt 12.9999 3.0001
vt 12.9999 0.0001000166
vt -3.9999 3.0001
vt -3.9999 0.0001000166
vt -11.00014 0
vt -11.00014 3.0001
vt 4.0001 3.0001
vt 11.0001 3
vt 11.0001 0

vn 0 0 -1
vn -1 0 0
vn 0 0 0
vn 0 0 1
vn 1 0 0

g wall_05
usemtl ProBuilderDefault
f 3/3/1 4/4/1 2/2/1 1/1/1
f 8/8/2 7/7/2 5/5/2 6/6/2
f 10/12/1 8/11/1 6/9/1 9/10/1
f 14/16/1 13/15/1 11/13/1 12/14/1
f 14/2/3 14/2/3 12/2/3 12/2/3
f 18/11/4 17/18/4 15/17/4 16/9/4
f 22/22/2 21/21/2 19/19/2 20/20/2
f 24/23/2 22/22/2 20/20/2 23/5/2
f 28/26/5 27/25/5 25/2/5 26/24/5
f 29/28/5 28/26/5 26/24/5 2/27/5
f 33/29/2 32/18/2 30/17/2 31/19/2
f 32/16/4 35/15/4 34/13/4 30/14/4
f 35/15/4 37/12/4 36/10/4 34/13/4
f 37/12/4 39/11/4 38/9/4 36/10/4
f 40/3/4 18/4/4 16/2/4 25/1/4
f 41/31/1 33/32/1 31/30/1 19/24/1
f 7/31/4 42/4/4 23/2/4 5/24/4
f 44/34/1 43/33/1 14/8/1 12/6/1
f 46/32/5 45/30/5 15/1/5 17/3/5
f 48/24/5 47/31/5 43/18/5 44/17/5
f 50/38/4 49/37/4 45/35/4 46/36/4
f 52/42/2 51/41/2 49/39/2 50/40/2
f 54/46/1 53/45/1 51/43/1 52/44/1
f 56/48/2 55/47/2 53/41/2 54/42/2
f 58/52/4 57/51/4 47/49/4 48/50/4
f 60/54/5 59/53/5 57/31/5 58/24/5
f 62/56/4 61/55/4 59/51/4 60/52/4
f 64/58/5 63/57/5 61/53/5 62/54/5
f 66/60/4 65/59/4 63/55/4 64/56/4
f 68/62/2 67/61/2 55/47/2 56/48/2
f 70/63/1 69/27/1 67/45/1 68/46/1
f 69/65/5 70/64/5 3/46/5 1/45/5

